<svg width="214" height="27" viewBox="0 0 214 27" fill="none" xmlns="http://www.w3.org/2000/svg">
<g id="Layer_1" clip-path="url(#clip0_12381_844)">
<g id="Group">
<path id="Vector" d="M48.1823 6.21826V20.0626H45.5114V14.1541H39.2327V20.0626H36.5415V6.21826H39.2327V11.8151H45.5114V6.21826H48.1823Z" fill="#DA3B3B"/>
<path id="Vector_2" d="M56.976 20.1596C55.9623 20.1596 55.0434 19.9609 54.2171 19.5658C53.3908 19.1685 52.6841 18.6424 52.0926 17.9854C51.5011 17.3284 51.0428 16.5789 50.7176 15.7345C50.3925 14.8901 50.23 14.0254 50.23 13.1404C50.23 12.2554 50.4016 11.3342 50.747 10.4876C51.0902 9.64319 51.5665 8.89588 52.1694 8.24566C52.7744 7.59544 53.4924 7.07843 54.3232 6.69461C55.1541 6.3108 56.0594 6.1189 57.0325 6.1189C58.0055 6.1189 58.947 6.32435 59.7711 6.73299C60.5974 7.14164 61.3018 7.67898 61.8866 8.34049C62.4713 9.00426 62.9274 9.75833 63.2525 10.6027C63.5776 11.4471 63.7401 12.305 63.7401 13.1765C63.7401 14.0999 63.5708 14.9804 63.2322 15.818C62.8935 16.6556 62.4262 17.3984 61.8279 18.0419C61.2296 18.6853 60.5139 19.1978 59.683 19.5816C58.8499 19.9655 57.9468 20.1574 56.9738 20.1574L56.976 20.1596ZM52.9596 13.1404C52.9596 13.7387 53.0499 14.3167 53.2327 14.8766C53.4156 15.4365 53.6775 15.9287 54.0229 16.3576C54.3661 16.7866 54.7906 17.132 55.2895 17.3917C55.7907 17.6513 56.3574 17.7822 56.9963 17.7822C57.6353 17.7822 58.2223 17.649 58.7212 17.3826C59.2225 17.1162 59.6447 16.7618 59.9878 16.3192C60.331 15.8767 60.5929 15.38 60.7667 14.8269C60.9428 14.2738 61.0309 13.7116 61.0309 13.1404C61.0309 12.5692 60.9361 11.9641 60.7487 11.4042C60.559 10.8443 60.2926 10.3521 59.9494 9.92314C59.604 9.49418 59.1818 9.15326 58.6829 8.9004C58.1817 8.64754 57.6195 8.5211 56.9963 8.5211C56.3732 8.5211 55.7682 8.65431 55.2602 8.92072C54.7522 9.18713 54.33 9.53933 53.9936 9.97281C53.6549 10.4086 53.3998 10.903 53.2237 11.4539C53.0476 12.007 52.9596 12.5692 52.9596 13.1404Z" fill="#DA3B3B"/>
<path id="Vector_3" d="M77.0991 20.0626V10.8985L73.5319 17.7236H72.0689L68.5017 10.8985V20.0626H65.8105V6.21826H68.6959L72.7914 14.0954L76.9253 6.21826H79.7926V20.0626H77.1014H77.0991Z" fill="#DA3B3B"/>
<path id="Vector_4" d="M92.2891 17.7033V20.0626H82.6758V6.21826H92.113V8.57757H85.367V11.9122H91.1964V14.0954H85.367V17.7033H92.2891Z" fill="#DA3B3B"/>
<path id="Vector_5" d="M94.3955 20.0626V6.21826H97.0867V17.7033H104.144V20.0626H94.3955Z" fill="#DA3B3B"/>
<path id="Vector_6" d="M110.811 20.1596C109.797 20.1596 108.878 19.9609 108.052 19.5658C107.226 19.1685 106.519 18.6424 105.928 17.9854C105.336 17.3284 104.878 16.5789 104.553 15.7345C104.227 14.8901 104.065 14.0254 104.065 13.1404C104.065 12.2554 104.237 11.3342 104.582 10.4876C104.925 9.64319 105.402 8.89588 106.004 8.24566C106.609 7.59544 107.327 7.07843 108.158 6.69461C108.989 6.3108 109.894 6.1189 110.867 6.1189C111.841 6.1189 112.782 6.32435 113.606 6.73299C114.432 7.14164 115.137 7.67898 115.722 8.34049C116.306 9.00426 116.762 9.75833 117.085 10.6027C117.41 11.4471 117.573 12.305 117.573 13.1765C117.573 14.0999 117.404 14.9804 117.065 15.818C116.726 16.6556 116.259 17.3984 115.661 18.0419C115.062 18.6853 114.347 19.1978 113.516 19.5816C112.683 19.9655 111.78 20.1574 110.806 20.1574L110.811 20.1596ZM106.795 13.1404C106.795 13.7387 106.885 14.3167 107.068 14.8766C107.251 15.4365 107.512 15.9287 107.858 16.3576C108.201 16.7866 108.626 17.132 109.124 17.3917C109.626 17.6513 110.192 17.7822 110.831 17.7822C111.47 17.7822 112.057 17.649 112.556 17.3826C113.057 17.1162 113.48 16.7618 113.823 16.3192C114.166 15.8767 114.428 15.38 114.602 14.8269C114.778 14.2738 114.866 13.7116 114.866 13.1404C114.866 12.5692 114.771 11.9641 114.584 11.4042C114.396 10.8443 114.128 10.3521 113.784 9.92314C113.439 9.49418 113.017 9.15326 112.518 8.9004C112.017 8.64754 111.454 8.5211 110.831 8.5211C110.208 8.5211 109.603 8.65431 109.095 8.92072C108.587 9.18713 108.165 9.53933 107.829 9.97281C107.49 10.4086 107.235 10.903 107.059 11.4539C106.883 12.007 106.795 12.5692 106.795 13.1404Z" fill="#DA3B3B"/>
<path id="Vector_7" d="M123.098 6.21826H125.477L130.742 20.0626H127.974L126.687 16.6105H121.851L120.585 20.0626H117.817L123.102 6.21826H123.098ZM126.198 14.7186L124.287 9.27746L122.298 14.7186H126.198Z" fill="#DA3B3B"/>
<path id="Vector_8" d="M134.953 11.1897V20.0626H132.262V6.21826H134.348L141.564 15.3056V6.23632H144.255V20.0603H142.071L134.955 11.1875L134.953 11.1897Z" fill="#DA3B3B"/>
<path id="Vector_9" d="M156.751 18.5026C155.647 19.6067 154.36 20.1598 152.891 20.1598C151.981 20.1598 151.125 19.9769 150.326 19.6134C149.527 19.2499 148.831 18.7487 148.24 18.1121C147.648 17.4754 147.181 16.7236 146.835 15.8611C146.49 14.9964 146.318 14.064 146.318 13.0638C146.318 12.1156 146.49 11.2215 146.835 10.3816C147.179 9.54403 147.655 8.80802 148.258 8.17812C148.863 7.54821 149.574 7.047 150.394 6.67674C151.213 6.30647 152.103 6.12134 153.064 6.12134C154.365 6.12134 155.478 6.39452 156.408 6.94089C157.338 7.48725 158.036 8.22101 158.503 9.14442L156.494 10.6255C156.144 9.93687 155.652 9.41083 155.022 9.04508C154.392 8.68159 153.706 8.49871 152.965 8.49871C152.38 8.49871 151.843 8.62289 151.358 8.86898C150.87 9.11507 150.454 9.45372 150.109 9.88269C149.764 10.3117 149.497 10.8061 149.31 11.3637C149.122 11.9237 149.028 12.5152 149.028 13.1383C149.028 13.7614 149.131 14.3959 149.339 14.9603C149.547 15.5247 149.834 16.0169 150.197 16.4323C150.561 16.8477 150.994 17.1774 151.493 17.4167C151.994 17.6583 152.536 17.7779 153.121 17.7779C154.46 17.7779 155.668 17.148 156.747 15.886V14.9106H153.958V12.9419H158.971V20.0582H156.747V18.4981L156.751 18.5026Z" fill="#1A395A"/>
<path id="Vector_10" d="M167.126 17.7801C167.762 17.7801 168.3 17.6492 168.733 17.3896C169.169 17.1299 169.519 16.7913 169.785 16.3758C170.052 15.9604 170.239 15.4818 170.35 14.9422C170.46 14.4026 170.515 13.8472 170.515 13.276V6.21838H173.185V13.276C173.185 14.2242 173.073 15.116 172.845 15.9469C172.617 16.7777 172.26 17.507 171.772 18.1301C171.284 18.7532 170.657 19.2477 169.891 19.6111C169.124 19.9746 168.207 20.1575 167.142 20.1575C166.076 20.1575 165.098 19.9656 164.324 19.5818C163.55 19.198 162.922 18.6923 162.443 18.0601C161.962 17.4302 161.615 16.6987 161.4 15.8656C161.186 15.0348 161.08 14.1701 161.08 13.2715V6.21387H163.771V13.2715C163.771 13.8562 163.827 14.4184 163.936 14.958C164.046 15.4976 164.234 15.9762 164.5 16.3916C164.766 16.8071 165.114 17.1435 165.543 17.3963C165.972 17.6492 166.498 17.7756 167.123 17.7756L167.126 17.7801Z" fill="#1A395A"/>
<path id="Vector_11" d="M175.899 20.0626V6.21826H182.022C182.658 6.21826 183.248 6.35147 183.787 6.61788C184.327 6.88429 184.792 7.23649 185.18 7.66997C185.571 8.10571 185.876 8.60015 186.097 9.15103C186.318 9.70417 186.429 10.2596 186.429 10.8172C186.429 11.7135 186.205 12.5308 185.756 13.2646C185.307 13.9983 184.699 14.5289 183.932 14.854L187.09 20.0603H184.067L181.24 15.4207H178.588V20.0603H175.896L175.899 20.0626ZM178.59 13.0614H181.963C182.209 13.0614 182.442 13.0027 182.656 12.8853C182.871 12.7679 183.056 12.6098 183.211 12.4067C183.367 12.2057 183.491 11.9687 183.582 11.6955C183.672 11.4223 183.717 11.131 183.717 10.8172C183.717 10.5034 183.665 10.1941 183.561 9.92091C183.458 9.64773 183.318 9.41067 183.141 9.20973C182.965 9.0088 182.764 8.85301 182.536 8.74239C182.308 8.63176 182.078 8.57757 181.843 8.57757H178.588V13.0614H178.59Z" fill="#1A395A"/>
<path id="Vector_12" d="M194.715 17.7801C195.351 17.7801 195.889 17.6492 196.322 17.3896C196.758 17.1299 197.108 16.7913 197.374 16.3758C197.641 15.9604 197.828 15.4818 197.939 14.9422C198.049 14.4026 198.103 13.8472 198.103 13.276V6.21838H200.774V13.276C200.774 14.2242 200.661 15.116 200.433 15.9469C200.205 16.7777 199.849 17.507 199.361 18.1301C198.873 18.7532 198.246 19.2477 197.48 19.6111C196.713 19.9746 195.796 20.1575 194.73 20.1575C193.665 20.1575 192.687 19.9656 191.913 19.5818C191.138 19.198 190.511 18.6923 190.032 18.0601C189.551 17.4302 189.204 16.6987 188.989 15.8656C188.775 15.0348 188.668 14.1701 188.668 13.2715V6.21387H191.36V13.2715C191.36 13.8562 191.416 14.4184 191.524 14.958C191.635 15.4976 191.822 15.9762 192.089 16.3916C192.355 16.8071 192.703 17.1435 193.132 17.3963C193.561 17.6492 194.087 17.7756 194.712 17.7756L194.715 17.7801Z" fill="#1A395A"/>
<path id="Vector_13" d="M211.738 9.84412C211.648 9.75382 211.481 9.62964 211.241 9.47386C211 9.31808 210.708 9.16455 210.363 9.01554C210.018 8.86653 209.645 8.7401 209.241 8.63625C208.837 8.53239 208.428 8.48047 208.013 8.48047C207.272 8.48047 206.719 8.61593 206.356 8.88911C205.992 9.1623 205.809 9.54611 205.809 10.0405C205.809 10.3273 205.877 10.5643 206.015 10.7517C206.15 10.9391 206.349 11.1062 206.608 11.2484C206.868 11.3907 207.195 11.5216 207.593 11.639C207.988 11.7564 208.449 11.8806 208.968 12.0093C209.643 12.1921 210.257 12.3863 210.81 12.594C211.363 12.8017 211.831 13.0614 212.214 13.3729C212.598 13.6845 212.894 14.0593 213.102 14.495C213.309 14.9308 213.413 15.4658 213.413 16.1025C213.413 16.843 213.273 17.4775 212.993 18.0035C212.713 18.5295 212.336 18.9563 211.862 19.2814C211.388 19.6065 210.842 19.8435 210.225 19.9925C209.607 20.1416 208.961 20.2161 208.286 20.2161C207.245 20.2161 206.22 20.0603 205.204 19.7487C204.188 19.4372 203.281 18.9946 202.475 18.4234L203.664 16.1025C203.782 16.2199 203.992 16.3734 204.299 16.5608C204.604 16.7505 204.965 16.9379 205.38 17.1253C205.796 17.3126 206.259 17.4729 206.764 17.6039C207.272 17.7348 207.792 17.7981 208.324 17.7981C209.805 17.7981 210.548 17.3239 210.548 16.3757C210.548 16.0777 210.462 15.8226 210.295 15.6148C210.126 15.4071 209.887 15.2243 209.573 15.0685C209.261 14.9127 208.884 14.7705 208.442 14.6395C207.999 14.5108 207.505 14.3663 206.961 14.2105C206.297 14.0277 205.723 13.8312 205.236 13.6168C204.748 13.4023 204.342 13.1494 204.017 12.8559C203.692 12.5624 203.448 12.226 203.285 11.8422C203.123 11.4584 203.041 11.0001 203.041 10.4673C203.041 9.7651 203.172 9.14198 203.432 8.59561C203.692 8.04924 204.053 7.59544 204.513 7.22969C204.974 6.8662 205.511 6.5885 206.123 6.40111C206.735 6.21372 207.39 6.1189 208.092 6.1189C209.067 6.1189 209.963 6.27242 210.783 6.57721C211.603 6.882 212.316 7.24324 212.928 7.65866L211.738 9.84187V9.84412Z" fill="#1A395A"/>
</g>
<path id="Vector_14" d="M27 -0.103516H0V26.8965H27V-0.103516Z" fill="#1A395A"/>
<path id="Vector_15" d="M20.5182 5.81836L10.5685 20.06H7.59961L17.529 5.81836H20.5182Z" fill="white"/>
</g>
<defs>
<clipPath id="clip0_12381_844">
<rect width="213.415" height="27" fill="white" transform="translate(0 -0.103516)"/>
</clipPath>
</defs>
</svg>
