<svg width="33" height="39" viewBox="0 0 33 39" fill="none" xmlns="http://www.w3.org/2000/svg">
<g id="Group">
<path id="Vector" d="M9.96437 14.1681C15.1538 13.7465 17.9056 7.06238 13.8737 3.35237C13.728 3.22206 14.004 2.93078 9.7574 9.07069C4.62165 4.20322 4.8976 4.38719 4.78262 4.47151C0.720007 8.48046 4.74429 14.5974 9.96437 14.1681Z" fill="#1A395A"/>
<path id="Vector_2" d="M9.39703 6.55655C9.54267 6.71752 9.47368 6.74051 12.9461 0.884218C12.9544 0.871212 12.96 0.856665 12.9626 0.841439C12.9652 0.826213 12.9647 0.810619 12.9611 0.795595C12.9575 0.780572 12.9509 0.766421 12.9418 0.753991C12.9326 0.741561 12.921 0.731106 12.9077 0.723248C11.6832 0.0788281 10.2803 -0.143513 8.91652 0.0907102C7.55276 0.324933 6.3044 1.00263 5.36508 2.01869C5.27309 2.13367 5.13512 1.91137 9.39703 6.55655ZM1.38678 34.9565C1.58339 34.9552 1.77522 34.8958 1.93813 34.7858C2.10105 34.6757 2.22777 34.5199 2.30234 34.338C2.37691 34.1561 2.396 33.9562 2.3572 33.7634C2.31841 33.5707 2.22347 33.3937 2.08432 33.2548C2.46759 32.6339 4.95115 28.5483 5.67935 27.4445C5.86807 27.5318 6.07871 27.5602 6.2838 27.526C6.48889 27.4918 6.67893 27.3966 6.82915 27.2529L10.3705 29.9817C10.3128 30.1526 10.3025 30.3359 10.3407 30.5121C10.379 30.6884 10.4643 30.8509 10.5877 30.9825C10.7111 31.114 10.8678 31.2096 11.0412 31.2591C11.2147 31.3085 11.3983 31.31 11.5725 31.2633C11.7466 31.2167 11.9049 31.1236 12.0304 30.994C12.1558 30.8645 12.2438 30.7033 12.2849 30.5277C12.3259 30.3521 12.3186 30.1687 12.2636 29.9969C12.2086 29.8252 12.108 29.6716 11.9726 29.5525L13.2297 27.8968C13.4547 27.9997 13.7098 28.016 13.946 27.9424C14.1822 27.8688 14.383 27.7106 14.5098 27.4982L18.1738 28.7399C18.154 28.9048 18.1757 29.072 18.237 29.2264C18.2982 29.3807 18.3971 29.5173 18.5246 29.6237C18.6521 29.7301 18.8041 29.803 18.9669 29.8357C19.1297 29.8684 19.2981 29.8599 19.4568 29.811C19.6155 29.7621 19.7595 29.6742 19.8756 29.5555C19.9917 29.4368 20.0763 29.291 20.1217 29.1312C20.1671 28.9715 20.1719 28.803 20.1356 28.6409C20.0993 28.4789 20.023 28.3285 19.9138 28.2034C20.2204 27.1072 22.8726 19.005 23.1409 18.2385C23.3983 18.216 23.6372 18.0952 23.8078 17.9012C24.536 18.4761 26.7206 20.1088 27.4258 20.5841C27.3855 20.7427 27.3849 20.9089 27.4241 21.0678C27.4633 21.2267 27.541 21.3736 27.6504 21.4954C27.7598 21.6171 27.8976 21.7101 28.0514 21.7659C28.2053 21.8218 28.3705 21.839 28.5326 21.8158C28.6946 21.7927 28.8485 21.73 28.9805 21.6332C29.1126 21.5365 29.2188 21.4087 29.2897 21.2612C29.3607 21.1136 29.3942 20.9509 29.3873 20.7874C29.3804 20.6238 29.3333 20.4645 29.2502 20.3234C31.2891 17.0733 31.3811 17.127 31.1665 16.9814C31.1261 16.9563 31.0779 16.9471 31.0312 16.9556C30.9844 16.9641 30.9425 16.9897 30.9135 17.0274C30.5533 17.5486 28.8516 19.9402 28.8516 19.9402C28.6703 19.8509 28.4666 19.8171 28.2662 19.843C28.0658 19.8689 27.8774 19.9534 27.7248 20.0858C27.0119 19.5876 24.7506 17.9702 24.0301 17.4106C24.0609 17.2337 24.0433 17.0518 23.9792 16.8841C23.9151 16.7164 23.8069 16.5691 23.666 16.4578C23.5251 16.3465 23.3567 16.2753 23.1787 16.2518C23.0007 16.2283 22.8197 16.2534 22.6547 16.3243C22.4898 16.3952 22.3471 16.5094 22.2416 16.6548C22.1362 16.8001 22.0721 16.9713 22.0559 17.1501C22.0398 17.3289 22.0722 17.5088 22.1499 17.6707C22.2275 17.8326 22.3475 17.9705 22.497 18.0698C21.8378 19.8635 19.9215 26.0724 19.4309 27.8814C19.2467 27.8339 19.0529 27.8389 18.8714 27.8958C18.6899 27.9527 18.5279 28.0592 18.4038 28.2034C17.6372 27.9427 15.3376 27.2452 14.6401 27.0229C14.6401 26.7607 14.5359 26.5091 14.3505 26.3237C14.165 26.1383 13.9135 26.0341 13.6513 26.0341C13.389 26.0341 13.1375 26.1383 12.9521 26.3237C12.7666 26.5091 12.6624 26.7607 12.6624 27.0229C12.6641 27.2418 12.7367 27.4543 12.8694 27.6285L11.4973 29.3378C11.3659 29.309 11.2299 29.3078 11.098 29.3342C10.9661 29.3606 10.841 29.414 10.7308 29.4911L7.07444 26.724C7.11434 26.4867 7.06636 26.243 6.93949 26.0386C6.81261 25.8341 6.61555 25.683 6.38522 25.6134C6.15488 25.5438 5.90709 25.5606 5.68825 25.6606C5.46942 25.7607 5.29456 25.937 5.19644 26.1567C5.12019 26.3147 5.08914 26.4907 5.10673 26.6652C5.12432 26.8397 5.18986 27.006 5.29609 27.1456C4.57555 28.2264 1.96168 32.404 1.58608 33.0095C1.4485 32.975 1.3051 32.9704 1.16561 32.9962C1.02611 33.0219 0.893798 33.0774 0.77764 33.1588C0.661482 33.2403 0.564201 33.3457 0.492402 33.4681C0.420603 33.5904 0.375966 33.7267 0.361521 33.8679C0.347076 34.009 0.363162 34.1516 0.408686 34.2859C0.45421 34.4202 0.528107 34.5432 0.62536 34.6465C0.722613 34.7498 0.840946 34.8309 0.972325 34.8844C1.1037 34.9379 1.24506 34.9625 1.38678 34.9565ZM14.7244 37.67C14.6675 37.67 14.6129 37.6926 14.5726 37.7329C14.5324 37.7731 14.5098 37.8277 14.5098 37.8847C14.5098 37.9416 14.5324 37.9962 14.5726 38.0364C14.6129 38.0767 14.6675 38.0993 14.7244 38.0993C16.0658 38.0993 31.8104 37.4861 32.3546 37.4784C32.3904 37.4704 32.4223 37.4505 32.4453 37.422C32.4682 37.3934 32.4807 37.3579 32.4807 37.3213C32.4807 37.2846 32.4682 37.2491 32.4453 37.2205C32.4223 37.192 32.3904 37.1721 32.3546 37.1641C30.216 37.1718 16.0965 37.5167 14.7244 37.67ZM21.4622 32.1893C21.511 32.1893 21.5578 32.1699 21.5923 32.1354C21.6268 32.1009 21.6462 32.0542 21.6462 32.0054C21.6462 31.9566 21.6268 31.9098 21.5923 31.8753C21.5578 31.8408 21.511 31.8214 21.4622 31.8214C20.8567 31.8214 18.6644 31.6911 18.1508 31.7141C18.0614 31.7141 17.9756 31.7496 17.9123 31.8129C17.8491 31.8761 17.8135 31.9619 17.8135 32.0514C17.8135 32.1408 17.8491 32.2266 17.9123 32.2898C17.9756 32.3531 18.0614 32.3886 18.1508 32.3886C18.6567 32.45 20.826 32.243 21.4622 32.1893ZM13.268 33.1705H9.96426C9.89282 33.1738 9.82359 33.1963 9.76384 33.2356C9.7041 33.275 9.65602 33.3296 9.62467 33.3939C9.59331 33.4582 9.57983 33.5297 9.58563 33.601C9.59143 33.6723 9.61631 33.7407 9.65765 33.799C9.86461 34.1057 10.0256 33.868 13.2833 33.5921C13.3238 33.5728 13.3577 33.542 13.3809 33.5037C13.4041 33.4653 13.4156 33.421 13.414 33.3763C13.4123 33.3315 13.3976 33.2881 13.3717 33.2516C13.3458 33.215 13.3097 33.1868 13.268 33.1705ZM0.19866 37.2638C0.359631 37.2638 2.68988 37.0108 3.20346 36.9878C3.26038 36.9878 3.31497 36.9652 3.35523 36.9249C3.39548 36.8847 3.41809 36.8301 3.41809 36.7732C3.41809 36.7163 3.39548 36.6617 3.35523 36.6214C3.31497 36.5812 3.26038 36.5586 3.20346 36.5586C2.90451 36.5586 0.313639 36.6659 0.137337 36.7502C0.0905358 36.7784 0.0528666 36.8195 0.0288583 36.8685C0.00484996 36.9176 -0.00447614 36.9726 0.00200061 37.0268C0.00847736 37.081 0.0304816 37.1323 0.0653684 37.1743C0.100255 37.2163 0.14654 37.2474 0.19866 37.2638Z" fill="#1A395A"/>
<path id="Vector_3" d="M27.2494 23.9721H27.372C30.6298 23.6808 30.5148 23.9031 30.6528 23.7498C30.6783 23.7197 30.695 23.6832 30.7011 23.6443C30.7072 23.6054 30.7024 23.5655 30.6874 23.5291C30.6724 23.4927 30.6476 23.4611 30.6158 23.4378C30.584 23.4146 30.5464 23.4005 30.5071 23.3972C29.365 23.3972 28.2919 23.2975 27.2647 23.3435C26.8278 23.3512 26.8661 23.9721 27.2494 23.9721ZM10.1098 17.2803C10.0264 17.2803 9.94647 17.3134 9.88753 17.3723C9.82859 17.4313 9.79548 17.5112 9.79548 17.5945C9.79548 17.6779 9.82859 17.7578 9.88753 17.8168C9.94647 17.8757 10.0264 17.9088 10.1098 17.9088C11.2059 17.9088 15.4755 17.5179 16.5103 17.4106C16.5593 17.4012 16.6035 17.375 16.6353 17.3365C16.6671 17.2981 16.6845 17.2497 16.6845 17.1998C16.6845 17.1499 16.6671 17.1015 16.6353 17.063C16.6035 17.0246 16.5593 16.9984 16.5103 16.989C15.4448 17.0733 11.1676 17.1883 10.1098 17.2803ZM9.58852 19.0739C9.52686 19.0892 9.4729 19.1265 9.4368 19.1788C9.4007 19.2311 9.38493 19.2947 9.39246 19.3578C9.4 19.4209 9.43031 19.479 9.4777 19.5213C9.5251 19.5636 9.58631 19.5872 9.64984 19.5875C10.861 19.5875 15.6134 19.1583 16.8092 19.1506C16.8621 19.1506 16.9128 19.1296 16.9502 19.0922C16.9875 19.0549 17.0085 19.0042 17.0085 18.9513C17.0085 18.8984 16.9875 18.8478 16.9502 18.8104C16.9128 18.773 16.8621 18.752 16.8092 18.752C14.3979 18.6989 11.9856 18.8065 9.58852 19.0739ZM16.196 20.3004C14.19 20.2715 12.1839 20.3508 10.1864 20.538C9.81848 20.584 9.80315 21.1436 10.1864 21.1436C10.8686 21.1436 14.594 20.7603 16.2037 20.699C16.2298 20.6985 16.2557 20.6928 16.2797 20.6824C16.3036 20.6719 16.3253 20.6568 16.3435 20.6379C16.3616 20.619 16.3759 20.5968 16.3854 20.5724C16.395 20.5481 16.3996 20.522 16.3991 20.4959C16.3986 20.4697 16.393 20.4439 16.3825 20.4199C16.372 20.3959 16.3569 20.3742 16.3381 20.3561C16.3192 20.3379 16.2969 20.3237 16.2726 20.3141C16.2482 20.3045 16.2222 20.2999 16.196 20.3004ZM18.7179 3.78933C19.0935 3.78933 22.9185 3.39073 23.6697 3.33708C23.7225 3.33708 23.7732 3.31607 23.8106 3.2787C23.848 3.24132 23.869 3.19063 23.869 3.13778C23.869 3.08492 23.848 3.03423 23.8106 2.99685C23.7732 2.95948 23.7225 2.93848 23.6697 2.93848C23.2941 2.93848 19.1931 3.06112 18.7409 3.09179C18.2886 3.12245 18.2886 3.78933 18.7179 3.78933ZM19.5074 5.33772C20.7109 5.33772 25.402 4.89313 26.5902 4.81648C26.6335 4.80768 26.6724 4.78418 26.7004 4.74995C26.7284 4.71573 26.7437 4.67288 26.7437 4.62868C26.7437 4.58447 26.7284 4.54163 26.7004 4.5074C26.6724 4.47318 26.6335 4.44967 26.5902 4.44088C25.3944 4.49453 20.6725 4.51753 19.4998 4.64018C19.4163 4.65349 19.3403 4.69638 19.2858 4.761C19.2313 4.82563 19.2018 4.9077 19.2027 4.99225C19.2036 5.0768 19.2349 5.15821 19.2909 5.22162C19.3468 5.28504 19.4236 5.32624 19.5074 5.33772Z" fill="#1A395A"/>
</g>
</svg>
