<svg width="50" height="69" viewBox="0 0 50 69" fill="none" xmlns="http://www.w3.org/2000/svg">
<g id="Group 3">
<g id="Group">
<path id="Vector" d="M27.7752 10.9117C27.5864 10.9085 27.3997 10.9515 27.2313 11.037C27.063 11.1225 26.9181 11.2479 26.8094 11.4023C26.7404 11.4789 26.8553 11.6016 26.9243 11.5173C27.1503 11.2619 27.4604 11.096 27.7982 11.0497C27.8165 11.0466 27.8328 11.0364 27.8436 11.0214C27.8544 11.0063 27.8587 10.9875 27.8557 10.9692C27.8526 10.9509 27.8424 10.9346 27.8273 10.9238C27.8122 10.913 27.7935 10.9087 27.7752 10.9117ZM30.458 10.4211C30.8336 10.1069 31.0713 10.4825 31.1633 10.5668C31.1789 10.5813 31.1994 10.5894 31.2207 10.5894C31.2421 10.5894 31.2626 10.5813 31.2782 10.5668C31.3472 10.4901 31.2092 10.1758 30.918 10.1145C30.8132 10.0924 30.7046 10.0977 30.6025 10.1299C30.5004 10.1621 30.4084 10.2202 30.3354 10.2985C30.3191 10.3147 30.31 10.3368 30.31 10.3598C30.31 10.3828 30.3191 10.4049 30.3354 10.4211C30.3517 10.4374 30.3737 10.4465 30.3967 10.4465C30.4197 10.4465 30.4418 10.4374 30.458 10.4211ZM29.8218 11.8239C29.7125 11.8393 29.6015 11.8393 29.4922 11.8239C29.4156 11.8239 29.3312 11.9159 29.4079 11.9772C29.4969 12.0462 29.6024 12.091 29.7139 12.1071C29.8254 12.1232 29.9392 12.1102 30.0441 12.0692C30.0737 12.0573 30.0983 12.0355 30.1137 12.0076C30.1291 11.9796 30.1343 11.9472 30.1284 11.9159C29.8943 11.4965 29.6384 11.0897 29.3619 10.6971C29.3517 10.6808 29.3355 10.6693 29.3168 10.6649C29.2982 10.6606 29.2785 10.6639 29.2623 10.6741C29.246 10.6843 29.2344 10.7005 29.2301 10.7191C29.2258 10.7378 29.2291 10.7575 29.2393 10.7737C29.4123 11.1351 29.6068 11.4858 29.8218 11.8239ZM29.1243 13.7096C29.4079 13.7632 29.6838 13.4719 29.6149 13.2496C29.8332 13.2255 30.0404 13.1405 30.2128 13.0043C30.23 12.9932 30.2422 12.9756 30.2465 12.9554C30.2508 12.9353 30.2469 12.9143 30.2357 12.897C30.2246 12.8797 30.207 12.8676 30.1869 12.8633C30.1667 12.859 30.1457 12.8628 30.1284 12.874C29.9114 13.0112 29.6573 13.0782 29.4008 13.0659C29.1444 13.0535 28.8979 12.9624 28.695 12.805C28.6828 12.7837 28.6626 12.7681 28.6389 12.7616C28.6152 12.7551 28.5899 12.7583 28.5685 12.7705C28.5472 12.7827 28.5316 12.8029 28.5251 12.8266C28.5186 12.8504 28.5219 12.8757 28.5341 12.897C28.6107 13.219 28.7333 13.6329 29.1243 13.7096ZM29.4692 13.2573C29.3466 13.6406 28.971 13.5869 28.8023 13.0887C29.0037 13.2012 29.2309 13.2594 29.4616 13.2573H29.4692Z" fill="#4361EE"/>
</g>
<path id="Vector_2" d="M49.3847 7.8839C49.3546 7.82027 49.3013 7.77055 49.2358 7.7449C49.1702 7.71925 49.0974 7.71962 49.0321 7.74592C49.0321 7.69227 49.4537 6.9794 49.216 6.81843C49.1764 6.79555 49.1315 6.78351 49.0857 6.78351C49.04 6.78351 48.995 6.79555 48.9554 6.81843C49.0627 6.56547 49.1164 6.30485 48.9554 6.1822C48.8949 6.14125 48.822 6.12267 48.7492 6.12967C48.6765 6.13666 48.6084 6.16879 48.5568 6.22053C48.6028 6.05956 48.6182 5.62264 48.4572 5.61497C48.0586 5.61497 47.821 6.15921 47.6446 6.44282C47.4683 6.72644 47.3534 7.20935 47.1311 7.03305C46.9088 6.85675 46.2956 6.45049 46.0273 6.5578C45.5137 6.7571 46.1422 8.72708 46.1346 8.74241C45.7973 8.91872 45.69 9.50894 45.667 9.83855C44.4099 9.69291 43.766 11.1493 41.658 14.1618C39.5501 17.1743 35.7251 18.0558 32.291 17.5652C32.3069 17.4839 32.3046 17.4001 32.2841 17.3199C32.2637 17.2396 32.2257 17.1649 32.173 17.1011C32.1202 17.0373 32.0539 16.986 31.9788 16.951C31.9038 16.9159 31.8219 16.8979 31.7391 16.8983C31.6194 16.3205 31.5527 15.7329 31.5398 15.143C31.5398 14.844 31.5398 14.8823 31.9614 14.66C32.1613 14.5738 32.3422 14.4487 32.4935 14.2922C32.6448 14.1356 32.7635 13.9506 32.8429 13.7479C33.2174 12.3589 33.1935 10.8926 32.774 9.51661C32.8981 9.11401 32.9854 8.70093 33.0346 8.2825C33.2109 8.36682 33.2109 8.19818 33.2339 8.13685C33.379 7.41747 33.2388 6.66985 32.8429 6.05189C32.5654 5.72319 32.1842 5.4988 31.7621 5.41567C31.2941 4.47577 30.4798 3.75404 29.4905 3.40235C28.5012 3.05065 27.414 3.09641 26.4577 3.53001C24.6717 4.43451 22.8397 6.51948 23.8745 8.56611C23.5066 9.10269 23.1617 9.75424 23.3533 10.2372C23.4463 10.5089 23.6359 10.737 23.886 10.8783C24.136 11.0196 24.4293 11.0642 24.7101 11.0037C24.5653 11.243 24.4888 11.5174 24.4888 11.797C24.4888 12.0767 24.5653 12.3511 24.7101 12.5904C25.2926 13.4029 25.8599 13.127 25.8599 13.127C25.9365 14.2921 26.9943 14.8977 28.1058 15.005C28.1058 15.005 27.7838 16.2927 27.6459 16.6607C27.4236 16.4614 26.956 16.6607 26.8793 17.0286C24.8391 16.9156 22.8725 16.2273 21.207 15.0433C18.6621 13.3109 19.0454 11.0037 16.8914 5.30069C16.8254 5.05519 16.7106 4.8255 16.5539 4.62533C16.3972 4.42515 16.2017 4.25859 15.9793 4.13557C15.9793 3.73697 15.2817 3.51468 15.2127 3.49935C15.6037 3.09308 16.6462 2.19624 16.1709 1.91263C15.8796 1.74399 15.4044 2.29589 15.4044 1.95862C15.4044 1.40672 15.2357 0.632519 15.0594 0.655515C14.8831 0.678511 14.7988 0.839483 14.7375 0.985124C14.5919 0.279916 14.1703 0.479216 14.0936 1.08478C14.0016 0.808825 13.8636 0.578866 13.6567 0.617193C13.4497 0.655519 13.3654 1.09244 13.3961 1.48337C13.3117 1.36072 13.1431 1.15376 12.9821 1.28407C12.8212 1.41438 12.9361 1.86663 12.9821 2.11959C13.0493 2.65556 13.2129 3.17495 13.4651 3.65265C13.2836 3.81424 13.1462 4.01931 13.0657 4.2486C12.9853 4.47789 12.9644 4.72386 13.0051 4.96342C12.2386 6.31251 12.3612 9.5626 12.3306 11.1723C12.2003 17.0669 14.1243 23.0076 19.582 25.3071C19.1049 27.124 18.5344 28.9149 17.8726 30.6729C17.6632 31.2119 17.597 31.7959 17.6802 32.3681C17.7635 32.9404 17.9935 33.4813 18.3478 33.9383C17.5353 34.3982 17.6656 34.9501 18.0949 35.4713C16.0911 38.0909 14.9477 41.2667 14.8218 44.5624C14.9484 46.606 14.9151 48.6563 14.7222 50.6946C14.7222 50.802 14.5382 50.802 14.5459 50.6946C14.6723 49.0081 14.6723 47.3144 14.5459 45.6279C11.6879 43.5886 8.99652 41.3253 6.49729 38.8594C6.19992 38.9959 5.91071 39.1494 5.63111 39.3193C5.2785 39.0204 4.93356 38.7214 4.59629 38.4071C4.64228 38.1082 3.40817 37.0427 3.26253 37.0044C3.13842 36.9919 3.01307 37.0052 2.89435 37.0434C2.77563 37.0817 2.6661 37.1441 2.57265 37.2267C1.61439 37.9421 0.753699 38.7796 0.0124363 39.7179C-0.0488861 39.8866 0.127415 40.0782 0.303717 40.1089C1.19082 40.054 2.07388 39.9465 2.94825 39.7869C3.14755 40.1855 3.32385 40.6071 3.52315 41.0134C3.30085 41.2586 3.10922 41.4886 2.95591 41.6956C5.09453 47.6515 11.725 56.9342 15.2741 57.4554C16.2175 57.6317 17.1907 57.555 18.0949 57.2331C21.2223 56.068 24.6487 48.0348 24.6487 48.0348C25.49 46.5546 26.2276 45.0178 26.8563 43.4356C26.8649 43.4151 26.8805 43.3984 26.9004 43.3885C26.9203 43.3786 26.943 43.3763 26.9645 43.3819C26.986 43.3875 27.0047 43.4007 27.0172 43.419C27.0298 43.4373 27.0352 43.4595 27.0326 43.4816C26.5497 45.2063 25.4996 46.678 24.7331 48.2954C24.9544 48.9442 25.2421 49.5684 25.5916 50.1581C26.5127 51.5786 27.6507 52.8459 28.9643 53.9141C29.0793 53.9907 28.9643 54.1747 28.857 54.098C28.1952 53.6545 27.5835 53.1405 27.0326 52.565C24.1811 55.7691 21.46 59.0319 18.8691 62.3536C19.0837 62.6295 19.3137 62.9208 19.559 63.2121C19.3213 63.5034 19.0607 63.7793 18.8461 64.0783C18.3943 64.521 17.9862 65.0061 17.6273 65.527C17.566 66.0789 20.3332 68.4092 20.5018 68.4475C20.5857 68.4704 20.6747 68.4673 20.7568 68.4386C20.8389 68.4098 20.9104 68.3568 20.9617 68.2865C21.184 67.8573 20.5401 66.6155 20.4405 65.757C20.6934 65.5117 20.9387 65.2587 21.207 64.9904L21.8049 65.5883C23.0543 64.8831 35.4262 57.808 36.6066 55.6234C38.3313 52.4117 35.3112 40.9904 35.3112 40.9904C35.3112 40.9904 36.6526 40.9444 36.0777 39.5646C36.9439 39.0817 37.1432 36.6058 37.2198 35.3027C37.3731 32.6275 37.3731 29.937 37.3118 27.2618C41.8045 24.1998 45.2756 19.8609 47.2767 14.8057C47.7443 13.5639 48.4648 12.1995 47.7136 11.0957C48.1429 10.812 48.6181 10.3291 48.4802 9.90754C48.4097 9.71688 48.2908 9.54783 48.1352 9.41696C48.5875 9.16401 49.607 8.35148 49.3847 7.8839ZM3.82209 40.7297C3.61513 40.3388 3.39284 39.9632 3.14755 39.5799V39.5263C3.14395 39.3728 3.17457 39.2204 3.23716 39.0802C3.29976 38.94 3.39277 38.8155 3.50944 38.7157C3.62612 38.6159 3.76355 38.5433 3.91176 38.5032C4.05997 38.4631 4.21524 38.4565 4.36633 38.4838C4.68627 38.8331 5.02399 39.1657 5.37815 39.4803C4.81497 39.8381 4.29311 40.2571 3.82209 40.7297ZM20.3255 65.4963C20.0194 65.5002 19.7229 65.3901 19.4934 65.1875C19.2639 64.985 19.1179 64.7044 19.0837 64.4002C19.2983 64.0706 19.5513 63.7717 19.7889 63.4574C19.9882 63.6873 20.8391 64.6302 21.0537 64.8448C20.3408 65.4274 20.3255 65.573 20.3255 65.4963ZM26.5957 3.71398C28.5427 2.74815 30.4667 3.62199 31.5628 5.35435C30.2585 5.12124 28.9162 5.22645 27.6642 5.65991C26.4121 6.09336 25.2921 6.8406 24.4111 7.83024C24.2961 7.97588 24.1352 8.16752 23.9742 8.38981C23.1157 6.47348 24.9247 4.54949 26.5957 3.71398ZM24.6717 10.5438C24.2501 10.858 23.1387 10.2678 23.9052 9.0107C24.4528 8.11369 25.1852 7.34353 26.0535 6.75143C26.9218 6.15933 27.9062 5.75886 28.9413 5.57664C30.0221 5.36201 31.7775 5.20104 32.5977 6.10555C32.8411 6.37515 33.009 6.70429 33.0844 7.05964C33.1598 7.415 33.14 7.78396 33.0269 8.12919C31.0569 7.36266 28.6424 7.18636 26.841 8.31316C26.0412 8.97799 25.314 9.7257 24.6717 10.5438ZM28.2438 14.982C28.2438 14.982 28.2438 14.89 28.1901 14.8823C27.6623 14.855 27.1586 14.6525 26.7588 14.3068C26.359 13.9611 26.0858 13.492 25.9825 12.9737C25.7209 12.9059 25.4647 12.8188 25.216 12.713C25.0799 12.6193 24.9655 12.4976 24.8805 12.356C24.7954 12.2144 24.7416 12.0562 24.7227 11.8921C24.7038 11.728 24.7203 11.5618 24.771 11.4046C24.8217 11.2474 24.9055 11.1028 25.0167 10.9807C25.101 11.4559 25.3846 11.7472 25.7219 11.7472C26.0591 11.7472 26.0515 11.065 26.0515 10.927C26.6417 10.6874 27.1499 10.2818 27.5145 9.75945C27.879 9.23707 28.0844 8.62023 28.1058 7.98355C28.6045 8.44161 29.2028 8.7775 29.8535 8.96471C30.7301 9.29503 31.6486 9.50143 32.5823 9.57793C32.9809 11.3869 33.3489 14.2384 31.4709 14.706C31.4499 14.7098 31.4311 14.7214 31.4183 14.7384C31.4054 14.7555 31.3996 14.7768 31.4019 14.798C31.3668 15.5214 31.4131 16.2465 31.5398 16.9596C31.3559 16.9596 30.7733 17.6035 30.2137 17.7262C29.7686 17.7964 29.3128 17.7499 28.891 17.5914C28.4691 17.4329 28.0956 17.1677 27.8068 16.8217C27.9968 16.2198 28.1429 15.605 28.2438 14.982ZM27.6689 16.9443C28.6347 17.8258 29.9685 18.3087 31.0339 17.5805C31.3022 17.3812 31.6625 17.0439 31.8005 17.0976C31.9384 17.1513 32.1761 17.3736 32.0611 17.8028C31.6548 19.2516 29.7615 19.1902 28.5504 18.8146C28.2548 18.7552 27.9773 18.6271 27.7403 18.4407C27.5033 18.2543 27.3134 18.0148 27.186 17.7415C27.1016 17.4119 27.1706 16.4614 27.6919 16.9443H27.6689ZM13.1048 1.89729C13.0051 1.21508 13.2351 1.42971 13.4421 2.16558C13.448 2.18641 13.4606 2.20472 13.4779 2.21776C13.4951 2.2308 13.5162 2.23786 13.5379 2.23786C13.5595 2.23786 13.5806 2.2308 13.5979 2.21776C13.6152 2.20472 13.6277 2.18641 13.6337 2.16558C13.6337 1.92796 13.4727 1.13843 13.6797 1.03878C13.8866 0.939133 14.017 1.80531 14.0783 2.00461C14.0868 2.0251 14.1024 2.04183 14.1223 2.0517C14.1422 2.06157 14.165 2.06392 14.1864 2.05832C14.2079 2.05272 14.2266 2.03954 14.2392 2.02122C14.2517 2.0029 14.2572 1.98066 14.2546 1.95862C14.2546 1.8743 14.1856 0.678511 14.4769 1.06178C14.5674 1.3205 14.614 1.59253 14.6148 1.86663C14.6148 2.01227 14.8141 1.98161 14.8141 1.86663C14.8141 1.57535 14.8678 0.655517 15.1514 1.18442C15.2085 1.52106 15.229 1.86286 15.2127 2.20391C15.2127 2.57184 16.1556 1.74399 15.9793 2.35722C15.9409 2.51819 15.4887 2.84013 15.389 2.95511L14.9521 3.44569C14.4961 3.30932 14.0062 3.34198 13.5724 3.53767C13.3193 3.02287 13.1584 2.46767 13.0971 1.89729H13.1048ZM14.3082 3.62966C14.6608 3.62966 15.5423 3.68331 15.7416 4.05891C15.2884 3.95649 14.8174 3.96283 14.3671 4.07741C13.9167 4.19199 13.4999 4.41155 13.1508 4.71813C13.1516 4.5702 13.1824 4.42398 13.2413 4.28826C13.3002 4.15255 13.3859 4.03016 13.4933 3.92846C13.6008 3.82676 13.7277 3.74785 13.8664 3.6965C14.0051 3.64515 14.1528 3.62241 14.3006 3.62966H14.3082ZM33.9851 40.9137C31.3099 40.7451 26.7107 39.5186 21.9122 37.5716C19.3213 36.5292 17.0601 34.8888 18.4552 34.0916C19.475 35.1346 20.7023 35.9519 22.0579 36.4908C23.6376 37.2137 25.2637 37.8309 26.9253 38.3382C28.8723 38.9361 34.3453 40.5841 35.9321 39.7792C36.4686 41.021 34.4757 40.9444 33.9774 40.9137H33.9851ZM47.5527 13.5869C45.92 18.4084 43.3904 22.4633 37.3501 27.1468C37.3042 25.3531 37.2352 23.5901 37.1508 21.7811C37.1508 21.6508 36.9439 21.6431 36.9515 21.7811C37.0589 25.0772 37.1815 28.3733 37.1432 31.6694C37.1432 33.2867 37.3885 38.8134 35.6101 39.5263C33.6785 40.2928 23.9435 37.6483 20.1722 35.2414C17.6196 33.6087 17.4587 32.2289 18.0719 30.5349C18.7081 28.8387 19.2506 27.1088 19.6969 25.3531C20.6303 25.7127 21.6177 25.9123 22.6174 25.9434C22.6364 25.9377 22.6531 25.9261 22.6649 25.9102C22.6767 25.8943 22.6831 25.875 22.6831 25.8552C22.6831 25.8354 22.6767 25.8161 22.6649 25.8002C22.6531 25.7844 22.6364 25.7727 22.6174 25.7671C21.6078 25.6558 20.61 25.4558 19.6356 25.1692C14.6378 23.2222 12.4992 16.9136 12.5146 11.7319C12.5146 10.1452 12.5912 8.54312 12.7139 6.96406C12.7828 6.02123 12.9208 4.89443 13.8866 4.44985C14.1243 4.31958 14.3865 4.24016 14.6565 4.21665C14.9265 4.19314 15.1985 4.22603 15.4551 4.31326C15.7117 4.40048 15.9474 4.54012 16.1472 4.7233C16.3469 4.90649 16.5064 5.12922 16.6155 5.37734C18.3249 9.66992 18.4168 11.9925 19.329 13.4106C21.437 16.676 25.3233 17.1513 26.8717 17.1589C26.7107 18.3241 28.0981 18.9449 29.0103 19.1136C30.2904 19.3435 32.0304 19.2132 32.2604 17.7338C34.8494 18.1874 37.5147 17.6658 39.7417 16.2698C40.7957 15.5397 41.6795 14.5905 42.3326 13.4872C42.7695 12.8204 44.7165 9.75423 45.8433 10.0992C46.2573 10.2363 46.642 10.4494 46.9778 10.7277C47.9743 11.5096 47.9129 12.4908 47.545 13.5869H47.5527ZM48.2272 9.89221C48.4265 10.3828 47.9819 10.881 47.683 11.0497C47.2192 10.4511 46.5646 10.0292 45.828 9.85388C45.828 9.35564 46.0349 8.92638 46.5945 8.92638C46.9219 8.94976 47.2392 9.04924 47.5214 9.21692C47.8035 9.3846 48.0426 9.61583 48.2196 9.89221H48.2272ZM48.0816 9.37864C47.6026 8.93062 46.9743 8.67656 46.3186 8.66576C46.3186 8.22117 46.0656 7.64627 46.0579 7.20935C46.0579 6.18987 47.2537 7.54663 47.4224 7.27834C47.5538 6.89856 47.7481 6.54357 47.9973 6.2282C48.0892 6.12855 48.2732 5.89859 48.3499 6.2282C48.2621 6.5367 48.1413 6.83482 47.9896 7.11737C47.9794 7.13567 47.9769 7.15725 47.9827 7.17738C47.9884 7.1975 48.002 7.21452 48.0203 7.22468C48.0386 7.23485 48.0601 7.23733 48.0803 7.23158C48.1004 7.22583 48.1174 7.21232 48.1276 7.19402C48.1276 7.19402 48.4572 6.5578 48.5108 6.42749C48.7331 6.11321 48.9171 6.32018 48.7561 6.71877C48.6606 6.98139 48.5479 7.23745 48.4188 7.4853C48.4087 7.5036 48.4062 7.52519 48.412 7.54531C48.4177 7.56544 48.4312 7.58245 48.4495 7.59262C48.4678 7.60278 48.4894 7.60526 48.5095 7.59951C48.5296 7.59376 48.5467 7.58025 48.5568 7.56196C48.6105 7.47764 49.0474 6.79543 49.1547 7.01006C49.262 7.22469 48.7408 7.95289 48.6565 8.09853C48.5722 8.24417 48.6565 8.20584 48.7331 8.15218C48.8098 8.09853 49.1547 7.66927 49.2084 8.06786C49.262 8.46646 48.2119 9.24833 48.0739 9.37864H48.0816Z" fill="#1A395A"/>
</g>
</svg>
