<svg width="220" height="28" viewBox="0 0 220 28" fill="none" xmlns="http://www.w3.org/2000/svg">
<g clip-path="url(#clip0_12381_667)">
<g clip-path="url(#clip1_12381_667)">
<path d="M48.1823 7.10693V20.9512H45.5114V15.0428H39.2327V20.9512H36.5415V7.10693H39.2327V12.7038H45.5114V7.10693H48.1823Z" fill="#DA3B3B"/>
<path d="M56.976 21.0483C55.9623 21.0483 55.0434 20.8496 54.2171 20.4545C53.3908 20.0572 52.6841 19.5311 52.0926 18.8741C51.5011 18.2171 51.0428 17.4676 50.7176 16.6232C50.3925 15.7788 50.23 14.9141 50.23 14.0291C50.23 13.144 50.4016 12.2229 50.747 11.3762C51.0902 10.5319 51.5665 9.78456 52.1694 9.13433C52.7744 8.48411 53.4924 7.9671 54.3232 7.58329C55.1541 7.19947 56.0594 7.00757 57.0325 7.00757C58.0055 7.00757 58.947 7.21302 59.7711 7.62167C60.5974 8.03031 61.3018 8.56765 61.8866 9.22916C62.4713 9.89293 62.9274 10.647 63.2525 11.4914C63.5776 12.3358 63.7401 13.1937 63.7401 14.0652C63.7401 14.9886 63.5708 15.8691 63.2322 16.7067C62.8935 17.5443 62.4262 18.2871 61.8279 18.9306C61.2296 19.574 60.5139 20.0865 59.683 20.4703C58.8499 20.8541 57.9468 21.046 56.9738 21.046L56.976 21.0483ZM52.9596 14.0291C52.9596 14.6274 53.0499 15.2053 53.2327 15.7652C53.4156 16.3252 53.6775 16.8173 54.0229 17.2463C54.3661 17.6753 54.7906 18.0207 55.2895 18.2803C55.7907 18.54 56.3574 18.6709 56.9963 18.6709C57.6353 18.6709 58.2223 18.5377 58.7212 18.2713C59.2225 18.0049 59.6447 17.6504 59.9878 17.2079C60.331 16.7654 60.5929 16.2687 60.7667 15.7156C60.9428 15.1624 61.0309 14.6003 61.0309 14.0291C61.0309 13.4579 60.9361 12.8528 60.7487 12.2929C60.559 11.733 60.2926 11.2408 59.9494 10.8118C59.604 10.3829 59.1818 10.0419 58.6829 9.78907C58.1817 9.53621 57.6195 9.40978 56.9963 9.40978C56.3732 9.40978 55.7682 9.54298 55.2602 9.80939C54.7522 10.0758 54.33 10.428 53.9936 10.8615C53.6549 11.2972 53.3998 11.7917 53.2237 12.3425C53.0476 12.8957 52.9596 13.4579 52.9596 14.0291Z" fill="#DA3B3B"/>
<path d="M77.0991 20.9512V11.7872L73.5319 18.6122H72.0689L68.5017 11.7872V20.9512H65.8105V7.10693H68.6959L72.7914 14.9841L76.9253 7.10693H79.7926V20.9512H77.1014H77.0991Z" fill="#DA3B3B"/>
<path d="M92.2891 18.5919V20.9512H82.6758V7.10693H92.113V9.46624H85.367V12.8009H91.1964V14.9841H85.367V18.5919H92.2891Z" fill="#DA3B3B"/>
<path d="M94.3955 20.9512V7.10693H97.0867V18.5919H104.144V20.9512H94.3955Z" fill="#DA3B3B"/>
<path d="M110.811 21.0483C109.797 21.0483 108.878 20.8496 108.052 20.4545C107.226 20.0572 106.519 19.5311 105.928 18.8741C105.336 18.2171 104.878 17.4676 104.553 16.6232C104.227 15.7788 104.065 14.9141 104.065 14.0291C104.065 13.144 104.237 12.2229 104.582 11.3762C104.925 10.5319 105.402 9.78456 106.004 9.13433C106.609 8.48411 107.327 7.9671 108.158 7.58329C108.989 7.19947 109.894 7.00757 110.867 7.00757C111.841 7.00757 112.782 7.21302 113.606 7.62167C114.432 8.03031 115.137 8.56765 115.722 9.22916C116.306 9.89293 116.762 10.647 117.085 11.4914C117.41 12.3358 117.573 13.1937 117.573 14.0652C117.573 14.9886 117.404 15.8691 117.065 16.7067C116.726 17.5443 116.259 18.2871 115.661 18.9306C115.062 19.574 114.347 20.0865 113.516 20.4703C112.683 20.8541 111.78 21.046 110.806 21.046L110.811 21.0483ZM106.795 14.0291C106.795 14.6274 106.885 15.2053 107.068 15.7652C107.251 16.3252 107.512 16.8173 107.858 17.2463C108.201 17.6753 108.626 18.0207 109.124 18.2803C109.626 18.54 110.192 18.6709 110.831 18.6709C111.47 18.6709 112.057 18.5377 112.556 18.2713C113.057 18.0049 113.48 17.6504 113.823 17.2079C114.166 16.7654 114.428 16.2687 114.602 15.7156C114.778 15.1624 114.866 14.6003 114.866 14.0291C114.866 13.4579 114.771 12.8528 114.584 12.2929C114.396 11.733 114.128 11.2408 113.784 10.8118C113.439 10.3829 113.017 10.0419 112.518 9.78907C112.017 9.53621 111.454 9.40978 110.831 9.40978C110.208 9.40978 109.603 9.54298 109.095 9.80939C108.587 10.0758 108.165 10.428 107.829 10.8615C107.49 11.2972 107.235 11.7917 107.059 12.3425C106.883 12.8957 106.795 13.4579 106.795 14.0291Z" fill="#DA3B3B"/>
<path d="M123.098 7.10693H125.477L130.742 20.9512H127.974L126.687 17.4992H121.851L120.585 20.9512H117.817L123.102 7.10693H123.098ZM126.198 15.6072L124.287 10.1661L122.298 15.6072H126.198Z" fill="#DA3B3B"/>
<path d="M134.953 12.0784V20.9512H132.262V7.10693H134.348L141.564 16.1942V7.125H144.255V20.949H142.071L134.955 12.0762L134.953 12.0784Z" fill="#DA3B3B"/>
<path d="M156.751 19.3913C155.647 20.4953 154.36 21.0485 152.891 21.0485C151.981 21.0485 151.125 20.8656 150.326 20.5021C149.527 20.1386 148.831 19.6374 148.24 19.0007C147.648 18.3641 147.181 17.6122 146.835 16.7498C146.49 15.8851 146.318 14.9526 146.318 13.9525C146.318 13.0042 146.49 12.1102 146.835 11.2703C147.179 10.4327 147.655 9.69669 148.258 9.06679C148.863 8.43688 149.574 7.93567 150.394 7.56541C151.213 7.19514 152.103 7.01001 153.064 7.01001C154.365 7.01001 155.478 7.28319 156.408 7.82956C157.338 8.37593 158.036 9.10968 158.503 10.0331L156.494 11.5141C156.144 10.8255 155.652 10.2995 155.022 9.93375C154.392 9.57026 153.706 9.38738 152.965 9.38738C152.38 9.38738 151.843 9.51156 151.358 9.75765C150.87 10.0037 150.454 10.3424 150.109 10.7714C149.764 11.2003 149.497 11.6948 149.31 12.2524C149.122 12.8123 149.028 13.4039 149.028 14.027C149.028 14.6501 149.131 15.2845 149.339 15.849C149.547 16.4134 149.834 16.9056 150.197 17.321C150.561 17.7364 150.994 18.066 151.493 18.3054C151.994 18.5469 152.536 18.6666 153.121 18.6666C154.46 18.6666 155.668 18.0367 156.747 16.7746V15.7993H153.958V13.8306H158.971V20.9469H156.747V19.3868L156.751 19.3913Z" fill="#23222B"/>
<path d="M167.126 18.6688C167.762 18.6688 168.3 18.5379 168.733 18.2782C169.169 18.0186 169.519 17.6799 169.785 17.2645C170.052 16.8491 170.239 16.3705 170.35 15.8309C170.46 15.2913 170.515 14.7359 170.515 14.1647V7.10705H173.185V14.1647C173.185 15.1129 173.073 16.0047 172.845 16.8355C172.617 17.6664 172.26 18.3956 171.772 19.0188C171.284 19.6419 170.657 20.1363 169.891 20.4998C169.124 20.8633 168.207 21.0462 167.142 21.0462C166.076 21.0462 165.098 20.8543 164.324 20.4705C163.55 20.0867 162.922 19.5809 162.443 18.9488C161.962 18.3189 161.615 17.5874 161.4 16.7543C161.186 15.9234 161.08 15.0587 161.08 14.1602V7.10254H163.771V14.1602C163.771 14.7449 163.827 15.3071 163.936 15.8467C164.046 16.3863 164.234 16.8649 164.5 17.2803C164.766 17.6957 165.114 18.0321 165.543 18.285C165.972 18.5379 166.498 18.6643 167.123 18.6643L167.126 18.6688Z" fill="#23222B"/>
<path d="M175.899 20.9512V7.10693H182.022C182.658 7.10693 183.248 7.24014 183.787 7.50655C184.327 7.77296 184.792 8.12516 185.18 8.55864C185.571 8.99438 185.876 9.48882 186.097 10.0397C186.318 10.5928 186.429 11.1482 186.429 11.7059C186.429 12.6022 186.205 13.4195 185.756 14.1533C185.307 14.887 184.699 15.4176 183.932 15.7427L187.09 20.949H184.067L181.24 16.3094H178.588V20.949H175.896L175.899 20.9512ZM178.59 13.9501H181.963C182.209 13.9501 182.442 13.8914 182.656 13.774C182.871 13.6566 183.056 13.4985 183.211 13.2953C183.367 13.0944 183.491 12.8573 183.582 12.5841C183.672 12.311 183.717 12.0197 183.717 11.7059C183.717 11.3921 183.665 11.0828 183.561 10.8096C183.458 10.5364 183.318 10.2993 183.141 10.0984C182.965 9.89747 182.764 9.74169 182.536 9.63106C182.308 9.52043 182.078 9.46624 181.843 9.46624H178.588V13.9501H178.59Z" fill="#23222B"/>
<path d="M194.715 18.6688C195.351 18.6688 195.889 18.5379 196.322 18.2782C196.758 18.0186 197.108 17.6799 197.374 17.2645C197.641 16.8491 197.828 16.3705 197.939 15.8309C198.049 15.2913 198.103 14.7359 198.103 14.1647V7.10705H200.774V14.1647C200.774 15.1129 200.661 16.0047 200.433 16.8355C200.205 17.6664 199.849 18.3956 199.361 19.0188C198.873 19.6419 198.246 20.1363 197.48 20.4998C196.713 20.8633 195.796 21.0462 194.73 21.0462C193.665 21.0462 192.687 20.8543 191.913 20.4705C191.138 20.0867 190.511 19.5809 190.032 18.9488C189.551 18.3189 189.204 17.5874 188.989 16.7543C188.775 15.9234 188.668 15.0587 188.668 14.1602V7.10254H191.36V14.1602C191.36 14.7449 191.416 15.3071 191.524 15.8467C191.635 16.3863 191.822 16.8649 192.089 17.2803C192.355 17.6957 192.703 18.0321 193.132 18.285C193.561 18.5379 194.087 18.6643 194.712 18.6643L194.715 18.6688Z" fill="#23222B"/>
<path d="M211.738 10.7328C211.648 10.6425 211.481 10.5183 211.241 10.3625C211 10.2067 210.708 10.0532 210.363 9.90422C210.018 9.75521 209.645 9.62877 209.241 9.52492C208.837 9.42106 208.428 9.36914 208.013 9.36914C207.272 9.36914 206.719 9.5046 206.356 9.77778C205.992 10.051 205.809 10.4348 205.809 10.9292C205.809 11.2159 205.877 11.453 206.015 11.6404C206.15 11.8278 206.349 11.9949 206.608 12.1371C206.868 12.2793 207.195 12.4103 207.593 12.5277C207.988 12.6451 208.449 12.7693 208.968 12.8979C209.643 13.0808 210.257 13.275 210.81 13.4827C211.363 13.6904 211.831 13.95 212.214 14.2616C212.598 14.5732 212.894 14.9479 213.102 15.3837C213.309 15.8194 213.413 16.3545 213.413 16.9912C213.413 17.7317 213.273 18.3661 212.993 18.8922C212.713 19.4182 212.336 19.8449 211.862 20.17C211.388 20.4952 210.842 20.7322 210.225 20.8812C209.607 21.0302 208.961 21.1047 208.286 21.1047C207.245 21.1047 206.22 20.949 205.204 20.6374C204.188 20.3258 203.281 19.8833 202.475 19.3121L203.664 16.9912C203.782 17.1086 203.992 17.2621 204.299 17.4495C204.604 17.6391 204.965 17.8265 205.38 18.0139C205.796 18.2013 206.259 18.3616 206.764 18.4926C207.272 18.6235 207.792 18.6867 208.324 18.6867C209.805 18.6867 210.548 18.2126 210.548 17.2644C210.548 16.9663 210.462 16.7112 210.295 16.5035C210.126 16.2958 209.887 16.1129 209.573 15.9571C209.261 15.8014 208.884 15.6591 208.442 15.5282C207.999 15.3995 207.505 15.255 206.961 15.0992C206.297 14.9163 205.723 14.7199 205.236 14.5054C204.748 14.291 204.342 14.0381 204.017 13.7446C203.692 13.4511 203.448 13.1147 203.285 12.7309C203.123 12.3471 203.041 11.8887 203.041 11.3559C203.041 10.6538 203.172 10.0306 203.432 9.48428C203.692 8.93791 204.053 8.48411 204.513 8.11836C204.974 7.75487 205.511 7.47717 206.123 7.28978C206.735 7.10239 207.39 7.00757 208.092 7.00757C209.067 7.00757 209.963 7.16109 210.783 7.46588C211.603 7.77068 212.316 8.13191 212.928 8.54733L211.738 10.7305V10.7328Z" fill="#23222B"/>
<path d="M27 0.785156H0V27.7852H27V0.785156Z" fill="#23222B"/>
<path d="M20.5182 6.70703L10.5685 20.9487H7.59961L17.529 6.70703H20.5182Z" fill="white"/>
</g>
</g>
<defs>
<clipPath id="clip0_12381_667">
<rect width="220" height="27" fill="white" transform="translate(0 0.888672)"/>
</clipPath>
<clipPath id="clip1_12381_667">
<rect width="213.415" height="27" fill="white" transform="translate(0 0.785156)"/>
</clipPath>
</defs>
</svg>
