<svg width="74" height="64" viewBox="0 0 74 64" fill="none" xmlns="http://www.w3.org/2000/svg">
<g id="Group">
<path id="Vector" d="M50.7775 5.06104C50.7755 5.056 50.772 5.05169 50.7675 5.04865C50.763 5.04561 50.7577 5.04398 50.7523 5.04398C50.7469 5.04398 50.7416 5.04561 50.7371 5.04865C50.7326 5.05169 50.7291 5.056 50.7271 5.06104C50.7271 5.30127 50.3784 5.44851 50.4752 5.71974C50.5179 5.83598 50.6767 5.91735 50.7658 5.80111C50.769 5.79538 50.7708 5.789 50.7711 5.78247C50.7714 5.77593 50.7702 5.76941 50.7676 5.76342C50.765 5.75742 50.761 5.75211 50.756 5.7479C50.751 5.74368 50.7451 5.74068 50.7387 5.73911H50.6961C50.5101 5.73911 50.5101 5.60737 50.7193 5.35164C50.7511 5.31111 50.7728 5.26371 50.7829 5.21325C50.793 5.16278 50.7912 5.11065 50.7775 5.06104ZM51.5989 4.66969C51.6222 4.73168 51.7229 4.71231 51.7345 4.65032C51.7344 4.51953 51.7175 4.38931 51.6842 4.26284C51.6842 4.24846 51.6784 4.23466 51.6683 4.22449C51.6581 4.21431 51.6443 4.2086 51.6299 4.2086C51.6155 4.2086 51.6017 4.21431 51.5915 4.22449C51.5814 4.23466 51.5757 4.24846 51.5757 4.26284C51.5502 4.39833 51.5582 4.53798 51.5989 4.66969ZM49.832 4.37134C49.832 4.49145 49.832 4.72781 49.9521 4.80143C49.9579 4.80459 49.9643 4.8064 49.9708 4.8067C49.9773 4.807 49.9838 4.80579 49.9898 4.80317C49.9958 4.80055 50.0011 4.79658 50.0054 4.79157C50.0096 4.78657 50.0126 4.78066 50.0141 4.77431C49.995 4.64329 49.9665 4.5138 49.9289 4.38683C49.9212 4.31321 49.832 4.30934 49.832 4.37134ZM49.4601 3.90249C49.4529 3.91431 49.4507 3.9285 49.4539 3.94195C49.4572 3.95539 49.4657 3.96698 49.4775 3.97418C49.4893 3.98137 49.5035 3.98357 49.5169 3.9803C49.5304 3.97703 49.542 3.96856 49.5492 3.95674C49.6073 3.87924 49.9366 3.65064 49.9754 3.56927C49.9804 3.56316 49.9837 3.55576 49.9848 3.5479C49.9859 3.54004 49.9847 3.53204 49.9815 3.52479C49.9783 3.51755 49.9731 3.51134 49.9665 3.50688C49.96 3.50241 49.9523 3.49987 49.9444 3.49952C49.7313 3.49565 49.5453 3.73588 49.4601 3.90249ZM51.6377 3.3949C51.8314 3.41815 51.9321 3.57314 52.0251 3.72038C52.0316 3.73164 52.0416 3.74042 52.0537 3.7453C52.0657 3.75019 52.079 3.7509 52.0915 3.74733C52.104 3.74377 52.1149 3.73612 52.1226 3.72562C52.1302 3.71512 52.1341 3.70236 52.1336 3.68938C52.1336 3.43753 51.8585 3.28254 51.6299 3.27866C51.5602 3.27479 51.564 3.38716 51.6377 3.3949ZM55.5124 16.4954C56.3454 16.445 57.163 16.2086 57.9961 16.135C58.0619 16.135 58.0619 16.0226 57.9961 16.0304C57.1553 16.1046 56.3228 16.2537 55.5085 16.476L55.5124 16.4954ZM51.502 16.662C51.564 16.662 51.5369 16.5574 51.4749 16.5651C50.6109 16.7007 49.7429 16.8557 48.8827 17.0184C48.8595 17.0184 48.8827 17.0611 48.8827 17.0611C49.7623 16.9409 50.638 16.8131 51.502 16.662ZM38.7232 38.7479L32.5469 34.447L31.3767 36.396L39.6028 41.8361L46.492 29.0843L44.5082 28.1544L38.7232 38.7479Z" fill="#1A395A"/>
<path id="Vector_2" d="M49.1809 23.5007C49.0763 23.2372 49.0259 23.2721 48.747 23.214C48.2859 23.1132 47.8209 23.0241 47.3559 22.9311C45.9145 22.6405 44.5003 22.1562 43.0937 21.7687C41.6716 21.3872 40.2814 20.8949 38.9362 20.2963C38.5487 20.1258 38.1922 19.9592 37.8357 19.7577C37.6226 19.6337 37.1809 19.2462 36.9445 19.2617C36.8089 19.2617 36.8748 19.2617 36.7198 19.3935C36.4292 19.6647 36.1464 19.9321 35.8403 20.1684C34.643 21.1012 33.3688 21.9307 32.0314 22.6482C29.975 23.895 27.8334 24.9955 25.6226 25.9418C25.6072 25.946 25.5936 25.955 25.5838 25.9676C25.5741 25.9802 25.5686 25.9956 25.5684 26.0115C25.3699 28.3121 25.5852 30.6296 26.2038 32.8543C26.7813 35.0977 27.4759 37.3093 28.2845 39.4801C29.7259 43.4207 31.8764 47.0823 35.0576 49.8372C38.3782 52.7161 41.2571 53.2198 41.2842 53.1927C42.4492 52.3059 43.5169 51.298 44.4693 50.1859C46.6764 47.724 48.3962 44.8655 49.5374 41.7623C50.2332 39.8291 50.6697 37.8121 50.8354 35.7642C51.0524 33.0519 50.665 30.3745 50.1961 27.6893C50.0087 26.2608 49.6683 24.8565 49.1809 23.5007ZM50.2039 38.9996C49.6792 41.5515 48.6846 43.9835 47.2707 46.1717C43.7098 51.4181 41.2726 53.0416 41.2339 53.0687C37.6357 51.8493 34.4946 49.5624 32.229 46.5127C31.1589 45.1056 30.2394 43.59 29.4857 41.9909C28.6551 40.1258 27.942 38.2105 27.3507 36.2563C26.7074 34.3911 26.2086 32.479 25.859 30.5372C25.6892 29.5051 25.6101 28.4601 25.6226 27.4142C25.6226 27.1662 25.6691 26.089 25.6652 26.0929C25.704 26.027 28.5519 24.8103 29.7531 24.1284C31.3843 23.183 33.0737 22.3073 34.6391 21.2378C35.3247 20.7845 35.9726 20.2766 36.5765 19.719C36.7934 19.5175 36.8787 19.4128 37.1732 19.533C37.3785 19.6143 38.5952 20.3079 39.0214 20.4823C40.7333 21.204 42.4975 21.7947 44.2988 22.2491C45.2403 22.5165 46.1819 22.8226 47.139 23.0241C47.7452 23.1187 48.3454 23.2481 48.9368 23.4116C49.1577 23.5511 49.5994 25.3141 49.7118 25.779C49.921 26.74 50.076 27.7164 50.2426 28.6773C50.8277 32.1336 50.9866 35.555 50.2039 39.0073V38.9996ZM23.4993 7.56006C23.4934 7.56652 23.4895 7.57447 23.488 7.58303C23.4865 7.59158 23.4874 7.60039 23.4906 7.60846C23.4938 7.61653 23.4993 7.62354 23.5063 7.62868C23.5133 7.63382 23.5216 7.6369 23.5302 7.63756C23.6011 7.62865 23.667 7.59639 23.7175 7.54587C23.7681 7.49536 23.8003 7.42946 23.8092 7.35858C23.8092 7.29271 23.5729 7.0021 23.5341 6.87036C23.5317 6.86352 23.5273 6.85759 23.5214 6.8534C23.5155 6.8492 23.5084 6.84695 23.5012 6.84695C23.4939 6.84695 23.4869 6.8492 23.481 6.8534C23.4751 6.85759 23.4706 6.86352 23.4683 6.87036C23.4334 6.98273 23.6969 7.30046 23.6814 7.3857C23.6659 7.47094 23.5574 7.50194 23.4993 7.56006ZM24.2122 6.30465C24.1753 6.43034 24.1596 6.56128 24.1657 6.69212C24.1657 6.80449 24.3401 6.80449 24.3439 6.69212C24.3615 6.56142 24.3469 6.42841 24.3013 6.30465C24.297 6.29654 24.2906 6.28975 24.2828 6.28501C24.2749 6.28027 24.2659 6.27777 24.2568 6.27777C24.2476 6.27777 24.2386 6.28027 24.2307 6.28501C24.2229 6.28975 24.2165 6.29654 24.2122 6.30465ZM22.6352 6.29303C22.5992 6.41968 22.5992 6.55385 22.6352 6.6805C22.6352 6.76187 22.7902 6.75024 22.7824 6.6805C22.7747 6.61075 22.7553 6.44027 22.7398 6.32015C22.7434 6.30628 22.7413 6.29154 22.7341 6.27919C22.7268 6.26684 22.7149 6.25788 22.7011 6.25428C22.6872 6.25068 22.6724 6.25274 22.6601 6.26001C22.6477 6.26728 22.6388 6.27915 22.6352 6.29303ZM22.3058 6.18453C22.3678 6.10316 22.6933 5.84743 22.7398 5.77381C22.7477 5.76615 22.7529 5.7561 22.7546 5.74521C22.7562 5.73431 22.7543 5.72317 22.749 5.7135C22.7437 5.70382 22.7354 5.69615 22.7254 5.69164C22.7153 5.68714 22.704 5.68606 22.6933 5.68857C22.4866 5.7646 22.3136 5.91151 22.2051 6.10317C22.1625 6.16516 22.2593 6.23878 22.3058 6.18453ZM24.1347 5.73507C24.2756 5.80592 24.4059 5.89589 24.5222 6.00242C24.5298 6.01017 24.5395 6.01546 24.5501 6.01762C24.5608 6.01978 24.5718 6.01871 24.5818 6.01454C24.5918 6.01037 24.6003 6.00329 24.6063 5.99423C24.6122 5.98516 24.6153 5.97452 24.6152 5.96367C24.6152 5.86293 24.2277 5.6382 24.1231 5.64595C24.1136 5.64984 24.1057 5.65676 24.1005 5.66563C24.0954 5.67449 24.0933 5.68481 24.0946 5.69498C24.096 5.70514 24.1006 5.71458 24.1079 5.72183C24.1151 5.72908 24.1245 5.73374 24.1347 5.73507ZM22.3291 8.17614H22.2942C22.2942 8.42413 22.8444 8.92784 23.5767 8.61399C23.6116 8.61399 23.5767 8.54037 23.5496 8.55199C23.3343 8.64156 23.0944 8.65301 22.8715 8.58437C22.6486 8.51574 22.4567 8.37133 22.3291 8.17614ZM7.48501 40.906C6.20247 41.0338 4.88894 40.8323 3.61028 40.9912C3.61028 40.9912 3.58316 41.0145 3.58316 41.0261C3.48175 42.0827 3.50255 43.1476 3.64515 44.1995C3.64595 44.2091 3.64911 44.2183 3.65437 44.2264C3.65962 44.2345 3.66679 44.2411 3.67524 44.2457C3.68369 44.2503 3.69316 44.2527 3.70279 44.2528C3.71241 44.2528 3.7219 44.2505 3.7304 44.246C4.97806 44.3118 6.28384 44.2692 7.53538 44.2111C7.57025 44.2111 7.58575 44.1336 7.58575 44.1259C7.62327 43.0677 7.60258 42.0083 7.52375 40.9525C7.52429 40.9469 7.5237 40.9412 7.52204 40.9358C7.52038 40.9305 7.51767 40.9255 7.51407 40.9211C7.51046 40.9168 7.50604 40.9132 7.50105 40.9106C7.49607 40.908 7.49061 40.9064 7.48501 40.906ZM3.72652 42.0258C3.72652 41.7003 3.72652 41.3748 3.70327 41.0454C4.92975 41.1084 6.15885 41.0993 7.38426 41.0183C7.35388 41.3959 7.34483 41.775 7.35714 42.1536C6.14993 42.0492 4.93794 42.0104 3.72652 42.0374V42.0258ZM3.80789 44.1142C3.74977 43.4672 3.74202 42.8239 3.73427 42.1769C4.30773 42.1769 4.89669 42.2001 5.45465 42.2156C5.40805 42.8246 5.44323 43.4371 5.55927 44.0367C4.97397 44.0119 4.38764 44.0417 3.80789 44.1259V44.1142ZM5.74525 44.0484C5.74525 43.7035 5.65614 42.4713 5.60576 42.204C6.1831 42.204 7.35327 42.3009 7.35714 42.3009C7.35714 42.8898 7.41526 43.4827 7.42689 44.0639C6.8883 44.1026 6.31871 44.0755 5.75688 44.06L5.74525 44.0484Z" fill="#1A395A"/>
<path id="Vector_3" d="M73.3554 43.5018C73.2754 42.9683 73.0124 42.4793 72.6115 42.1185C72.1271 41.7504 71.4839 41.8124 70.9143 41.8318C70.0619 41.8589 68.3066 42.0255 68.3066 42.0216C68.0122 41.1963 67.7526 40.3516 67.4116 39.5495C67.1773 38.8667 66.6888 38.3005 66.0477 37.9687C65.42 37.6974 62.4752 37.9067 61.1113 38.0307C62.1381 34.6364 62.1923 29.9441 62.1923 29.0374C62.3346 28.9417 62.4569 28.8193 62.5527 28.6771C62.8588 28.1695 62.6457 27.3868 62.5992 26.8404C62.4674 25.3564 62.3861 23.8492 62.1768 22.3729C62.5727 21.9702 62.9187 21.5214 63.2075 21.0361C64.1452 19.4591 64.1491 17.7038 63.7151 15.9563C63.2811 14.2088 62.0567 12.8566 60.6812 11.6709C59.3148 10.43 57.6173 9.61291 55.7952 9.31893C55.6077 8.99141 55.3912 8.68147 55.1481 8.39287L54.8071 8.59048C54.8071 8.06739 54.5901 5.8278 54.5901 5.8278C54.9078 5.74256 55.5355 4.82425 55.6324 4.15004C55.6788 3.49316 55.564 2.83489 55.2979 2.23252C55.0318 1.63014 54.6226 1.10191 54.1058 0.693788C52.6721 -0.46863 49.8436 0.0777073 49.2197 0.550424C49.0484 0.685683 48.8504 0.783215 48.6387 0.836634C48.427 0.890053 48.2065 0.898152 47.9915 0.860402C47.9915 0.860402 48.5107 1.37962 48.1929 1.47648C47.8752 1.57335 47.6582 1.04639 47.6582 1.04639C47.5846 2.10031 48.007 2.3638 48.007 2.3638C49.398 3.85944 50.448 2.66215 50.448 2.66215C50.448 2.66215 50.5914 2.19718 52.087 2.53428C52.2796 2.56177 52.4643 2.62968 52.6288 2.73358C52.7933 2.83747 52.9339 2.97499 53.0415 3.1371C53.1491 3.29921 53.2212 3.48224 53.253 3.67418C53.2848 3.86612 53.2757 4.06263 53.2262 4.25079L53.4161 4.32828C53.4874 4.22453 53.5678 4.12729 53.6563 4.03768C54.501 3.45259 54.718 4.33991 54.718 4.33991C54.8885 5.06061 54.0012 5.26984 54.0012 5.26984C54.0244 6.26952 53.8423 6.43226 53.8423 6.43226C53.1216 7.29632 52.3893 6.35864 52.3893 6.35864C52.2275 6.17226 52.0236 6.02721 51.7944 5.93555C51.5653 5.84389 51.3175 5.80828 51.0719 5.83168C50.1574 5.87042 50.2969 6.16103 49.9094 6.44388C49.6653 6.62212 49.4174 6.42063 49.2662 6.25402C49.2662 5.92467 49.1345 4.63439 49.0609 4.31666V3.18911C48.7895 3.10983 48.542 2.96475 48.3402 2.76677C47.9527 3.92919 48.778 4.28566 49.0066 4.36703C49.0338 4.71963 48.9059 7.40482 49.3941 8.41224C49.5247 8.69236 49.7225 8.93586 49.9699 9.12109C50.2173 9.30631 50.5067 9.42752 50.8123 9.47392C50.7696 9.70253 50.727 10.0823 50.7193 10.1869C49.7661 10.3264 48.995 10.9386 48.2549 11.5159C47.367 12.1944 46.5434 12.9532 45.7945 13.7826C44.4453 15.2467 43.5678 17.0828 43.2759 19.0522L41.9469 18.6648C41.9661 18.5796 41.9752 18.4925 41.974 18.4052C41.9728 18.2492 41.9246 18.0973 41.8357 17.9692C41.7468 17.8411 41.6214 17.7428 41.4757 17.6872C41.3301 17.6315 41.171 17.6211 41.0194 17.6572C40.8677 17.6934 40.7305 17.7744 40.6256 17.8898C40.5492 17.9958 40.4939 18.1155 40.4629 18.2424C40.4629 18.2424 38.2388 17.2582 37.1267 16.7817C36.8907 16.6288 36.6036 16.5758 36.3285 16.6344C35.9029 16.8622 35.5253 17.1701 35.2165 17.5411V17.5179C34.829 17.0413 33.9766 17.08 33.8526 17.7736C33.8285 17.976 33.8606 18.1811 33.9456 18.3664C33.7518 18.5098 33.5581 18.6609 33.3334 18.8081C32.7909 17.4675 32.2756 16.0687 31.396 14.9334C30.665 13.9614 29.7834 13.1124 28.7844 12.4187C27.4141 11.4424 25.7624 10.9404 24.0805 10.9889L23.9798 10.7448C23.9798 10.586 23.9488 10.4271 23.9294 10.2721C25.1887 10.3767 25.8435 8.48199 25.8435 8.48199C25.8879 8.80929 25.8547 9.14243 25.7466 9.45455C25.7466 9.45455 27.0253 7.61792 26.2697 4.56852C25.5142 1.51911 22.7825 2.15844 22.7825 2.15844C19.5393 0.279193 17.8538 3.64633 17.8538 3.64633C15.8777 8.42774 19.4037 10.4271 19.4037 10.4271C19.0627 10.1714 19.1712 9.59791 19.1712 9.59791C19.3481 9.84782 19.5796 10.0541 19.8482 10.2012C20.1168 10.3482 20.4153 10.4321 20.7211 10.4465C20.7211 10.5666 20.6785 10.6983 20.6669 10.8339L20.5855 11.1207C17.2106 12.3102 14.2387 14.4994 13.0802 18.0099C12.53 19.6722 12.4951 21.4003 13.332 22.9773C14.0352 24.2573 15.1944 25.2256 16.579 25.6897C16.5623 25.9166 16.598 26.1444 16.6833 26.3553C16.7686 26.5663 16.9013 26.7548 17.0711 26.9063C16.8077 27.0264 16.1296 27.5146 15.7421 29.452C15.5832 30.2502 15.2888 31.6451 14.9672 33.1601C13.2739 31.835 10.7863 29.8124 10.7476 29.8434C7.11309 32.7688 0.0184621 38.9373 0.0184621 38.9451C0.0107396 38.9514 0.00506933 38.9599 0.00217091 38.9694C-0.00072751 38.979 -0.00072357 38.9892 0.00218236 38.9987C0.0050883 39.0083 0.0107653 39.0168 0.0184927 39.0231C0.0262202 39.0294 0.0356497 39.0333 0.045585 39.0342C0.630669 39.0846 1.208 39.1195 1.80859 39.1388C1.80859 42.7384 2.11081 49.9881 2.12631 49.9881H0.774034C0.746942 50.596 0.77027 51.2051 0.843779 51.8092C3.51734 51.8092 13.5878 51.7394 17.1719 51.6697C17.2881 53.3784 17.4315 55.432 17.4315 55.432C17.1951 55.525 16.1799 56.1295 15.8622 56.269C15.436 56.455 15.0873 56.6836 15.1415 57.1989C15.1596 57.2193 15.1822 57.2352 15.2074 57.2454C16.6039 57.3502 18.0079 57.2956 19.3921 57.0827C19.4228 57.0727 19.4489 57.0521 19.4657 57.0246C19.5762 56.6331 19.5762 56.2187 19.4657 55.8273L21.1977 48.6203C21.4534 47.6012 22.395 43.5366 22.6275 42.5331C23.6039 42.5271 24.5792 42.4676 25.549 42.3548C25.9365 43.5405 27.0214 48.0739 27.4554 49.0426C27.8894 50.0113 27.9359 50.4104 27.9436 50.4143C29.0479 50.7243 29.9624 51.1156 31.2875 50.0268C31.2993 50.015 31.3154 50.0084 31.3321 50.0084C31.3488 50.0084 31.3648 50.015 31.3766 50.0268C31.3884 50.0386 31.3951 50.0546 31.3951 50.0714C31.3951 50.0881 31.3884 50.1041 31.3766 50.1159C30.5784 50.9722 28.8929 51.0846 27.932 50.4414L29.6175 55.3972C29.5117 55.8927 29.5117 56.405 29.6175 56.9006C29.6175 56.9316 32.1516 56.9006 33.3954 56.8657C33.4341 56.8657 33.4651 56.7882 33.4651 56.7805C33.4763 56.5878 33.4295 56.3962 33.3308 56.2305C33.232 56.0647 33.0858 55.9323 32.911 55.8505C32.6863 55.7227 31.675 55.2383 31.4037 55.1027V49.3526C31.8875 49.9896 32.4199 50.5881 32.9963 51.1427C34.3213 52.3464 35.7473 53.434 37.2585 54.3936C38.6146 55.3042 40.0444 56.207 41.6214 56.6758C41.6524 56.6758 45.7906 54.0178 47.9876 50.7436V52.2354C48.1623 52.4155 48.3795 52.5487 48.6192 52.6229C48.6503 52.9444 48.6995 53.2639 48.7664 53.5799C48.2007 53.9674 47.3289 54.5564 47.1816 55.2616C47.1632 55.3264 47.1586 55.3943 47.1679 55.461C47.1772 55.5277 47.2004 55.5918 47.2359 55.649C47.0344 56.6138 49.2081 56.424 49.6731 56.362C50.2775 56.2806 52.3854 56.1605 52.0289 55.0794C52.0289 55.0794 52.1413 53.7233 51.7616 53.4869C51.7963 53.174 51.7963 52.8583 51.7616 52.5454C52.304 52.4291 52.6837 52.3129 52.6837 52.3129L53.1642 40.3012C54.0593 44.9122 57.7015 52.6694 57.7015 52.6694C57.9812 52.7101 58.2635 52.7308 58.5462 52.7314C58.6557 52.9991 58.7852 53.2581 58.9337 53.5063C58.6353 53.7892 57.1087 55.2461 57.9301 55.7459C58.1084 56.6991 59.6079 56.1682 60.162 55.9319C60.5107 55.7846 62.6263 54.7695 61.956 54.2154C61.956 54.2154 61.4561 53.0103 61.2856 52.9445C61.2523 52.6274 61.1821 52.3153 61.0764 52.0145C61.2764 51.8891 61.4622 51.7423 61.6305 51.5767C61.6305 51.5767 61.243 49.341 60.8555 47.0936C62.8861 47.1522 64.9179 47.0316 66.9272 46.7333C66.9544 46.7333 66.9737 46.6945 66.9776 46.6674C66.9776 46.1482 67.0125 45.598 67.4155 45.2183C67.7761 44.9244 68.2077 44.7306 68.667 44.6564C69.8914 44.393 70.4184 45.2144 70.7283 46.2489C70.7283 46.2761 72.6463 46.1598 73.5763 46.1947C73.6266 46.1947 73.646 46.0862 73.646 46.0746C73.6406 45.2091 73.5432 44.3467 73.3554 43.5018ZM50.758 2.42579C50.2388 2.72415 49.5762 2.27855 49.4174 1.77096C49.4174 1.74384 49.4484 1.72447 49.4639 1.75159C49.5878 1.97632 50.0838 2.54978 50.727 2.31342C50.758 2.29405 50.8006 2.39867 50.758 2.42579ZM60.007 11.2989C61.3631 12.3296 62.789 13.647 63.378 15.2821C63.967 16.9173 64.1297 18.9515 63.3199 20.5673C62.5364 22.0277 61.2987 23.1934 59.7939 23.8879C58.0712 24.6803 56.1956 25.085 54.2995 25.0736C54.2895 25.0697 54.2785 25.0697 54.2685 25.0736C53.9062 24.3382 53.481 23.6355 52.9976 22.9735C55.1719 21.5853 57.4185 20.3139 59.728 19.1646C59.7371 19.1592 59.7442 19.151 59.7484 19.1412C59.7526 19.1315 59.7536 19.1207 59.7513 19.1104C59.5148 18.3128 59.3577 17.4939 59.2824 16.6654C59.2824 16.6305 59.2243 16.6267 59.2243 16.6654C59.2423 17.3277 59.3306 17.9862 59.4878 18.6299C59.5653 18.9631 59.7512 19.0174 59.4645 19.184C58.9066 19.4746 55.2682 21.4081 54.0399 22.1598C53.9857 21.5011 53.8035 18.44 53.8113 18.4323C54.3421 17.545 56.3531 13.8872 56.9111 13.0077C56.9154 13.0034 56.9188 12.9982 56.9212 12.9926C56.9235 12.9869 56.9248 12.9809 56.9248 12.9747C56.9248 12.9686 56.9235 12.9626 56.9212 12.9569C56.9188 12.9513 56.9154 12.9461 56.9111 12.9418C56.6761 12.559 56.3936 12.2075 56.0703 11.8956C56.502 11.5592 56.9698 11.272 57.4652 11.0393C57.5078 11.0393 57.5582 11.0044 57.5272 10.9579C57.2101 10.4478 56.8385 9.97356 56.419 9.54366C57.7202 9.87379 58.9382 10.4716 59.9954 11.2989H60.007ZM52.1025 24.7597C51.3702 25.4145 51.3276 25.0387 51.3082 24.9186C51.58 24.7741 51.8315 24.5943 52.056 24.3839C52.056 24.3839 52.0328 24.3219 52.0134 24.3374C51.8546 24.4459 50.9672 25.1937 50.9672 24.7481C51.2556 24.3903 51.5891 24.0712 51.9592 23.7988C51.9049 23.6942 51.7112 23.7988 51.6608 23.1517C51.905 23.3366 52.2032 23.436 52.5094 23.4346C52.693 23.444 52.8752 23.3981 53.0325 23.3028C53.1738 23.5972 53.3343 23.8819 53.5129 24.1553C53.2689 24.3899 53.0101 24.6086 52.738 24.8101C52.4939 24.9806 51.963 25.4029 51.6531 25.1976C51.8318 25.0796 52.0026 24.9502 52.1645 24.8101C52.1723 24.7868 52.1142 24.7403 52.0909 24.7597H52.1025ZM56.3182 9.52042C56.4616 9.75677 57.2404 10.7177 57.438 10.9889C56.9023 11.163 56.4213 11.4742 56.0431 11.8917L56.8568 12.9573C55.8262 14.728 54.6134 16.4446 53.8074 18.347C54.0894 15.3603 54.7028 12.4141 55.6363 9.56304L55.7758 9.4158L56.3182 9.52042ZM55.1287 8.48199C55.2876 8.78422 55.5162 9.03995 55.6828 9.34993C55.1636 9.89239 54.5901 10.3651 54.0438 10.8998C53.8388 10.429 53.5787 9.98415 53.2688 9.57466C53.9295 9.28782 54.5538 8.92363 55.1287 8.48974V8.48199ZM52.9666 9.34605C54.1871 9.0787 54.4932 7.52106 54.5707 6.56787C54.5707 6.76161 54.6482 8.11776 54.7064 8.60598C54.7042 8.61489 54.7042 8.62419 54.7064 8.6331L53.1991 9.52042C53.0322 9.82645 52.8897 10.1452 52.7729 10.4736C52.6422 10.1283 52.4869 9.79293 52.3079 9.47004C52.5288 9.44292 52.7419 9.40417 52.9666 9.3538V9.34605ZM52.7225 10.648C52.721 10.6561 52.7211 10.6645 52.7228 10.6726C52.7245 10.6807 52.7278 10.6884 52.7324 10.6952C52.7371 10.702 52.7431 10.7079 52.75 10.7124C52.757 10.7169 52.7647 10.7201 52.7729 10.7216C52.781 10.7231 52.7894 10.723 52.7975 10.7213C52.8056 10.7196 52.8133 10.7163 52.8201 10.7116C52.8269 10.707 52.8328 10.701 52.8373 10.694C52.8418 10.6871 52.845 10.6794 52.8465 10.6712C52.9627 10.3186 53.1332 9.97763 53.234 9.62503C53.4493 10.0979 53.7087 10.5494 54.0089 10.9734C54.544 10.5887 55.048 10.1625 55.5162 9.69865C54.2414 12.5156 53.7609 16.5453 53.6873 17.8705C53.3773 16.708 51.994 11.9731 51.4826 10.8223C51.6128 10.9037 51.7599 10.954 51.9127 10.9696C52.0095 10.803 52.1917 9.78002 52.3001 9.49717C52.3079 9.55529 52.6334 10.4271 52.7225 10.6557V10.648ZM50.9285 7.29245C51.0125 7.31726 51.1009 7.3242 51.1878 7.31282C51.2747 7.30144 51.3582 7.27199 51.433 7.22637C51.5079 7.18074 51.5723 7.11995 51.6222 7.04792C51.6721 6.97588 51.7064 6.89419 51.7228 6.80811C51.7228 6.75774 51.8274 6.78486 51.8197 6.83523C51.7073 7.54431 51.0447 7.49006 50.9169 7.31957C50.9091 7.3157 50.9169 7.3002 50.9285 7.3002V7.29245ZM50.9053 9.48554C51.346 9.54918 51.7936 9.54918 52.2343 9.48554C52.057 9.92905 51.917 10.3866 51.8158 10.8533C51.6996 10.7758 51.0176 10.3806 50.8084 10.2411C50.8123 10.2334 50.8898 9.76452 50.9053 9.49329V9.48554ZM50.758 10.2954C50.9398 10.4656 51.1399 10.615 51.3547 10.741C51.6918 12.0312 53.2921 16.9173 53.6059 18.1029C53.1216 17.4132 50.5371 14.6157 49.8901 13.7865C50.0772 13.3696 50.2377 12.9412 50.3705 12.504C50.0313 12.3724 49.6795 12.2763 49.3205 12.2172C49.7092 11.6638 50.0183 11.0586 50.2388 10.4194C50.3977 10.3651 50.758 10.2954 50.758 10.2954ZM43.3612 19.06C43.7034 17.1244 44.5736 15.3209 45.8759 13.8485C46.5005 13.1461 47.1836 12.498 47.9178 11.9111C48.5752 11.3023 49.3295 10.8073 50.1497 10.4465C49.8126 11.0238 49.491 11.7135 49.1229 12.2792C49.0919 12.3296 49.9249 12.4885 50.2582 12.6047C50.1846 12.7287 49.8513 13.5889 49.7545 13.8214C49.7545 13.8485 53.0867 17.5798 53.6951 18.4362C53.6447 19.0329 53.9895 22.2024 53.9934 22.2063C53.6331 22.4271 53.2495 22.679 52.9046 22.9192C52.8736 22.9192 52.9899 23.1246 53.0247 23.1982C52.8812 23.2697 52.7239 23.3094 52.5636 23.3144C52.6063 22.4891 52.5326 21.5321 51.8274 20.9896C51.5179 20.767 51.1535 20.633 50.7735 20.6021C50.1574 20.5246 49.5413 20.4898 48.9253 20.4006C48.6618 20.3619 48.3944 20.3154 48.1309 20.265V20.2418C47.9169 19.0572 47.8337 17.8527 47.883 16.6499C47.883 16.6189 47.8326 16.6073 47.8248 16.6499C47.6819 17.8509 47.7395 19.0674 47.9953 20.2495C46.4183 19.9512 44.8955 19.5017 43.3457 19.0561L43.3612 19.06ZM40.552 18.285C40.5886 18.1018 40.6923 17.9388 40.8426 17.8278C40.96 17.7525 41.0984 17.7164 41.2376 17.7248C41.3769 17.7331 41.5099 17.7855 41.6175 17.8743C41.7355 17.9754 41.8204 18.1096 41.8612 18.2596C41.902 18.4095 41.8967 18.5682 41.8461 18.7151C41.7919 18.8973 41.5013 19.4358 41.2688 19.0057C41.2827 18.9743 41.2944 18.942 41.3037 18.9089C41.3415 18.7414 41.3699 18.5719 41.3889 18.4013C41.3424 18.5563 41.3153 18.7229 41.2611 18.874C41.249 18.922 41.2268 18.9668 41.1961 19.0055C41.1654 19.0443 41.1268 19.0761 41.0828 19.0987C40.9588 19.1414 40.8658 19.0445 40.8193 18.9399C40.8942 18.7075 40.9397 18.4667 40.9549 18.2231C40.9327 18.4786 40.8645 18.728 40.7535 18.9592C40.676 19.0987 40.5287 19.1142 40.4784 18.9592C40.4688 18.9067 40.4688 18.8529 40.4784 18.8004C40.4838 18.6251 40.5084 18.451 40.552 18.2812V18.285ZM35.0576 17.5101C35.0925 17.545 35.1235 17.5837 35.1584 17.6263C35.1587 17.6322 35.1607 17.6379 35.1641 17.6427C35.1675 17.6475 35.1723 17.6513 35.1777 17.6535C35.2588 17.7571 35.3217 17.8737 35.3637 17.9983C35.4141 18.1533 35.5187 18.5369 35.1971 18.3858C35.1001 18.2485 34.9925 18.119 34.8755 17.9983C34.8523 17.9983 34.8755 17.9983 34.8755 17.9983C34.9452 18.1223 35.4993 18.8856 34.8755 18.7151C34.816 18.5354 34.7212 18.3694 34.5965 18.2269C34.5897 18.2221 34.5814 18.2196 34.573 18.2199C34.5646 18.2201 34.5566 18.2231 34.55 18.2283C34.5434 18.2336 34.5388 18.2408 34.5367 18.2489C34.5346 18.2571 34.5352 18.2657 34.5384 18.2734C34.6159 18.4517 35.0499 19.1181 34.5384 18.9399C34.2472 18.768 34.0334 18.4904 33.9417 18.1649C33.8822 18.0194 33.8771 17.8573 33.9273 17.7083C33.9775 17.5593 34.0796 17.4333 34.215 17.3534C34.3504 17.2735 34.5101 17.2449 34.6648 17.273C34.8195 17.3011 34.9589 17.3838 35.0576 17.5062V17.5101ZM20.0121 8.93921C20.1989 8.93863 20.3839 8.97613 20.5558 9.04941C20.7276 9.12269 20.8828 9.23021 21.0117 9.36543C20.942 8.80747 20.0973 8.01315 20.0973 8.01315C19.1092 8.0364 19.3223 7.05997 19.3223 7.05997C19.367 6.95706 19.4358 6.86644 19.5229 6.79578C19.61 6.72512 19.7128 6.67652 19.8227 6.65408C19.9326 6.63165 20.0463 6.63605 20.1541 6.66691C20.262 6.69777 20.3608 6.75418 20.4421 6.83136C20.4421 6.95147 20.6514 7.50168 20.9536 7.52493C21.2558 7.54818 21.1473 7.86591 21.1473 7.86591C21.1473 7.86591 21.3721 7.5753 21.1473 7.41257C20.9226 7.24983 20.9032 6.82748 20.9032 6.82748C22.1741 6.71124 23.0692 3.65408 23.0692 3.65408C23.3947 5.34734 25.2313 5.37833 25.2313 5.37833C25.2343 6.38332 25.1748 7.38753 25.0531 8.38512C25.0003 8.68722 24.8481 8.96303 24.6207 9.16873C24.3932 9.37442 24.1035 9.49821 23.7977 9.52042C23.7977 9.52042 23.7977 10.5356 23.8519 10.8184C23.4297 11.1828 22.8907 11.3832 22.333 11.3832C21.7754 11.3832 21.2363 11.1828 20.8141 10.8184V10.431C20.994 10.4435 21.1746 10.4357 21.3527 10.4077C20.2678 10.1946 20.0121 8.93921 20.0121 8.93921ZM20.6088 11.2059C20.9962 11.9266 23.1932 12.3683 24.096 11.0587C24.5231 11.0614 24.9494 11.0977 25.3708 11.1672C25.0724 14.2398 20.5274 14.3483 19.4463 11.7174C19.8222 11.5391 20.2135 11.3725 20.6088 11.2059ZM13.8047 23.4694C11.7318 20.4626 13.2662 16.4136 15.6879 14.0965C16.7559 13.1192 17.984 12.3328 19.3185 11.7716C19.7602 13.1782 21.5154 13.8834 22.8987 13.709C23.5559 13.6472 24.1723 13.3633 24.6464 12.904C25.1205 12.4447 25.4238 11.8375 25.5064 11.1827C26.6152 11.3763 27.6711 11.8 28.6062 12.4265C29.5903 13.0906 30.4615 13.9082 31.1868 14.8482C32.1244 16.0377 32.6553 17.4791 33.2132 18.8779C32.2794 19.525 31.1829 20.203 30.0592 20.8385C29.8655 20.6913 29.4238 20.2999 29.3346 20.2185C29.3642 19.0707 29.1198 17.9324 28.6217 16.8979H28.5829C29.3811 18.8701 29.1603 20.5208 29.1952 21.2957C27.1493 22.3961 25.1732 23.2757 24.158 23.4927C24.158 23.4927 24.158 23.4346 24.127 23.4268C22.5035 22.8882 17.664 21.164 17.6562 21.164C17.7564 20.5156 17.8224 19.8625 17.8538 19.2072C17.8538 19.2072 17.8228 19.2072 17.8228 19.2305C17.6562 19.8698 17.633 20.5634 17.5284 21.2182C17.5264 21.2301 17.5279 21.2422 17.5327 21.2532C17.5375 21.2642 17.5454 21.2736 17.5555 21.2802C19.6633 22.1908 21.8874 22.8301 24.0728 23.5237C24.1241 24.2626 24.0903 25.005 23.972 25.7361C20.5351 26.05 16.0908 26.7823 13.8047 23.4694ZM29.9391 20.9082C29.7221 21.0322 29.5013 21.1523 29.2843 21.2686C29.3075 20.978 29.323 20.6719 29.3269 20.358C29.5112 20.5623 29.7163 20.7468 29.9391 20.9082ZM24.2006 24.0739C24.3293 24.1285 24.4677 24.1566 24.6075 24.1566C24.7473 24.1566 24.8856 24.1285 25.0143 24.0739C25.3011 23.9228 25.4444 23.6089 25.704 23.4191C25.7211 23.6309 25.6635 23.8419 25.5413 24.0158C25.5142 24.0506 25.5413 24.0933 25.5955 24.0894C25.859 24.1281 26.4054 24.0235 26.5952 24.1785C26.8626 24.3916 25.9094 24.4846 25.6653 24.5156C25.6265 24.5156 25.6382 24.5776 25.6653 24.5815C25.9667 24.5797 26.266 24.5313 26.5526 24.4381C26.7812 25.0193 25.8164 24.8876 25.6343 24.9535C25.6265 24.956 25.6198 24.9609 25.615 24.9675C25.6102 24.9741 25.6076 24.9821 25.6076 24.9903C25.6076 24.9984 25.6102 25.0064 25.615 25.013C25.6198 25.0196 25.6265 25.0245 25.6343 25.0271C25.8601 25.0425 26.0869 25.0269 26.3085 24.9806C26.5138 25.4649 24.6191 25.8446 24.1425 25.2014C24.1953 24.8281 24.2147 24.4507 24.2006 24.0739ZM18.2839 31.2189C18.2839 31.1956 18.3343 31.2189 18.3304 31.2189C18.2336 32.6913 17.3036 38.6816 17.0208 40.1966C17.0208 40.2392 16.951 40.2199 16.9588 40.1966C17.1603 38.701 17.9894 32.7068 18.2839 31.2189ZM15.2035 41.0336C15.6084 41.2365 16.025 41.4151 16.4512 41.5683C16.4512 41.6806 16.4744 41.8356 16.486 42.01C15.5251 41.917 14.6107 42.1069 13.6536 42.041C13.6536 41.6961 13.6265 41.0607 13.6265 41.0607C13.8861 41.0529 14.6184 41.0374 15.2035 41.0452V41.0336ZM15.4864 42.1495H16.4667C16.5015 42.6183 16.5403 43.2615 16.579 43.9512C16.2351 43.9028 15.887 43.8911 15.5406 43.9164C15.5592 43.3309 15.545 42.7449 15.498 42.1611L15.4864 42.1495ZM15.3895 43.9125C15.3469 43.9125 14.2271 43.9125 13.7195 43.9357C13.7195 43.4708 13.6536 42.2929 13.6536 42.1689C14.2264 42.2073 14.8012 42.2073 15.374 42.1689C15.3052 42.7523 15.3104 43.342 15.3895 43.9241V43.9125ZM0.324565 38.9373C3.81182 35.8918 7.19058 33.0013 10.7553 30.0255C12.0766 31.1879 13.5335 32.2263 14.9517 33.2841C14.5138 35.3183 14.0333 37.5463 13.7544 38.8288C10.1857 38.8908 2.50604 38.9683 0.324565 38.9373ZM0.983269 51.6968C1.00793 51.1549 0.974154 50.6119 0.882526 50.0772C2.18056 50.2322 13.8474 50.1004 17.0479 50.0501C17.0711 50.4375 17.1099 50.9606 17.1486 51.5341C13.5606 51.5341 3.62583 51.6271 0.983269 51.6968ZM9.84864 46.4814C10.5577 46.4259 11.2695 46.4169 11.9797 46.4543C11.9797 46.4543 11.9797 49.3526 12.0417 49.9803L9.92226 50.0152C9.89126 48.8024 9.92226 47.6865 9.84864 46.4814ZM19.3572 56.9432C17.2029 57.3113 15.9281 57.0982 15.25 57.1408C15.2229 56.9664 15.5096 56.5673 15.6375 56.4705C15.7654 56.3736 17.4354 55.5754 17.4354 55.5754C17.9584 56.5247 19.0395 56.0675 19.3727 55.9009C19.4601 56.2481 19.4601 56.6115 19.3727 56.9587L19.3572 56.9432ZM20.7173 50.1353C19.3843 50.7204 18.0631 50.3523 17.0053 49.403L17.0363 49.8834L12.1851 49.9609C12.2424 48.7511 12.2074 47.5387 12.0805 46.3342C12.0805 46.3342 10.4376 46.1133 9.70528 46.3071C9.68203 46.3071 9.72465 48.7869 9.75565 49.9997L2.39367 49.9726C2.39367 49.9726 2.26193 42.7229 2.05657 39.1233C3.7072 39.1737 10.3679 39.0458 13.735 38.9761L13.5296 39.9176C13.9487 40.3074 14.4178 40.6396 14.9245 40.9057C14.4667 40.8575 14.0039 40.889 13.5568 40.9987C13.5543 41.0076 13.5543 41.0169 13.5568 41.0258C13.4754 42.0324 13.491 43.0445 13.6033 44.0481C13.6033 44.0481 13.6304 44.0946 13.6497 44.0946C14.1302 44.1256 16.0637 44.0365 16.6294 44.1178C16.7185 45.7181 16.8232 47.5276 16.9239 48.1476C16.9239 48.1476 17.0363 49.3604 17.0556 49.372C17.602 49.7595 18.9504 50.8405 20.6979 50.0694C20.7327 50.0423 20.7676 50.1314 20.7173 50.1508V50.1353ZM21.0466 48.6319C19.3727 49.0426 17.5129 48.3297 17.0479 48.1204C16.8929 46.989 16.7999 42.6222 16.5635 41.6148C18.4671 42.2526 20.4651 42.5631 22.4725 42.5331C22.1703 43.5018 21.2597 47.5974 21.0466 48.6552V48.6319ZM20.4731 35.4578C20.4759 35.4492 20.4813 35.4416 20.4886 35.4362C20.4959 35.4308 20.5047 35.4279 20.5138 35.4279C20.5229 35.4279 20.5318 35.4308 20.5391 35.4362C20.5464 35.4416 20.5518 35.4492 20.5545 35.4578C20.5545 36.7907 20.5971 38.1275 20.5545 39.4604C20.5545 39.4992 20.4925 39.4992 20.4886 39.4604C20.4305 38.1469 20.4693 36.8101 20.4731 35.4811V35.4578ZM23.4296 27.1969C22.5616 27.2434 18.3924 27.4372 17.1951 26.8482H17.1758C16.8708 26.5342 16.6868 26.1224 16.6565 25.6858C16.8193 25.7439 16.9898 25.7943 17.1564 25.8408C19.2449 26.3871 21.4186 26.0655 23.5226 25.8756C23.4631 26.3201 23.432 26.7679 23.4296 27.2163V27.1969ZM27.6026 49.0853C27.2152 47.9732 26.0837 43.3972 25.6149 42.3239C26.0024 42.2774 26.8277 42.134 27.1183 42.0836C27.5058 42.8934 27.9707 43.6761 28.397 44.4627C28.8232 45.2493 29.2765 46.094 29.7454 46.8883C30.1328 47.5276 30.5203 48.1553 30.9504 48.7598C29.6524 49.6703 28.1141 49.2751 27.6026 49.1046V49.0853ZM33.2249 56.6913C31.9966 56.7185 31.0202 56.8153 29.7376 56.7456C29.6465 56.3215 29.6321 55.8845 29.695 55.4553C30.8962 56.4511 31.3766 55.1569 31.3766 55.1569C31.644 55.4049 33.2132 56.1295 33.2249 56.7107V56.6913ZM48.6773 52.6229C49.5491 52.8786 50.7774 52.712 51.6376 52.5338C51.5988 52.8554 51.8507 54.0139 50.4287 54.1766C48.654 54.4052 48.7548 52.9445 48.6773 52.6422V52.6229ZM49.8707 56.1527C49.3786 56.2341 47.4257 56.5402 47.2901 55.7149C47.4372 55.8134 47.6091 55.8685 47.7861 55.8738C48.4603 55.928 51.7034 55.3391 51.8856 55.1221C52.0909 55.9784 50.4015 56.0869 49.8707 56.1721V56.1527ZM51.8856 55.0368C51.6802 55.2267 49.0144 55.6994 48.4642 55.742C47.914 55.7846 46.9453 55.8699 47.3521 55.0291C47.4377 54.8602 47.5459 54.7037 47.6737 54.5641C47.8339 54.7226 48.0034 54.8714 48.1813 55.0097C48.2278 55.0407 48.2743 54.9865 48.2511 54.94C48.1295 54.7442 47.9548 54.587 47.7473 54.4866C47.8597 54.3704 47.9876 54.2541 48.1154 54.1456C48.1929 54.2076 48.468 54.5099 48.5533 54.5602C48.562 54.5653 48.5721 54.5677 48.5822 54.567C48.5923 54.5663 48.602 54.5626 48.6099 54.5563C48.6179 54.55 48.6237 54.5415 48.6268 54.5318C48.6298 54.5222 48.6299 54.5118 48.6269 54.5021C48.541 54.314 48.3933 54.1608 48.2084 54.0681L48.4913 53.8395C48.6967 53.9713 48.8788 54.134 49.0802 54.2735C49.1074 54.2735 49.1422 54.2735 49.1229 54.2348C48.9701 54.0437 48.7769 53.8888 48.5572 53.7814C48.6339 53.7188 48.7141 53.6606 48.7974 53.6071C48.9688 53.8309 49.1899 54.0118 49.4433 54.1354C49.6966 54.259 49.9753 54.322 50.2572 54.3194C50.5391 54.3168 50.8165 54.2486 51.0675 54.1203C51.3185 53.9919 51.5363 53.8069 51.7034 53.5799C51.9824 53.8744 51.8856 54.8043 51.8856 55.0562V55.0368ZM52.5636 39.4566C52.2692 43.1647 47.9527 50.36 47.9527 50.36V50.453C45.7209 53.6923 42.7567 55.6297 41.6059 56.5557C39.9863 56.0714 38.5294 55.1298 37.1383 54.1921C35.6415 53.2336 34.2344 52.1416 32.9343 50.9296C31.6972 49.6648 30.6363 48.239 29.7802 46.6907C28.8813 45.1408 28.1219 43.5211 27.1842 42.0061C26.7967 41.1769 23.7473 34.1947 23.5884 27.2085C23.6238 26.7703 23.6303 26.3302 23.6078 25.8911L23.972 25.8601C23.9961 25.8449 24.014 25.8215 24.0224 25.7943C24.066 25.6364 24.0996 25.4759 24.1231 25.3138C24.3299 25.4581 24.5661 25.5545 24.8148 25.5961C25.0635 25.6376 25.3183 25.6233 25.5607 25.554C25.8435 25.492 26.541 25.3603 26.3976 24.9302C26.4416 24.9137 26.4833 24.8915 26.5216 24.8643C26.562 24.8437 26.5968 24.8134 26.6229 24.7763C26.6491 24.7391 26.6657 24.6961 26.6714 24.6511C26.6772 24.606 26.6718 24.5602 26.6558 24.5177C26.6398 24.4752 26.6137 24.4372 26.5797 24.4071C26.7192 24.3374 26.7812 24.2405 26.6727 24.1049C26.6146 24.0565 26.547 24.0209 26.4742 24.0002C26.4015 23.9795 26.3252 23.9743 26.2504 23.9848C26.043 23.9821 25.8358 23.9951 25.6304 24.0235C25.7699 23.8298 25.8435 23.1633 25.6537 23.2796C25.4799 23.414 25.3282 23.5748 25.2042 23.7562C24.9136 24.0894 24.5765 24.0545 24.1813 23.9925C24.1813 23.8569 24.1813 23.7213 24.1464 23.605C24.9264 23.5062 25.6831 23.2715 26.3821 22.9115C27.2888 22.524 31.6866 20.4975 33.9804 18.4982C34.0405 18.6337 34.128 18.7553 34.2373 18.8553C34.3467 18.9553 34.4756 19.0316 34.6159 19.0794C34.8716 19.1375 34.9181 18.9902 34.8794 18.8043C34.907 18.8242 34.939 18.8373 34.9727 18.8424C35.0064 18.8474 35.0409 18.8443 35.0731 18.8333C35.1054 18.8223 35.1346 18.8037 35.1581 18.7791C35.1817 18.7545 35.1991 18.7246 35.2087 18.6919C35.2377 18.6118 35.2377 18.524 35.2087 18.4439C35.3482 18.5175 35.449 18.5292 35.4916 18.3625C35.5058 18.2274 35.4925 18.0908 35.4526 17.961C35.4126 17.8312 35.3468 17.7107 35.2591 17.607C35.5342 17.39 35.7899 17.1536 36.0612 16.9328C36.6153 16.491 37.2933 17.0064 37.8474 17.2427C38.6921 17.607 40.4202 18.347 40.4319 18.3315C40.4072 18.4349 40.3891 18.5397 40.3776 18.6454C40.3776 18.7888 40.2962 19.0639 40.4822 19.1375C40.6024 19.184 40.6915 19.1142 40.7535 18.998C40.7647 19.0366 40.7847 19.072 40.812 19.1016C40.8392 19.1311 40.873 19.1539 40.9105 19.1681C40.9481 19.1824 40.9884 19.1878 41.0284 19.1838C41.0684 19.1798 41.1069 19.1666 41.1409 19.1452C41.1703 19.1262 41.1964 19.1027 41.2184 19.0755C41.323 19.246 41.5168 19.339 41.6756 19.184C41.8015 19.0631 41.8925 18.9105 41.9391 18.7423C43.9091 19.4308 45.9268 19.9747 47.976 20.3696C48.9485 20.5518 49.9404 20.5866 50.913 20.7571C52.2227 20.978 52.5055 22.1598 52.4629 23.3144C52.3685 23.3094 52.2749 23.2938 52.1839 23.2679C51.9835 23.2059 51.7868 23.1321 51.595 23.0471C51.595 23.0471 51.5717 23.0471 51.5717 23.0703C51.5327 23.2237 51.5449 23.3857 51.6066 23.5314C51.6416 23.6451 51.7175 23.7417 51.8197 23.8027C51.5902 23.9223 51.3862 24.0855 51.2191 24.2831C51.1067 24.3994 50.7929 24.6706 50.8316 24.8643C50.8704 25.0581 51.0719 25.0038 51.2191 24.9612C51.2034 24.9958 51.1967 25.0338 51.1996 25.0717C51.2026 25.1096 51.2151 25.1461 51.236 25.1778C51.2569 25.2096 51.2855 25.2355 51.3191 25.2532C51.3528 25.2709 51.3903 25.2797 51.4283 25.2789H51.5485C51.7887 25.5502 52.1374 25.3254 52.3815 25.1666L52.7031 24.9612C52.7031 25.8873 52.8465 26.8172 52.9317 27.7394C52.9937 28.4485 53.0247 29.1692 53.1177 29.8782C53.3037 35.2021 52.8542 35.7756 52.5636 39.4759V39.4566ZM53.2495 29.8511C53.1991 29.0762 53.0906 28.3012 53.0247 27.5263C52.9472 26.6467 52.9162 25.7478 52.7767 24.876C53.0761 24.6844 53.3507 24.4566 53.5943 24.1979C53.7919 24.5117 54.0012 24.8178 54.1871 25.1162C54.2395 25.1484 54.2973 25.1707 54.3576 25.1821C54.2879 25.957 54.6637 28.9367 54.8032 29.9983C54.0515 29.9751 53.4936 29.9054 53.2495 29.8705V29.8511ZM54.8768 30.0061C54.7955 28.9289 54.5862 25.957 54.4894 25.1821C57.2249 25.1394 60.131 24.3839 62.1032 22.4271C62.1458 23.636 62.5217 27.255 62.5411 27.8517C62.5689 28.0365 62.5498 28.2253 62.4855 28.4007C62.4212 28.576 62.3137 28.7324 62.173 28.8553C59.7319 30.0565 56.7406 30.1301 54.8768 30.0255V30.0061ZM60.3015 55.68C59.6776 55.9629 58.4222 56.5131 58.0037 55.7265C58.2227 55.7456 58.4433 55.7246 58.6547 55.6645C59.8137 55.4411 60.9091 54.9648 61.863 54.2696C62.2853 54.7307 60.5456 55.5793 60.2821 55.6994L60.3015 55.68ZM61.8242 54.1728C60.9271 54.8422 59.8897 55.2992 58.7903 55.5095C58.4455 55.5793 57.8914 55.7149 57.8216 55.2538C57.8329 55.0832 57.895 54.92 57.9999 54.785C58.0425 54.7075 58.0929 54.6339 58.1432 54.5602C58.2831 54.6348 58.4049 54.7393 58.4997 54.8663C58.5423 54.8973 58.5811 54.8392 58.5656 54.8005C58.4795 54.6593 58.3505 54.5493 58.1975 54.4866C58.2711 54.3859 58.3486 54.289 58.4261 54.1921C58.7012 54.3045 58.7748 54.5215 58.8562 54.5796C58.9376 54.6377 58.9259 54.5796 58.9143 54.537C58.8167 54.3585 58.6684 54.2129 58.4881 54.1185L58.6857 53.8783C58.9802 54.0604 59.0732 54.2968 59.1584 54.3781C59.1933 54.4052 59.263 54.3781 59.2437 54.3278C59.1404 54.1048 58.9749 53.9164 58.7671 53.7853L58.9724 53.5296C59.4296 54.3045 61.1888 53.917 61.2546 53.0258C61.4756 53.3958 61.6598 53.7864 61.8049 54.1921L61.8242 54.1728ZM60.9718 52.0184C61.0493 52.3051 61.6111 53.5257 60.1116 53.7969C59.0693 53.9868 58.6702 52.743 58.6469 52.6926C59.459 52.6762 60.253 52.4506 60.9524 52.0378L60.9718 52.0184ZM70.9066 46.0901C70.7245 46.0087 70.7245 45.8537 70.6586 45.7026C70.5714 45.4513 70.4557 45.2108 70.3138 44.9858C69.6744 44.1333 68.3764 44.3658 67.5511 44.8308C67.3457 44.9539 67.1717 45.123 67.0426 45.3246C66.9135 45.5263 66.8329 45.7552 66.8071 45.9932C66.8026 46.097 66.7922 46.2005 66.7761 46.3032C66.7025 46.5628 66.6444 46.5551 66.3654 46.5899C66.0051 46.6364 62.7425 46.8612 60.8982 46.9154C60.6076 45.2183 60.3208 43.5366 60.1968 42.8508C60.0127 42.079 59.9824 41.2785 60.1077 40.495C60.5778 39.7916 60.9347 39.0189 61.1655 38.205C62.3706 38.1236 65.0402 37.8912 65.7222 38.0694C66.5708 38.3019 67.0241 39.0226 67.338 39.7898C67.6518 40.557 67.8921 41.4094 68.1633 42.1727C68.1633 42.2037 68.2447 42.2192 68.2563 42.2192C68.9305 42.2192 69.6202 42.1224 70.2944 42.0914C70.9686 42.0604 71.8753 41.8046 72.4487 42.2309C72.8685 42.6228 73.1304 43.1548 73.1849 43.7265C73.3191 44.4745 73.3839 45.2333 73.3787 45.9932C72.6967 45.97 71.0151 46.1405 70.9066 46.0901Z" fill="#1A395A"/>
<path id="Vector_4" d="M69.81 48.0743C69.9412 47.9697 70.0497 47.8396 70.129 47.6918C70.2083 47.5439 70.2566 47.3815 70.2711 47.2144C70.2856 47.0473 70.266 46.879 70.2133 46.7197C70.1607 46.5605 70.0762 46.4136 69.965 46.288C69.7261 45.9892 69.3935 45.7797 69.0209 45.6932C68.6483 45.6067 68.2574 45.6484 67.9114 45.8114C67.1132 46.2841 67.3534 47.2799 67.7176 47.7836C68.1361 48.3571 69.2365 48.4617 69.81 48.0743ZM67.9734 45.9432C68.2066 45.8297 68.4664 45.7823 68.7246 45.8062C68.9829 45.8301 69.2296 45.9244 69.438 46.0788C69.9805 46.4314 70.3214 47.2683 69.8255 47.803C69.438 48.2176 68.5003 48.1905 68.0702 47.8611C67.241 47.2373 67.5433 46.1524 67.9734 45.9432Z" fill="#1A395A"/>
<path id="Vector_5" d="M68.9692 47.1056C69.0402 47.0332 69.08 46.9358 69.08 46.8344C69.08 46.7329 69.0402 46.6356 68.9692 46.5631C68.8974 46.4956 68.8024 46.458 68.7038 46.458C68.6052 46.458 68.5102 46.4956 68.4384 46.5631C68.4021 46.5935 68.3724 46.631 68.3513 46.6733C68.3301 46.7156 68.3178 46.7619 68.3153 46.8091C68.3128 46.8563 68.32 46.9036 68.3365 46.948C68.353 46.9923 68.3784 47.0328 68.4113 47.0668C68.4447 47.107 68.486 47.1399 68.5325 47.1637C68.579 47.1875 68.6298 47.2016 68.682 47.2052C68.7341 47.2088 68.7864 47.2019 68.8358 47.1848C68.8851 47.1676 68.9305 47.1407 68.9692 47.1056ZM68.8104 46.6445C68.8395 46.6558 68.8656 46.6738 68.8865 46.6971C68.9074 46.7205 68.9224 46.7484 68.9303 46.7787C68.9383 46.809 68.9389 46.8407 68.9322 46.8712C68.9255 46.9018 68.9116 46.9303 68.8917 46.9545C68.5004 47.3691 68.2718 46.4663 68.8026 46.6368L68.8104 46.6445ZM65.4006 39.4026C64.6256 38.8059 63.161 39.2167 62.3357 39.4646C62.3271 39.4656 62.3192 39.4697 62.3135 39.4761C62.3078 39.4826 62.3046 39.4909 62.3047 39.4995C62.3744 40.4101 62.5875 41.3788 62.7309 42.2816C62.7309 42.2816 65.1604 41.9755 66.3654 41.9793C66.3964 41.9793 66.4545 41.9793 66.4506 41.9367C66.3383 41.0688 66.1407 39.9761 65.4006 39.4026ZM62.8394 42.115C62.7115 41.278 62.6573 40.4139 62.4907 39.5809C63.3082 39.4259 64.6644 38.988 65.3657 39.6196C65.9779 40.166 66.1174 41.0494 66.2337 41.8205C65.668 41.8205 63.4051 42.0297 62.8394 42.1227V42.115ZM69.3334 49.6087C68.2098 48.9306 66.6521 49.1592 65.4587 49.6087C64.8313 49.8377 64.2421 50.1604 63.7112 50.5657C63.2966 50.8873 62.9091 51.2632 62.9944 51.825C62.9944 51.9103 63.6337 53.9445 63.6453 53.9484C64.6799 54.6109 66.2143 54.5683 67.3612 54.2932C67.9987 54.1426 68.6091 53.8943 69.1707 53.557C69.6726 53.2448 70.084 52.8066 70.3641 52.2861C70.3641 52.2861 70.2634 50.9958 70.2595 50.9648C70.2264 50.6807 70.1249 50.4088 69.9636 50.1726C69.8023 49.9364 69.586 49.7429 69.3334 49.6087ZM63.4245 51.0384C63.9081 50.5305 64.4965 50.1339 65.1487 49.876C66.3964 49.3219 68.1788 49.136 69.2133 49.7443C69.8837 50.1318 70.3331 50.9493 69.841 51.6816C69.4281 52.1734 68.8938 52.5488 68.2911 52.7704C67.0706 53.3168 65.3773 53.7546 64.1413 53.0301C63.4787 52.6426 62.8394 51.7553 63.4245 51.0384ZM68.915 53.4989C68.4157 53.7734 67.8812 53.978 67.3263 54.1072C66.1672 54.4125 64.9392 54.3197 63.8391 53.8437C63.8391 53.8437 63.5485 52.9758 63.4051 52.5496C63.6723 52.8692 64.0085 53.1241 64.3883 53.2952C64.7681 53.4663 65.1818 53.5492 65.5982 53.5376C66.9589 53.5029 68.2788 53.066 69.3916 52.2822C69.6927 52.09 69.9311 51.8139 70.0774 51.4879C70.1123 51.7359 70.1433 52.2435 70.1433 52.2629C69.8536 52.7787 69.429 53.206 68.915 53.4989Z" fill="#1A395A"/>
<path id="Vector_6" d="M65.9431 52.6232L65.8269 52.8286C65.7843 52.9061 65.9044 52.9758 65.947 52.8983L66.0788 52.6697C66.2093 52.709 66.3472 52.7176 66.4817 52.6948C66.6161 52.6719 66.7435 52.6182 66.8537 52.538C66.9196 52.4876 66.8537 52.3868 66.7685 52.4256C66.5835 52.5288 66.368 52.5632 66.1601 52.5225C66.3849 52.135 66.6251 51.7824 66.8692 51.4259C66.9583 51.4259 67.0474 51.4259 67.1404 51.4492C67.3149 51.4767 67.4936 51.4494 67.6519 51.3709C67.8101 51.2925 67.9401 51.1668 68.0239 51.0113C68.077 50.8712 68.0846 50.7179 68.0456 50.5733C68.0067 50.4286 67.9231 50.2999 67.8069 50.2054L67.7488 50.1666L67.8805 49.9651C67.8828 49.9623 67.8845 49.9591 67.8855 49.9557C67.8866 49.9522 67.8869 49.9486 67.8866 49.945C67.8862 49.9414 67.8852 49.9379 67.8834 49.9347C67.8817 49.9315 67.8794 49.9287 67.8766 49.9264C67.8738 49.9241 67.8706 49.9224 67.8671 49.9213C67.8637 49.9203 67.86 49.9199 67.8564 49.9203C67.8529 49.9207 67.8494 49.9217 67.8462 49.9234C67.843 49.9252 67.8402 49.9275 67.8379 49.9303C67.7759 49.9923 67.7139 50.0543 67.6558 50.1201C67.4492 50.0612 67.2322 50.0491 67.0204 50.0846C66.8086 50.1202 66.6074 50.2024 66.4314 50.3255C66.3965 50.3487 66.4314 50.4107 66.4623 50.3952C66.6595 50.306 66.8682 50.2447 67.0823 50.2131C67.2368 50.1947 67.3934 50.2065 67.5434 50.248C67.2629 50.5757 67.0041 50.9213 66.7685 51.2825C66.3616 51.2399 65.8928 51.2089 65.606 51.5848C65.5415 51.6703 65.4986 51.7701 65.4809 51.8758C65.4632 51.9815 65.4713 52.0898 65.5043 52.1917C65.5374 52.2936 65.5946 52.386 65.6709 52.4611C65.7473 52.5363 65.8407 52.5918 65.9431 52.6232ZM67.6674 50.2712C67.7655 50.3042 67.8479 50.3723 67.8987 50.4625C67.9495 50.5527 67.9651 50.6585 67.9425 50.7595C67.8418 51.2787 67.3923 51.3213 66.9738 51.2864C67.2063 50.9493 67.4388 50.6122 67.6674 50.2712ZM66.257 51.3872C66.3857 51.3728 66.5157 51.3728 66.6445 51.3872C66.4159 51.7398 66.2027 52.104 65.9974 52.4605C65.2922 52.1427 65.7029 51.453 66.257 51.3872ZM23.2746 60.1285C23.1425 59.778 22.9277 59.4646 22.6484 59.215C22.3691 58.9654 22.0336 58.787 21.6705 58.6949C20.5912 58.4191 19.4536 58.4772 18.408 58.8615C17.5013 59.1482 16.0832 59.9503 16.3699 61.1205C16.4048 61.3685 16.8813 63.1508 16.9085 63.1508C17.8307 64.0963 19.396 64.0691 20.6011 63.9258C21.6705 63.7824 23.1894 63.3911 23.6079 62.2442C23.538 61.5438 23.4293 60.8479 23.2824 60.1595C23.2845 60.1572 23.286 60.1544 23.2867 60.1513C23.2875 60.1482 23.2874 60.1451 23.2867 60.142C23.2859 60.139 23.2844 60.1361 23.2823 60.1338C23.2802 60.1314 23.2776 60.1296 23.2746 60.1285ZM16.614 60.2797C16.995 59.6695 17.5908 59.2243 18.284 59.032C19.3568 58.624 20.5282 58.551 21.6434 58.8228C22.3951 58.9971 23.3483 59.7372 23.1933 60.6129C23.0615 61.4227 22.4183 61.7753 21.7248 62.0427C20.461 62.5968 19.0374 62.6657 17.726 62.2364C16.9123 61.9187 16.1103 61.2057 16.614 60.2797ZM20.4112 63.794C19.8068 63.8736 19.1945 63.8736 18.5901 63.794C18.0086 63.6865 17.4565 63.4567 16.9705 63.1198C16.9705 63.1198 16.7612 62.1357 16.6411 61.6668C17.2378 62.4069 18.5281 62.6045 19.3728 62.6045C20.0831 62.6036 20.788 62.4817 21.4574 62.2442C22.0289 62.0948 22.5539 61.8043 22.984 61.3995C23.1107 61.2556 23.208 61.0885 23.2708 60.9074C23.325 61.3452 23.4916 62.2093 23.4916 62.2093C22.7632 63.2632 21.6395 63.6313 20.4112 63.7669V63.794Z" fill="#1A395A"/>
<path id="Vector_7" d="M19.117 61.7906L19.0279 61.9301C19.0008 61.9727 19.0666 62.0269 19.0976 61.9843L19.21 61.8332C19.3675 61.9008 19.5382 61.9317 19.7094 61.9237C19.8805 61.9156 20.0476 61.8688 20.198 61.7867C20.2562 61.7518 20.2213 61.6511 20.1515 61.6744C19.8768 61.7812 19.5746 61.7948 19.2914 61.7131C19.52 61.3682 20.0276 60.4577 20.0857 60.3724C20.4344 60.4112 20.8064 60.4228 21.0234 60.0973C21.0761 60.0414 21.1142 59.9732 21.1342 59.8989C21.1541 59.8245 21.1553 59.7464 21.1376 59.6716C21.12 59.5967 21.084 59.5274 21.033 59.4698C20.9819 59.4122 20.9174 59.3682 20.8451 59.3418L20.9187 59.2371C20.9459 59.2023 20.8916 59.1674 20.8606 59.1945L20.7483 59.303C20.5878 59.2412 20.4151 59.2181 20.2441 59.2356C20.0731 59.2531 19.9086 59.3107 19.7641 59.4038C19.7331 59.4309 19.7641 59.4696 19.8067 59.4541C20.0023 59.371 20.2147 59.3352 20.4267 59.3495C20.5062 59.3549 20.5845 59.3719 20.6591 59.3999C20.4191 59.659 20.2061 59.9421 20.0237 60.2446C19.8446 60.2042 19.6607 60.1885 19.4773 60.1981C19.3024 60.2168 19.136 60.2831 18.9959 60.3896C18.8559 60.4961 18.7477 60.6389 18.683 60.8025C18.6128 60.9913 18.6188 61.2001 18.6998 61.3845C18.7808 61.569 18.9304 61.7146 19.117 61.7906ZM20.7638 59.4658C21.1009 59.6789 21.004 60.1632 20.4499 60.2678C20.3548 60.2814 20.2583 60.2814 20.1632 60.2678C20.353 59.985 20.5584 59.7215 20.7638 59.4541V59.4658ZM19.9539 60.3724C19.6905 60.8025 19.458 61.252 19.179 61.6782C19.0922 61.6324 19.0163 61.5686 18.9561 61.4911C18.896 61.4136 18.8531 61.3242 18.8303 61.2288C18.6482 60.4771 19.3727 60.3027 19.9539 60.3608V60.3724ZM12.2277 53.5452C11.2219 53.016 10.0666 52.8426 8.94971 53.0531C8.01591 53.1577 6.46989 53.6769 6.53963 54.8665C6.53963 55.1067 6.63263 56.9356 6.65588 56.9433C7.3572 58.0282 8.83735 58.3305 10.0308 58.4273C11.1234 58.5164 12.7431 58.4661 13.4018 57.4005L13.5064 55.2811C13.4456 54.9113 13.298 54.5611 13.0757 54.2594C12.8535 53.9577 12.5629 53.7129 12.2277 53.5452ZM13.2972 57.3695C12.3866 58.222 11.2436 58.3692 10.0308 58.2723C9.41947 58.2378 8.81519 58.1245 8.23289 57.9352C7.66334 57.7109 7.14913 57.3659 6.72562 56.9239C6.72562 56.9239 6.72562 55.9204 6.6985 55.4399C7.14409 56.3117 8.41888 56.7728 9.27907 56.9394C9.95363 57.0684 10.6448 57.0855 11.3249 56.9898C11.9047 56.9551 12.4673 56.7795 12.9639 56.4783C13.1197 56.3614 13.2513 56.2154 13.3514 56.0482C13.3088 56.4861 13.2972 57.3695 13.2972 57.3695ZM13.3824 55.5949C13.1538 56.4086 12.4447 56.6566 11.6969 56.8038C10.3488 57.1057 8.93679 56.906 7.7253 56.242C7.0046 55.8158 6.28778 55.0137 6.87286 54.169C7.096 53.8931 7.37207 53.6646 7.68481 53.4969C7.99756 53.3292 8.34067 53.2257 8.69398 53.1926C9.8744 52.9499 11.1021 53.1095 12.1812 53.6459C12.8128 53.9636 13.6071 54.8083 13.3824 55.5949Z" fill="#1A395A"/>
<path id="Vector_8" d="M11.3132 53.9831L11.379 53.925C11.41 53.8979 11.379 53.8475 11.3325 53.8669L11.2395 53.9289C11.0847 53.8471 10.9149 53.7978 10.7403 53.7838C10.5658 53.7698 10.3902 53.7915 10.2244 53.8475C10.217 53.8512 10.2112 53.8573 10.208 53.8648C10.2047 53.8723 10.2042 53.8807 10.2065 53.8885C10.2088 53.8964 10.2138 53.9032 10.2206 53.9077C10.2274 53.9123 10.2356 53.9143 10.2437 53.9134C10.5387 53.8651 10.8412 53.8972 11.1194 54.0064C10.8514 54.1964 10.6023 54.4118 10.3755 54.6496L10.1546 54.6186C9.97145 54.5625 9.77796 54.5488 9.5887 54.5783C9.39945 54.6078 9.21935 54.6799 9.06195 54.7891C8.96232 54.8633 8.88202 54.9605 8.82782 55.0723C8.77363 55.1842 8.74712 55.3074 8.75054 55.4316C8.75396 55.5559 8.7872 55.6774 8.84747 55.7861C8.90774 55.8948 8.99326 55.9874 9.09682 56.0561L8.98058 56.1762C8.93796 56.215 8.99995 56.2731 9.04645 56.2382L9.17819 56.1181C9.31524 56.223 9.47629 56.2922 9.64678 56.3192C9.81727 56.3463 9.99181 56.3304 10.1546 56.2731C10.1671 56.2663 10.1769 56.2554 10.1823 56.2422C10.1878 56.2291 10.1885 56.2144 10.1844 56.2008C10.1803 56.1872 10.1716 56.1754 10.1599 56.1673C10.1481 56.1593 10.1339 56.1556 10.1198 56.1568C9.83822 56.1904 9.55298 56.142 9.29831 56.0173C9.61216 55.7112 10.3329 54.8782 10.4142 54.8007C10.661 54.851 10.9164 54.8403 11.1582 54.7697C11.2695 54.7404 11.3651 54.6691 11.425 54.5709C11.485 54.4727 11.5046 54.3551 11.4798 54.2427C11.4551 54.1399 11.3964 54.0484 11.3132 53.9831ZM9.19369 55.9554C9.12419 55.9164 9.06324 55.8639 9.01448 55.801C8.96572 55.738 8.93015 55.6658 8.9099 55.5888C8.88964 55.5118 8.88512 55.4314 8.8966 55.3526C8.90808 55.2738 8.93532 55.1981 8.97671 55.13C9.18982 54.6999 9.61603 54.6806 10.0306 54.7426L10.2554 54.7774C9.89114 55.1572 9.55791 55.5718 9.19369 55.9554ZM10.8908 54.6728C10.7736 54.6844 10.6555 54.6844 10.5382 54.6728C10.7591 54.4675 10.9916 54.2853 11.2202 54.0722C11.2618 54.1045 11.2948 54.1464 11.3164 54.1943C11.3381 54.2423 11.3476 54.2948 11.3442 54.3473C11.3403 54.6108 11.0923 54.6573 10.8908 54.6728Z" fill="#1A395A"/>
</g>
</svg>
