<svg width="340" height="340" viewBox="0 0 340 340" fill="none" xmlns="http://www.w3.org/2000/svg">
<path fill-rule="evenodd" clip-rule="evenodd" d="M154.326 131.716C150.926 130.679 123.097 134.351 119.272 136.578C115.209 153.068 122.672 219.708 124.032 225.641L162.86 224.638C163.234 215.424 161.024 160.038 156.876 139.638C155.516 132.889 154.496 132.09 154.326 131.716ZM155.584 131.274C162.095 141.474 163.982 215.764 163.387 224.927C163.385 224.961 163.376 224.994 163.361 225.024C163.346 225.054 163.325 225.081 163.3 225.103C163.275 225.125 163.246 225.142 163.214 225.153C163.182 225.163 163.148 225.168 163.115 225.165L123.692 226.627C123.097 226.627 122.995 226.134 122.247 220.881C119.986 205.02 114.138 151.606 118.014 136.136C118.115 135.837 118.32 135.584 118.592 135.423C121.771 133.332 152.439 128.86 155.159 130.662C155.272 130.725 155.37 130.812 155.443 130.918C155.517 131.025 155.565 131.146 155.584 131.274ZM181.9 162.061C177.463 174.199 175.899 211.038 176.511 223.771L213.758 224.315C214.999 215.441 217.566 169.491 213.078 161.16C212.313 159.903 183.277 160.463 181.9 162.061ZM214.336 160.718C218.875 169.813 216.393 215.458 214.761 224.961C214.737 225.092 214.667 225.21 214.564 225.294C214.462 225.378 214.332 225.423 214.2 225.421L176.324 224.299C175.95 224.299 175.882 223.941 175.78 220.303C175.423 206.873 176.171 174.148 180.761 161.5C181.016 160.803 182.24 160.548 183.022 160.395C188.938 159.205 207.825 158.695 212.721 159.63C213.367 159.8 214.2 160.038 214.302 160.718H214.336ZM321.3 146.2C317.203 144.993 293.726 145.588 290.156 147.152C285.345 160.497 284.206 212.364 284.631 226.576C296.87 227.751 309.183 227.944 321.453 227.154C322.49 219.606 325.176 167.654 322.524 150.79C322.363 149.205 321.95 147.655 321.3 146.2ZM322.592 145.826C327.216 155.295 323.952 218.62 322.388 227.715C322.367 227.826 322.311 227.927 322.228 228.003C322.146 228.08 322.041 228.128 321.929 228.14C309.404 228.852 296.841 228.499 284.376 227.086C283.254 226.746 283.356 162.061 289 146.608C289.255 145.894 290.479 145.656 291.261 145.503C297.109 144.313 316.03 143.803 320.96 144.738C321.708 144.857 322.626 145.129 322.66 145.826H322.592ZM272.561 128.18C269.161 126.718 239.156 127.313 234.838 129.251C229.058 144.976 228.038 210.342 228.82 226.645L272.102 227.07C273.479 217.414 277.117 154.224 274.074 133.858C273.949 131.885 273.435 129.955 272.561 128.18ZM273.887 127.874C279.616 139.247 274.686 217.975 273.02 227.647C273 227.765 272.94 227.871 272.85 227.949C272.76 228.026 272.646 228.07 272.527 228.073L228.633 227.172C228.242 227.172 228.174 226.764 228.021 221.035C227.596 203.95 227.8 144.534 233.682 128.707C233.814 128.417 234.051 128.186 234.345 128.061C237.949 126.242 270.844 125.052 273.445 127.211C273.567 127.277 273.671 127.372 273.748 127.488C273.825 127.604 273.873 127.736 273.887 127.874Z" fill="#1A395A"/>
<path fill-rule="evenodd" clip-rule="evenodd" d="M130.577 144.144C128.247 143.719 125.847 143.9 123.607 144.671C123.608 146.726 123.773 148.778 124.1 150.808C126.324 150.746 128.535 150.45 130.696 149.924C130.818 149.188 130.875 148.443 130.866 147.697C130.893 146.63 130.853 145.563 130.747 144.501C130.73 144.229 130.747 144.229 130.577 144.144ZM123.131 144.501C123.131 144.501 122.859 147.901 122.944 149.873C123.029 151.573 123.029 152.134 126.786 151.726C128.376 151.582 129.945 151.257 131.461 150.757C131.784 150.553 131.852 150.094 131.92 149.55C132.039 148.564 132.226 144.11 131.512 143.413C130.016 142.019 123.148 143.719 123.131 144.501ZM240.397 139.775C240.227 141.811 240.227 143.858 240.397 145.895H241.264C243.157 145.917 245.05 145.798 246.925 145.538C247.3 143.72 247.493 141.869 247.503 140.013C246.585 139.401 241.4 139.214 240.397 139.775ZM239.87 139.588C239.87 139.588 239.258 142.988 239.156 144.909C239.054 146.83 239.156 147.238 242.845 147.187C244.458 147.207 246.067 147.036 247.639 146.677C247.979 146.49 248.115 146.065 248.234 145.47C248.455 144.467 249.067 140.047 248.404 139.265C247.044 137.701 239.989 138.704 239.87 139.588ZM259.063 139.707C258.893 141.743 258.893 143.79 259.063 145.827C259.352 145.847 259.641 145.847 259.93 145.827C261.823 145.849 263.716 145.73 265.591 145.47C265.975 143.653 266.169 141.801 266.169 139.945C265.2 139.248 260.1 139.146 259.063 139.707ZM258.553 139.537C258.22 141.297 257.976 143.073 257.822 144.858C257.822 146.558 257.822 147.17 261.511 147.136C263.123 147.14 264.73 146.969 266.305 146.626C266.662 146.439 266.781 146.014 266.9 145.402C267.121 144.399 267.733 139.979 267.07 139.197C265.71 137.701 258.655 138.653 258.553 139.537ZM258.876 157.795C258.715 159.832 258.715 161.878 258.876 163.915H259.743C261.636 163.94 263.528 163.826 265.404 163.575C265.786 161.758 265.98 159.906 265.982 158.05C265.081 157.336 259.947 157.234 258.876 157.795ZM258.366 157.608C258.033 159.368 257.789 161.144 257.635 162.929C257.55 164.629 257.635 165.258 261.324 165.207C262.936 165.22 264.545 165.049 266.118 164.697C266.475 164.51 266.594 164.085 266.713 163.49C266.934 162.487 267.546 158.067 266.883 157.285C265.523 155.687 258.4 156.724 258.4 157.608H258.366ZM257.89 177.396C257.785 179.437 257.842 181.483 258.06 183.516H258.927C260.82 183.468 262.706 183.281 264.571 182.955C264.888 181.12 265.007 179.256 264.928 177.396C264.061 176.682 258.944 176.801 257.89 177.396ZM257.363 177.226C257.363 177.226 256.887 180.626 256.853 182.581C256.819 184.536 256.853 184.893 260.627 184.706C262.241 184.656 263.843 184.422 265.404 184.009C265.744 183.805 265.846 183.38 265.948 182.768C266.135 181.765 266.56 177.311 265.948 176.563C264.452 175.101 257.448 176.342 257.363 177.226ZM239.7 196.844C239.586 198.885 239.643 200.932 239.87 202.964H240.737C242.629 202.908 244.515 202.72 246.381 202.403C246.681 200.566 246.8 198.704 246.738 196.844C245.82 196.13 240.686 196.232 239.7 196.844ZM239.173 196.674C238.912 198.449 238.741 200.236 238.663 202.029C238.663 203.729 238.663 204.341 242.437 204.154C244.045 204.105 245.642 203.872 247.197 203.457C247.537 203.253 247.656 202.828 247.758 202.216C247.928 201.213 248.37 196.759 247.758 196.011C246.211 194.481 239.19 195.79 239.122 196.674H239.173ZM239.819 215C239.713 217.041 239.77 219.087 239.989 221.12C240.278 221.137 240.567 221.137 240.856 221.12C242.749 221.07 244.636 220.876 246.5 220.542C246.8 218.711 246.92 216.854 246.857 215C245.99 214.303 240.873 214.405 239.819 215ZM239.292 214.847C239.292 214.847 238.816 218.247 238.782 220.185C238.748 222.123 238.782 222.514 242.556 222.327C244.169 222.269 245.771 222.035 247.333 221.63C247.673 221.426 247.775 220.984 247.877 220.389C248.064 219.386 248.489 214.932 247.877 214.184C246.381 212.637 239.377 213.946 239.292 214.847ZM257.635 196.164C257.529 198.205 257.586 200.251 257.805 202.284C258.094 202.301 258.383 202.301 258.672 202.284C260.565 202.234 262.452 202.04 264.316 201.706C264.633 199.877 264.753 198.019 264.673 196.164C263.806 195.501 258.689 195.501 257.635 196.164ZM257.108 196.011C257.108 196.011 256.632 199.411 256.598 201.349C256.564 203.287 256.598 203.678 260.372 203.491C261.985 203.433 263.587 203.199 265.149 202.794C265.489 202.59 265.591 202.165 265.693 201.553C265.88 200.55 266.305 196.096 265.693 195.348C264.197 193.801 257.193 195.127 257.108 196.011ZM256.853 215.782C256.627 217.813 256.57 219.861 256.683 221.902H257.55C259.441 221.959 261.333 221.873 263.211 221.647C263.623 219.833 263.845 217.981 263.874 216.122C263.041 215.408 257.924 215.238 256.853 215.782ZM256.326 215.595C256.326 215.595 255.663 218.995 255.527 220.899C255.391 222.803 255.425 223.211 259.182 223.228C260.791 223.268 262.399 223.125 263.976 222.803C264.333 222.616 264.452 222.191 264.605 221.596C264.826 220.593 265.506 216.173 264.86 215.391C263.5 213.776 256.462 214.711 256.326 215.595ZM240.21 157.387C240.049 159.424 240.049 161.47 240.21 163.507H241.077C242.97 163.532 244.862 163.418 246.738 163.167C247.12 161.35 247.314 159.498 247.316 157.642C246.5 156.928 241.281 156.826 240.21 157.387ZM239.7 157.2C239.7 157.2 239.071 160.6 238.969 162.521C238.867 164.442 238.969 164.85 242.658 164.799C244.271 164.821 245.88 164.649 247.452 164.289C247.809 164.102 247.928 163.677 248.064 163.082C248.268 162.079 248.88 157.659 248.234 156.877C246.857 155.279 239.802 156.401 239.7 157.2ZM239.037 177.107C239.038 179.151 239.203 181.192 239.53 183.21C239.819 183.231 240.108 183.231 240.397 183.21C242.287 183.067 244.162 182.777 246.007 182.343C246.186 180.5 246.186 178.644 246.007 176.801C245.174 176.087 240.057 176.461 239.037 177.107ZM238.51 176.971C238.51 176.971 238.204 180.371 238.272 182.343C238.34 184.315 238.425 184.655 242.165 184.281C243.765 184.141 245.345 183.822 246.874 183.329C247.214 183.108 247.299 182.683 247.367 182.071C247.503 181.051 247.707 176.597 246.976 175.883C245.48 174.421 238.544 176.087 238.51 176.971ZM185.198 170.154C185.036 172.196 185.036 174.248 185.198 176.291H186.065C187.96 176.286 189.852 176.144 191.726 175.866C192.072 174.039 192.237 172.183 192.219 170.324C191.522 169.644 186.303 169.559 185.198 170.154ZM184.688 169.984C184.688 169.984 184.11 173.384 184.025 175.322C183.94 177.26 184.025 177.634 187.748 177.549C189.363 177.538 190.971 177.344 192.542 176.971C192.882 176.784 193.001 176.342 193.12 175.764C193.324 174.761 193.885 170.307 193.205 169.542C191.811 167.978 184.79 169.117 184.688 170.001V169.984ZM201.654 169.542C201.492 171.579 201.492 173.625 201.654 175.662H202.538C204.427 175.665 206.314 175.523 208.182 175.237C208.542 173.412 208.713 171.555 208.692 169.695C207.978 169.032 202.759 168.947 201.654 169.542ZM201.127 169.355C201.127 169.355 200.566 172.755 200.481 174.693C200.481 176.393 200.481 177.022 204.204 176.92C205.814 176.918 207.417 176.724 208.981 176.342C209.338 176.155 209.457 175.713 209.576 175.135C209.78 174.132 210.324 169.678 209.576 168.913C208.267 167.349 201.229 168.488 201.127 169.355ZM201.705 187.613C201.552 189.65 201.552 191.696 201.705 193.733H202.589C204.478 193.737 206.365 193.595 208.233 193.308C208.593 191.489 208.764 189.637 208.743 187.783C208.029 187.103 202.81 187.001 201.705 187.613ZM201.178 187.443C201.178 187.443 200.617 190.843 200.532 192.764C200.447 194.685 200.532 195.093 204.255 194.991C205.863 194.986 207.466 194.798 209.032 194.43C209.389 194.226 209.508 193.801 209.627 193.206C209.831 192.22 210.375 187.766 209.627 187.001C208.318 185.42 201.297 186.559 201.178 187.443ZM184.297 188.31C184.135 190.347 184.135 192.393 184.297 194.43H185.164C187.059 194.434 188.952 194.292 190.825 194.005C191.171 192.184 191.336 190.333 191.318 188.48C190.621 187.8 185.402 187.715 184.297 188.31ZM183.787 188.14C183.787 188.14 183.209 191.54 183.124 193.461C183.039 195.382 183.124 195.79 186.847 195.688C188.461 195.682 190.069 195.494 191.641 195.127C191.981 194.923 192.1 194.498 192.219 193.903C192.423 192.9 192.984 188.463 192.304 187.698C190.91 186.117 183.889 187.256 183.787 188.14ZM184.62 207.231C184.458 209.268 184.458 211.314 184.62 213.351H185.487C187.382 213.355 189.275 213.213 191.148 212.926C191.494 211.099 191.659 209.243 191.641 207.384C190.944 206.721 185.725 206.636 184.62 207.231ZM184.11 207.044C184.11 207.044 183.532 210.444 183.447 212.382C183.447 214.082 183.447 214.711 187.17 214.609C188.78 214.607 190.383 214.413 191.947 214.031C192.304 213.844 192.423 213.402 192.542 212.824C192.746 211.821 193.307 207.367 192.542 206.602C191.233 205.038 184.212 206.177 184.11 207.044ZM200.77 206.296C200.608 208.338 200.608 210.39 200.77 212.433C201.059 212.45 201.348 212.45 201.637 212.433C203.531 212.43 205.423 212.294 207.298 212.025C207.643 210.198 207.809 208.342 207.791 206.483C207.094 205.786 201.875 205.701 200.77 206.296ZM200.26 206.126C200.26 206.126 199.682 209.526 199.597 211.464C199.512 213.402 199.597 213.776 203.32 213.691C204.929 213.681 206.532 213.487 208.097 213.113C208.454 212.926 208.573 212.484 208.692 211.889C208.896 210.903 209.457 206.449 208.692 205.684C207.4 204.12 200.362 205.259 200.26 206.126ZM294.831 155.789C294.669 157.831 294.669 159.883 294.831 161.926C297.015 161.974 299.198 161.838 301.359 161.518C301.716 159.692 301.886 157.836 301.869 155.976C301.206 155.296 295.936 155.194 294.831 155.789ZM294.304 155.619C293.998 157.386 293.782 159.168 293.658 160.957C293.658 162.657 293.658 163.269 297.381 163.184C298.99 163.174 300.593 162.98 302.158 162.606C302.515 162.419 302.617 161.977 302.736 161.382C302.94 160.379 303.501 155.942 302.838 155.177C301.444 153.596 294.406 154.701 294.304 155.619ZM293.947 173.945C293.777 175.981 293.777 178.028 293.947 180.065C296.131 180.122 298.315 179.985 300.475 179.657C300.818 177.835 300.983 175.985 300.968 174.132C300.339 173.401 295.052 173.401 293.947 173.945ZM293.437 173.775C293.437 173.775 292.859 177.175 292.774 179.096C292.689 181.017 292.774 181.425 296.497 181.323C298.106 181.319 299.708 181.131 301.274 180.762C301.631 180.558 301.75 180.133 301.869 179.538C302.073 178.535 302.634 174.098 301.954 173.333C300.577 171.701 293.522 172.891 293.437 173.775ZM293.165 191.693C293.003 193.735 293.003 195.787 293.165 197.83C295.354 197.879 297.544 197.742 299.71 197.422C300.052 195.595 300.217 193.739 300.203 191.88C299.557 191.2 294.27 191.098 293.165 191.693ZM292.638 191.523C292.638 191.523 292.077 194.923 291.992 196.861C291.907 198.799 291.992 199.173 295.715 199.088C297.324 199.079 298.927 198.885 300.492 198.51C300.849 198.323 300.968 197.881 301.087 197.303C301.291 196.3 301.852 191.846 301.087 191.081C299.795 189.517 292.74 190.656 292.638 191.523ZM293.046 208.268C292.876 210.31 292.876 212.363 293.046 214.405C295.23 214.453 297.413 214.317 299.574 213.997C299.925 212.171 300.09 210.314 300.067 208.455C299.438 207.775 294.1 207.673 293.046 208.268ZM292.536 208.098C292.536 208.098 291.958 211.498 291.873 213.436C291.788 215.374 291.873 215.748 295.596 215.663C297.205 215.654 298.808 215.46 300.373 215.085C300.73 214.898 300.849 214.456 300.968 213.878C301.172 212.858 301.733 208.421 301.053 207.656C299.676 206.092 292.621 207.231 292.536 208.098ZM308.873 208.064C308.703 210.1 308.703 212.147 308.873 214.184C311.057 214.232 313.24 214.096 315.401 213.776C315.744 211.954 315.909 210.104 315.894 208.251C315.265 207.571 309.978 207.401 308.873 208.064ZM308.363 207.894C308.363 207.894 307.785 211.294 307.7 213.215C307.615 215.136 307.7 215.544 311.423 215.442C313.032 215.438 314.634 215.25 316.2 214.881C316.557 214.677 316.676 214.252 316.795 213.657C316.999 212.654 317.56 208.217 316.88 207.452C315.503 205.871 308.448 207.01 308.363 207.894ZM309.264 190.741C309.102 192.778 309.102 194.824 309.264 196.861C311.448 196.909 313.631 196.773 315.792 196.453C316.148 194.633 316.319 192.782 316.302 190.928C315.639 190.248 310.369 190.146 309.264 190.741ZM308.737 190.571C308.432 192.332 308.216 194.108 308.091 195.892C308.091 197.592 308.091 198.221 311.814 198.119C313.422 198.114 315.025 197.926 316.591 197.558C316.948 197.354 317.05 196.929 317.169 196.334C317.373 195.331 317.934 190.894 317.271 190.129C315.877 188.548 308.839 189.687 308.737 190.571ZM311.1 173.248C310.938 175.285 310.938 177.331 311.1 179.368C313.284 179.416 315.467 179.28 317.628 178.96C317.985 177.134 318.156 175.278 318.138 173.418C317.543 172.738 312.273 172.636 311.1 173.248ZM310.573 173.061C310.268 174.828 310.052 176.61 309.927 178.399C309.927 180.099 309.927 180.728 313.65 180.626C315.258 180.621 316.861 180.433 318.427 180.065C318.784 179.861 318.886 179.419 319.005 178.841C319.209 177.838 319.77 173.401 319.107 172.636C317.781 171.055 310.743 172.194 310.641 173.061H310.573ZM311.27 155.177C311.108 157.214 311.108 159.26 311.27 161.297C313.454 161.345 315.637 161.209 317.798 160.889C318.149 159.063 318.314 157.206 318.291 155.347C317.662 154.701 312.375 154.565 311.27 155.177ZM310.76 154.99C310.76 154.99 310.182 158.39 310.097 160.328C310.012 162.266 310.097 162.64 313.82 162.555C315.435 162.545 317.043 162.351 318.614 161.977C318.954 161.79 319.073 161.348 319.192 160.77C319.396 159.767 319.957 155.313 319.277 154.548C317.9 153.001 310.845 154.123 310.76 154.99ZM125.171 162.13C125.115 164.192 125.223 166.256 125.494 168.301C127.717 168.291 129.933 168.052 132.107 167.587C132.254 166.853 132.328 166.108 132.328 165.36C132.399 164.227 132.399 163.092 132.328 161.96C132.277 161.28 126.412 161.314 125.171 162.13ZM124.695 161.994C124.695 161.994 124.338 165.394 124.389 167.349C124.44 169.304 124.389 169.61 128.163 169.304C129.76 169.201 131.34 168.916 132.872 168.454C133.195 168.25 133.28 167.757 133.348 167.264C133.501 166.278 133.79 161.824 133.11 161.11C131.648 159.631 124.729 161.161 124.695 161.994ZM132.413 180.813C130.181 180.67 127.948 181.066 125.902 181.969C126.06 184.015 126.384 186.044 126.871 188.038C129.078 187.799 131.254 187.332 133.365 186.644C133.435 185.903 133.435 185.157 133.365 184.417C133.317 183.373 133.198 182.333 133.008 181.306C132.957 180.898 132.957 180.864 132.413 180.813ZM125.409 181.884C125.409 181.884 125.409 185.284 125.664 187.239C125.868 188.939 125.953 189.483 129.625 188.786C131.199 188.514 132.738 188.069 134.215 187.46C134.521 187.222 134.555 186.763 134.572 186.219C134.572 185.233 134.453 180.762 133.688 180.133C132.09 178.807 125.392 181.051 125.409 181.901V181.884ZM134.946 200.601C132.703 200.383 130.44 200.71 128.35 201.553C128.433 203.605 128.689 205.647 129.115 207.656C131.332 207.485 133.525 207.086 135.66 206.466C135.722 205.725 135.722 204.98 135.66 204.239C135.64 203.164 135.554 202.091 135.405 201.026C135.456 200.907 135.524 200.754 134.946 200.601ZM127.857 201.468C127.857 201.468 127.755 204.868 127.942 206.823C128.095 208.523 128.129 209.084 131.852 208.523C133.437 208.301 134.993 207.908 136.493 207.35C136.782 207.129 136.833 206.653 136.884 206.109C136.884 205.123 136.884 200.652 136.187 200.006C134.623 198.646 127.857 200.686 127.857 201.519V201.468ZM142.205 142.801C142.22 144.845 142.39 146.885 142.715 148.904C144.898 148.777 147.065 148.458 149.192 147.952C149.379 146.103 149.379 144.241 149.192 142.393C148.461 141.798 143.259 142.155 142.205 142.801ZM141.678 142.665C141.678 142.665 141.389 146.065 141.474 148.037C141.559 150.009 141.61 150.349 145.367 149.958C146.968 149.812 148.548 149.487 150.076 148.989C150.416 148.768 150.484 148.309 150.569 147.714C150.688 146.711 150.875 142.24 150.127 141.526C148.614 140.098 141.712 141.832 141.678 142.699V142.665ZM150.11 160.277C148.004 159.959 145.854 160.121 143.82 160.753C143.777 162.799 143.896 164.845 144.177 166.873H145.044C146.937 166.777 148.819 166.527 150.671 166.125C150.909 164.436 150.972 162.727 150.858 161.025C150.824 160.515 151.045 160.447 150.11 160.277ZM143.31 160.617C143.31 160.617 142.936 164.017 142.97 165.972C143.004 167.927 143.072 168.284 146.812 167.978C148.421 167.882 150.013 167.596 151.555 167.128C151.895 166.924 151.98 166.482 152.082 165.887C152.218 164.867 152.524 160.396 151.81 159.682C150.297 158.186 143.327 159.801 143.276 160.617H143.31ZM150.926 179.572C148.799 179.377 146.655 179.661 144.653 180.405C144.74 182.449 144.985 184.484 145.384 186.491C147.556 186.276 149.705 185.878 151.81 185.301C151.956 183.602 151.921 181.892 151.708 180.201C151.64 179.759 151.861 179.674 150.926 179.572ZM144.126 180.303C144.126 180.303 143.939 183.703 144.126 185.675C144.313 187.647 144.347 187.987 148.087 187.375C149.684 187.178 151.253 186.796 152.762 186.236C153.085 186.015 153.153 185.573 153.204 184.961C153.289 183.941 153.323 179.47 152.575 178.79C150.943 177.447 144.126 179.436 144.126 180.303ZM146.421 198.646C146.259 200.688 146.259 202.74 146.421 204.783C148.498 204.833 150.575 204.691 152.626 204.358H152.949C153.285 202.536 153.439 200.685 153.408 198.833C152.694 198.068 147.509 198.051 146.421 198.646ZM145.894 198.476C145.894 198.476 145.35 201.876 145.282 203.814C145.214 205.752 145.282 206.143 149.022 206.024C150.632 205.998 152.234 205.793 153.799 205.412C154.156 205.208 154.258 204.783 154.377 204.188C154.581 203.185 155.091 198.731 154.377 197.966C153 196.385 145.996 197.626 145.894 198.476Z" fill="#1A395A"/>
<path fill-rule="evenodd" clip-rule="evenodd" d="M331.16 103.241C323.714 98.9914 264.741 65.7394 261.137 63.9714C260.336 63.5239 259.478 63.1865 258.587 62.9684C257.091 62.9684 239.887 72.0464 193.29 96.4754C188.037 91.2564 148.376 53.6864 139.4 45.2884C141.354 42.5041 142.979 39.5035 144.245 36.3464C144.276 36.1801 144.251 36.0081 144.174 35.8574C144.098 35.7066 143.973 35.5857 143.82 35.5134C140.76 33.4224 116.807 29.1554 112.778 31.9944C111.809 32.6744 110.432 35.8704 109.378 37.3154C107.678 39.6274 110.534 48.1614 111.418 50.9154C111.072 51.8507 110.926 52.8478 110.987 53.843C111.049 54.8382 111.317 55.8096 111.775 56.6954C112.092 57.6022 112.353 58.5276 112.557 59.4664C111.928 59.3304 111.299 59.1434 110.976 59.4664C106.437 65.0934 71.7059 95.1664 60.9789 100.793C61.0357 99.2085 60.9561 97.6216 60.7409 96.0504C60.7409 95.7274 60.4519 95.6594 60.1969 95.5574C60.5199 94.3334 60.8599 93.0244 61.1659 91.9194C62.8659 91.6304 64.0389 91.0354 65.7899 90.6784C66.7207 90.4619 67.5881 90.031 68.323 89.4201C69.0579 88.8092 69.64 88.035 70.0229 87.1594C70.6519 85.6124 70.1419 84.3374 70.3799 82.7564C70.3799 82.3824 71.7909 81.6004 71.0599 80.0364C70.7723 79.2825 70.3192 78.6027 69.7339 78.0474C69.302 77.7121 68.8877 77.3546 68.4929 76.9764C69.4959 76.6024 70.1929 76.0584 69.8529 75.0044C68.8148 73.1716 67.6799 71.3954 66.4529 69.6834C65.9622 68.9362 65.6269 68.0979 65.4669 67.2184C64.9229 65.1954 65.5689 65.5184 65.3309 63.8184C66.2223 63.3515 66.9294 62.5965 67.3369 61.6764C67.38 61.5801 67.4023 61.4758 67.4023 61.3704C67.4023 61.2649 67.38 61.1606 67.3369 61.0644C67.6604 60.9493 67.9687 60.7952 68.2549 60.6054C69.5639 59.7384 69.1219 58.6674 67.9999 57.6134C70.2949 55.4884 65.1949 50.5754 54.7739 52.5134C53.7694 52.8409 52.787 53.2328 51.8329 53.6864C50.8183 53.3076 49.7342 53.1511 48.6539 53.2274C46.4728 53.4522 44.355 54.0928 42.4149 55.1144C40.9529 55.8964 38.8619 58.3614 39.2189 60.1124C38.6628 60.2033 38.1308 60.4057 37.6549 60.7074C34.8329 62.7814 33.5409 66.6574 35.9549 69.2074C35.8251 69.4841 35.7281 69.7751 35.6659 70.0744C35.3178 71.1246 35.2242 72.2426 35.3926 73.3361C35.5611 74.4297 35.9868 75.4675 36.6349 76.3644C37.5261 77.4634 38.6362 78.3649 39.8947 79.0117C41.1532 79.6585 42.5325 80.0364 43.9449 80.1214C43.8863 80.3375 43.8577 80.5605 43.8599 80.7844C43.8599 81.6344 43.4349 83.5554 44.5229 84.1844L44.9139 84.3204C44.4719 86.0204 43.9959 87.8394 43.6049 89.4204C42.1259 88.8764 41.9049 88.7064 41.6669 88.9954C40.8874 89.8128 40.2599 90.7627 39.8139 91.8004C34.4929 90.2704 19.3629 109.225 13.5999 130.39C10.0469 143.667 6.23885 182.359 10.1999 185.997C10.8038 186.551 11.4715 187.03 12.1889 187.425C11.2199 199.427 15.4359 212.058 21.4199 222.496C27.1999 232.662 39.5929 312.205 44.1999 316.2C44.7158 316.518 45.2969 316.716 45.8999 316.778C45.2258 319.739 45.3846 322.828 46.3589 325.703C46.5459 326.281 47.3789 326.57 48.0589 326.757C52.2579 327.998 64.9229 328.712 69.3089 327.386C70.1929 327.114 71.1959 326.621 71.1619 325.686C70.9409 319.821 60.4179 320.586 58.7179 319.889C58.7521 318.957 58.8716 318.029 59.0749 317.118C59.7192 317.103 60.359 317.006 60.9789 316.829C66.1979 314.534 77.6729 226.865 79.1009 189.992C80.8735 189.604 82.5283 188.8 83.9289 187.646C86.9379 187.646 91.4769 186.201 92.7349 183.43C92.9045 182.934 92.9419 182.401 92.8436 181.886C92.7452 181.37 92.5144 180.889 92.1739 180.489C100.13 175.899 105.587 169.099 105.927 159.919C106.051 155.6 105.307 151.299 103.739 147.273C102.17 143.246 99.8103 139.575 96.7979 136.476C91.5582 131.514 84.7672 128.512 77.5709 127.976C77.0439 126.038 76.4999 124.168 75.8709 122.434C83.2396 120.361 89.9155 116.345 95.1999 110.806C107.678 97.9034 118.082 82.4674 122.111 65.0594C123.59 63.6824 125.511 61.7614 127.415 59.6194C136.459 68.1194 184.382 113.441 188.921 118.014C189.295 118.371 189.805 118.014 190.281 117.844C191.318 117.368 255.34 84.2014 256.428 83.7424C265.387 85.8844 312.426 114.342 323.238 120.36C323.319 120.394 323.405 120.411 323.493 120.411C323.58 120.411 323.667 120.394 323.748 120.36C324.139 120.241 323.748 120.87 329.358 110.602C330.259 109.854 331.313 104.992 331.517 103.802C331.51 103.686 331.474 103.573 331.412 103.475C331.349 103.377 331.262 103.296 331.16 103.241ZM112.557 56.3384C111.282 52.7004 111.758 50.2014 115.498 49.4194C116.384 49.1766 117.299 49.0564 118.218 49.0624C118.677 49.1984 119.68 49.6574 119.612 49.8274C119.575 49.9151 119.509 49.9872 119.425 50.0314C118.522 50.541 117.548 50.9134 116.535 51.1364C116.296 51.1528 116.061 51.2044 115.838 51.2894C115.058 51.4347 114.313 51.7291 113.645 52.1564C112.812 52.9214 113.22 54.3494 114.019 55.1314C115.345 56.4404 117.419 55.5054 119.119 54.8424C120.819 54.1794 123.199 53.1424 123.777 53.7544C124.355 54.3664 121.448 55.8454 120.751 57.1544C120.224 58.1404 120.751 60.0954 120.513 61.8634C118.592 61.2004 115.26 60.0614 113.288 59.5004C113.108 58.4327 112.864 57.3767 112.557 56.3384ZM122.757 52.3264C118.303 53.6694 116.552 55.0464 115.209 54.5704C114.961 54.454 114.748 54.2753 114.59 54.0518C114.432 53.8284 114.335 53.5677 114.308 53.2954C114.172 52.5984 115.396 52.4624 116.229 52.0714C117.062 51.6804 117.929 52.0714 119.51 51.1534C119.96 50.9393 120.312 50.5627 120.496 50.0994C121.761 49.5739 123.069 49.1587 124.406 48.8584L127.211 49.6744L125.698 51.3744L122.757 52.3264ZM67.8809 111.996C67.7789 110.772 67.0819 110.296 66.1809 110.636C65.2799 110.976 63.7499 112.149 63.7159 111.962C63.6819 111.775 63.7159 111.962 63.8179 111.962C62.8999 111.299 38.6579 94.3164 37.3999 93.3304C37.6436 92.9183 38.0213 92.6023 38.4699 92.4352C38.9186 92.2681 39.411 92.2601 39.8649 92.4124C46.6215 94.6844 53.0556 97.8214 59.0069 101.745C69.3259 108.545 72.1819 113.203 75.8539 126.276C74.5279 124.576 73.2189 122.774 71.8589 121.176C69.2239 118.048 68.4589 117.98 67.9999 116.875C67.8075 115.256 67.7676 113.623 67.8809 111.996ZM64.4809 67.4734C64.6564 68.4547 65.0263 69.3911 65.5689 70.2274C66.6229 71.9274 68.6799 74.7324 68.8329 75.3274C68.9859 75.9224 67.8979 75.9054 67.1329 76.2964C65.3309 75.8714 64.2429 77.0614 62.8489 77.1804C61.9479 77.1804 61.1489 77.0444 60.3669 77.0614C59.0409 77.0614 59.7379 77.3674 58.2249 77.3674C57.2219 77.3674 55.9129 77.2654 55.6069 77.3674C55.0119 77.3674 54.0599 77.8094 53.2269 77.9284C52.3939 78.0474 52.2749 77.8264 52.0879 77.5204C50.9659 75.5824 49.4019 68.3914 48.5519 67.6434L47.5999 66.8444C46.7813 66.2357 46.1843 65.376 45.8999 64.3964C45.8999 63.8864 46.1209 63.4444 46.9539 63.2404C49.0959 62.7134 50.9829 63.6484 53.1079 64.0734C56.5079 64.7874 61.0809 65.4844 64.3789 64.1924C64.4979 65.4674 63.9369 65.3824 64.4639 67.4734H64.4809ZM44.7609 71.1114C45.5429 71.2134 46.4609 71.5534 46.6649 72.3184C46.6649 73.1514 46.6649 75.1234 46.5629 76.0584C45.1859 76.0584 43.8769 74.3584 43.1629 72.9984C42.4489 71.6384 43.5709 70.9414 44.7439 71.1114H44.7609ZM46.9029 80.7504L47.2769 80.5634C47.1749 82.3469 47.1749 84.1348 47.2769 85.9184C47.7699 88.5534 48.1269 89.7094 51.3229 90.8484C54.0893 91.9057 57.059 92.3242 60.0099 92.0724L59.1939 95.0984C58.5819 94.8434 48.5179 91.0184 44.6419 89.5734C45.1349 87.3634 45.6279 85.1874 46.8859 80.7504H46.9029ZM42.1259 89.6414C42.6359 89.8624 59.3809 96.3054 59.8909 96.4414C60.2137 98.1233 60.3957 99.8292 60.4349 101.541C54.2278 97.4904 47.5033 94.294 40.4429 92.0384C40.8768 91.1615 41.4383 90.3538 42.1089 89.6414H42.1259ZM58.4799 317.084C58.2259 317.978 58.0608 318.895 57.9869 319.821C54.0942 320.127 50.1835 320.127 46.2909 319.821C46.2581 318.794 46.2979 317.766 46.4099 316.744C50.4126 317.171 54.4425 317.285 58.4629 317.084H58.4799ZM91.5789 182.784C90.6949 184.739 87.6859 185.878 85.5779 186.269C82.3309 186.898 79.3559 185.555 76.4149 183.957L82.2799 178.857C82.5814 179.196 82.9112 179.509 83.2659 179.792C84.0479 180.353 84.7959 179.979 85.4929 179.316C86.8019 178.075 87.1929 176.392 88.4169 176.834C88.5584 176.886 88.6818 176.978 88.7723 177.099C88.8628 177.22 88.9165 177.364 88.9269 177.514C88.2299 178.857 86.1559 181.339 88.0939 182.172C88.6618 182.31 89.2552 182.303 89.8197 182.152C90.3841 182 90.9013 181.709 91.3239 181.305C91.4873 181.527 91.5944 181.786 91.6359 182.058C91.6773 182.33 91.6519 182.609 91.5619 182.869L91.5789 182.784ZM52.1729 171.7C54.3423 174.024 57.0183 175.816 59.9929 176.936C65.6709 180.489 70.8559 183.294 73.2019 184.518C57.9019 184.076 43.4519 178.211 41.8709 162.758C44.9656 166.109 48.4205 169.108 52.1729 171.7ZM66.2999 146.863C68.2209 145.01 71.3999 144.5 73.9669 144.211C73.8479 148.529 73.9669 151.351 74.2049 155.754L72.6919 155.431C70.9181 152.77 68.797 150.357 66.3849 148.257C66.2999 148.002 66.2999 147.526 66.2999 146.863ZM75.3439 157.199C79.2539 157.998 84.8469 159.12 85.9349 162.741C87.0229 166.362 84.2349 168.691 80.8349 169.983C74.7999 157.165 75.6839 162.146 75.4119 157.199H75.3439ZM81.3109 170.935C85.3229 169.49 88.2469 166.532 87.0399 162.435C85.8329 158.338 79.8999 156.91 75.3609 155.992C75.1399 151.895 74.8849 147.271 74.7149 144.092C81.9059 143.548 83.3509 145.962 83.7079 145.35C83.7389 145.296 83.7474 145.232 83.7315 145.171C83.7156 145.111 83.6766 145.059 83.6229 145.027C80.8581 143.641 77.7616 143.052 74.6809 143.327C74.6809 141.899 74.5619 140.896 74.5619 140.59C74.5619 140.527 74.5368 140.467 74.4921 140.422C74.4475 140.377 74.387 140.352 74.3239 140.352C74.2607 140.352 74.2002 140.377 74.1556 140.422C74.1109 140.467 74.0859 140.527 74.0859 140.59C74.0859 141.372 74.0859 142.29 73.9839 143.378C71.3069 143.381 68.6807 144.11 66.3849 145.486C66.3849 143.191 66.5209 139.74 66.3849 135.66C74.6639 133.671 84.6259 135.184 90.9669 141.321C93.2905 143.658 95.1212 146.438 96.3506 149.495C97.58 152.552 98.183 155.826 98.1239 159.12C97.8179 167.467 91.5109 173.264 83.7419 176.409C83.4529 175.542 82.6029 173.519 81.3789 170.935H81.3109ZM105.4 159.8C105.026 170 97.8179 177.038 88.7059 181.203C88.4849 181.203 88.4509 181.084 88.5019 180.88C88.6719 179.86 90.0829 178.313 90.0319 177.582C90.0062 177.224 89.8797 176.88 89.6671 176.591C89.4545 176.302 89.1643 176.078 88.8301 175.947C88.4959 175.815 88.1313 175.781 87.7785 175.848C87.4256 175.914 87.0988 176.08 86.8359 176.324C86.2239 176.834 85.1359 179.265 84.0989 179.435C83.7079 179.435 83.2659 179.027 82.7389 178.551C83.9969 177.48 84.0309 177.497 84.0819 177.259C92.1399 173.859 98.3959 167.926 98.7189 159.12C98.8102 155.742 98.2291 152.379 97.0091 149.227C95.7892 146.075 93.9549 143.197 91.6129 140.76C85.1699 134.3 75.0379 132.6 66.4359 134.538C66.4359 132.651 66.3339 131.138 66.2319 129.438C76.2789 127.534 88.3319 129.54 96.1179 137.071C99.1156 140.04 101.483 143.583 103.078 147.489C104.673 151.395 105.463 155.582 105.4 159.8ZM66.2999 128.214C66.1129 125.222 65.8069 122.094 65.3479 118.966C65.3479 118.903 65.3228 118.843 65.2781 118.798C65.2335 118.753 65.173 118.728 65.1099 118.728C65.0467 118.728 64.9862 118.753 64.9416 118.798C64.8969 118.843 64.8719 118.903 64.8719 118.966C66.8949 134.436 64.8719 148.053 65.8069 148.818C72.6069 154.411 79.5599 168.742 82.9089 176.868L74.8169 183.872C65.7729 179.214 45.9169 167.824 40.6129 159.052C37.2911 153.753 34.7599 147.997 33.0989 141.967C30.1749 130.764 32.3339 123.046 31.2289 123.097C31.1967 123.097 31.1649 123.104 31.1356 123.117C31.1063 123.13 31.0803 123.149 31.0592 123.174C31.0382 123.198 31.0227 123.226 31.0138 123.257C31.0049 123.288 31.0029 123.321 31.0079 123.352C31.1439 127.126 30.1409 133.297 32.3339 142.171C34.0775 148.888 36.9086 155.273 40.7149 161.075C41.3439 175.304 51.6629 182.665 65.8919 184.875C69.7665 185.465 73.6922 185.648 77.6049 185.419C82.0759 187.952 83.1639 187 82.0759 187.612C71.8759 193.171 20.1449 194.412 10.5909 185.589C6.95285 182.376 10.7269 144.5 14.5689 130.645C18.1049 117.861 27.9479 99.4674 37.0089 93.6704C43.5029 98.7704 62.1689 112.013 63.1379 112.897C64.1069 113.781 65.6199 111.758 66.5379 111.69C66.9289 111.69 66.2149 115.736 66.7589 117.266C67.3029 118.796 68.2209 118.83 70.8219 121.924C72.3689 123.743 73.8139 125.783 75.3439 127.704C72.2731 127.503 69.1893 127.686 66.1639 128.248L66.2999 128.214ZM94.6899 110.16C89.5495 115.654 83.0349 119.674 75.8199 121.805C74.6547 117.727 72.8717 113.852 70.5329 110.313C67.8487 107.013 64.6721 104.146 61.1149 101.813V101.286C72.1819 95.9314 106.08 67.1504 111.894 60.2994C115.102 61.1201 118.258 62.1305 121.346 63.3254C117.402 81.1924 107.1 96.9004 94.5539 110.194L94.6899 110.16ZM323.425 118.847C313.633 113.288 265.472 84.3034 256.649 82.4164C256.041 82.5022 255.46 82.7229 254.949 83.0624C252.824 84.0994 190.553 116.62 189.669 117.062C184.875 112.489 136.527 67.2354 127.5 58.8714H127.109C125.409 60.7924 123.709 62.5264 122.298 63.9714C122.485 63.0364 122.706 62.8324 121.074 62.1694C121.465 60.3674 121.074 58.3274 121.465 57.6474C122.043 56.6954 124.049 55.7944 124.695 54.7404C124.878 54.4822 124.958 54.1652 124.921 53.851C124.883 53.5368 124.73 53.2479 124.491 53.0404C126.191 52.5134 126.191 52.5474 126.327 52.3774C126.463 52.2074 128.163 50.1504 128.401 49.8104C128.455 49.743 128.492 49.6638 128.509 49.5793C128.526 49.4948 128.523 49.4075 128.499 49.3244C128.476 49.2414 128.434 49.1651 128.375 49.1018C128.317 49.0385 128.244 48.99 128.163 48.9604C126.844 48.591 125.504 48.3015 124.151 48.0934C120.173 49.3854 120.751 49.5724 120.581 49.3854C120.078 48.6899 119.331 48.2101 118.49 48.0424C117.378 47.951 116.259 48.0721 115.192 48.3994C113.948 48.6123 112.802 49.2064 111.911 50.0994C111.197 47.8724 108.647 39.6614 109.99 37.7744C111.333 35.8874 120.003 36.7034 122.366 36.9754C128.188 37.5743 133.941 38.7125 139.553 40.3754C140.038 40.5221 140.501 40.7336 140.93 41.0044C140.369 42.7044 135.83 48.3314 134.64 49.7084C134.554 49.7972 134.505 49.9161 134.505 50.0399C134.505 50.1636 134.554 50.2826 134.64 50.3714C194.735 107.321 190.74 104.873 191.777 104.567C194.327 103.734 251.991 72.6414 256.921 71.1114C261.647 72.4714 323.748 107.78 327.947 110.211L323.425 118.847Z" fill="#1A395A"/>
<path fill-rule="evenodd" clip-rule="evenodd" d="M225.964 66.8275C229.506 63.2988 232.149 58.9708 233.669 54.2077C235.19 49.4446 235.544 44.386 234.702 39.4575C233.002 28.6795 225.59 19.5505 217.702 15.8105C213.204 13.8892 208.451 12.6295 203.592 12.0705C199.808 11.8243 196.009 12.2151 192.355 13.2265C181.985 17.0685 176.018 21.3185 171.173 31.2465C169.229 36.4297 168.344 41.9503 168.572 47.4815C172.448 76.0755 207.587 84.6265 225.964 66.8275ZM172.159 31.7225C176.766 21.9645 182.58 17.7655 192.559 13.8725C196.098 12.858 199.778 12.4274 203.456 12.5975C208.254 13.1681 212.934 14.4815 217.328 16.4905C224.842 20.1965 231.88 29.0875 233.512 39.6445C234.288 44.3778 233.922 49.228 232.443 53.791C230.965 58.3539 228.417 62.4972 225.012 65.8755C207.4 82.9265 173.587 74.8005 169.779 47.3285C169.56 42.0218 170.368 36.7228 172.159 31.7225Z" fill="#1A395A"/>
<path fill-rule="evenodd" clip-rule="evenodd" d="M221.816 62.9006C224.748 59.9645 226.934 56.3688 228.191 52.4143C229.448 48.4599 229.74 44.2618 229.041 40.1716C228.362 36.037 226.736 32.1153 224.292 28.7124C221.847 25.3094 218.649 22.5172 214.948 20.5536C211.228 18.9743 207.301 17.9381 203.286 17.4766C200.156 17.2657 197.012 17.5818 193.987 18.4116C185.487 21.5566 180.489 25.0756 176.46 33.3546C174.837 37.6567 174.097 42.2414 174.284 46.8356C177.48 70.6016 206.584 77.7246 221.816 62.9006ZM177.429 33.8476C181.237 25.7556 186.031 22.3046 194.242 19.1086C197.149 18.2615 200.176 17.8996 203.201 18.0376C207.153 18.5161 211.007 19.6058 214.625 21.2676C218.151 23.2268 221.18 25.9677 223.482 29.2801C225.783 32.5924 227.295 36.388 227.902 40.3756C228.548 44.2664 228.26 48.2552 227.06 52.0124C225.859 55.7695 223.782 59.1871 221 61.9826C206.38 76.1266 178.704 69.2076 175.576 46.6826C175.364 42.325 175.993 37.9674 177.429 33.8476Z" fill="#1A395A"/>
<path fill-rule="evenodd" clip-rule="evenodd" d="M201.858 43.0616C202.402 55.1996 202.504 55.7606 202.878 60.3506C201.394 60.3356 199.913 60.2334 198.441 60.0446C196.5 59.9344 194.623 59.3127 193.001 58.2426C192.495 57.9343 192.065 57.5159 191.743 57.0186C191.522 56.6276 190.4 57.0186 192.644 58.7186C194.321 59.9053 196.277 60.6374 198.322 60.8436C199.858 61.0945 201.408 61.2535 202.963 61.3196C203.099 63.0196 203.252 64.5496 203.286 65.1276C203.301 65.1861 203.335 65.238 203.383 65.275C203.43 65.3121 203.489 65.3322 203.549 65.3322C203.61 65.3322 203.668 65.3121 203.716 65.275C203.764 65.238 203.798 65.1861 203.813 65.1276V61.3366C210.358 61.1326 216.631 56.6276 214.999 49.8276C213.775 44.7276 208.199 43.2826 203.099 42.0246C202.861 36.9246 202.606 31.2806 202.436 27.4726C203.884 27.3155 205.347 27.344 206.788 27.5576C210.647 28.1526 211.072 29.5806 211.446 29.0366C211.471 29.0143 211.491 28.9868 211.505 28.956C211.519 28.9253 211.526 28.8919 211.526 28.8581C211.526 28.8244 211.519 28.791 211.505 28.7602C211.491 28.7294 211.471 28.702 211.446 28.6796C208.766 27.0121 205.611 26.277 202.47 26.5886C202.47 24.8886 202.334 23.5966 202.351 23.1886C202.351 23.1165 202.322 23.0473 202.271 22.9963C202.22 22.9453 202.151 22.9166 202.079 22.9166C202.007 22.9166 201.938 22.9453 201.887 22.9963C201.836 23.0473 201.807 23.1165 201.807 23.1886C201.807 24.1576 201.807 25.3306 201.688 26.5886C199.296 26.665 196.96 27.3307 194.888 28.5266C191.913 30.4986 189.89 35.1566 192.219 38.3526C194.123 41.1066 198.645 42.2626 201.858 43.0616ZM213.758 50.1506C215.22 55.9986 209.542 59.9766 203.813 60.3506C203.66 51.8506 203.711 53.5506 203.252 43.3506C207.57 44.4896 212.619 45.9006 213.673 50.1506H213.758ZM192.848 33.1506C194.242 29.2916 197.523 28.0506 201.688 27.6256C201.552 33.0826 201.875 41.5826 201.892 41.7696C196.248 40.3076 190.808 38.5056 192.763 33.0826L192.848 33.1506ZM59.4999 65.5016C57.3919 65.6886 56.4909 67.3206 56.8479 67.5246C57.2049 67.7286 58.0719 66.8106 59.6019 66.6746C60.5691 66.5916 61.5416 66.5916 62.5089 66.6746C63.4439 66.5386 61.5909 65.3146 59.4999 65.5016ZM62.4579 68.9866C62.4616 68.8302 62.4151 68.6768 62.3252 68.5488C62.2353 68.4207 62.1066 68.325 61.9582 68.2755C61.8098 68.226 61.6495 68.2255 61.5007 68.2739C61.352 68.3224 61.2227 68.4172 61.1319 68.5446C60.7749 69.0716 61.2679 69.8706 61.3699 70.4656C61.3699 70.6595 61.4469 70.8454 61.584 70.9825C61.7211 71.1196 61.907 71.1966 62.1009 71.1966C62.2947 71.1966 62.4807 71.1196 62.6178 70.9825C62.7548 70.8454 62.8319 70.6595 62.8319 70.4656C62.7494 69.9629 62.6243 69.4681 62.4579 68.9866Z" fill="#1A395A"/>
</svg>
