<svg width="340" height="340" viewBox="0 0 340 340" fill="none" xmlns="http://www.w3.org/2000/svg">
<path fill-rule="evenodd" clip-rule="evenodd" d="M161.84 54.3996C162.452 54.5866 165.053 55.7596 165.478 55.7596C165.646 55.7334 165.8 55.6479 165.91 55.5185C166.021 55.3891 166.082 55.2244 166.082 55.0541C166.082 54.8838 166.021 54.719 165.91 54.5897C165.8 54.4603 165.646 54.3748 165.478 54.3486C165.274 54.3486 164.458 53.9576 163.914 53.7366C161.84 52.8696 161.619 52.7846 161.228 53.2266C161.136 53.3349 161.078 53.4681 161.063 53.6093C161.047 53.7505 161.073 53.8931 161.139 54.0191C161.205 54.145 161.307 54.2485 161.431 54.3163C161.556 54.3841 161.699 54.4131 161.84 54.3996ZM180.2 69.6996C179.068 70.7871 177.665 71.5504 176.137 71.9096C176.137 71.9096 174.573 72.1816 175.61 72.6236C176.359 72.9651 177.21 73.0077 177.99 72.7426C179.911 72.1816 180.931 70.5836 180.761 69.7166C180.472 69.2746 180.608 69.2746 180.2 69.6996ZM199.937 294.763C200.449 296.362 201.145 297.896 202.011 299.336C206.499 307.666 210.307 313.123 210.12 313.123H210.698C210.8 311.304 201.161 294.576 199.937 294.763ZM213.112 291.414C212.653 291.414 212.143 290.717 213.656 293.828C215.747 298.095 220.286 306.272 223.431 309.808C225.964 311.746 215.764 295.018 213.112 291.414ZM251.838 300.764C251.277 300.917 251.226 300.764 251.43 301.308C253.343 306.807 255.863 312.075 258.944 317.016C260.355 318.716 256.003 307.428 251.838 300.764ZM281.894 292.264C281.197 292.111 281.044 291.873 282.744 295.664C284.444 299.455 289.34 308.21 290.037 308.193C290.173 308.193 290.241 308.108 290.292 307.955C288.024 302.457 285.21 297.2 281.894 292.264ZM262.599 62.7296C262.769 62.7296 317.339 60.2306 318.155 59.8226C319.073 59.1426 318.852 60.1626 319.107 37.3826C319.107 32.7926 319.362 16.4386 319.226 15.6906C318.852 14.4836 317.645 14.5006 316.132 14.4496C304.912 14.1266 264.146 16.8296 255.17 17.2036C254.728 17.2036 254.252 17.2036 254.252 17.8326C254.065 17.8326 257.652 61.8116 257.652 62.0326C258.111 63.2396 258.995 62.8996 262.599 62.7296ZM316.574 17.1696C316.574 19.0566 316.03 57.2556 316.013 57.2896C315.996 57.3236 260.032 60.2646 259.913 60.4346C259.913 60.0776 256.615 29.1036 255.459 18.3426C263.687 18.3086 309.145 16.7786 316.574 17.1696Z" fill="#1A395A"/>
<path fill-rule="evenodd" clip-rule="evenodd" d="M286.331 40.8C286.756 41.327 288.15 40.069 290.462 38.488C294.27 35.887 301.121 31.11 304.81 28.288C307.377 23.97 300.339 29.07 299.54 29.682C296.31 32.198 287.64 39.134 286.637 40.001C284.937 38.437 269.144 27.642 268.974 27.472C267.427 27.166 267.002 28.05 267.801 29.172C272.561 32.419 286.059 40.426 286.331 40.8ZM302.073 103.7C286.059 103.7 274.873 112.081 273.258 129.472C271.949 143.582 279.055 152.762 288.184 156.519C296.327 159.919 305.677 160.752 314.16 156.995C319.137 154.743 323.533 151.382 327.012 147.169C338.3 132.753 327.692 103.7 302.073 103.7ZM317.186 148.869C303.263 159.579 284.053 152.558 279.99 139.808C277.491 131.988 279.786 119.697 285.77 114.172C291.754 108.647 303.501 106.913 311.151 109.803C323.629 114.512 333.642 136.204 317.186 148.869ZM92.8028 47.6C92.6838 44.761 92.5648 42.279 92.4628 40.222C93.3127 40.4918 94.0677 40.9991 94.6388 41.684C95.9988 44.404 98.1408 43.078 98.1408 41.225C97.7158 38.93 95.1998 37.179 92.3268 36.686C92.2418 34.068 92.3268 34.697 91.6128 34.289C90.7798 34.663 90.9668 34.51 90.7798 36.567C89.1691 36.4998 87.5806 36.9621 86.2574 37.8831C84.9343 38.8041 83.9492 40.1331 83.4528 41.667C81.7528 46.58 86.0198 47.974 90.0658 49.555C90.0658 52.377 89.9128 55.692 89.8958 59.619C89.0519 59.7289 88.1938 59.6193 87.4046 59.3006C86.6154 58.982 85.9218 58.4651 85.3908 57.8C83.5718 54.672 83.3848 55.675 83.6908 57.358C84.3028 60.129 86.9888 61.455 89.9128 61.54C89.9128 64.396 89.5898 65.892 92.3778 65.654C93.4998 64.872 93.4998 65.042 93.3638 61.115C96.1688 60.299 98.4638 58.395 98.7188 55.607C98.9738 51.442 95.8968 49.147 92.8028 47.6ZM90.0998 46.478C88.6756 46.0583 87.3861 45.2729 86.3598 44.2C86.0028 43.435 86.7848 42.041 87.3118 41.412C87.7046 40.9454 88.1973 40.5733 88.7535 40.3231C89.3098 40.073 89.9151 39.9513 90.5248 39.967C90.4058 41.599 90.2868 43.741 90.0998 46.478ZM93.1768 58.973C93.0918 56.083 92.9898 53.38 92.8878 50.881C94.2374 51.4615 95.3181 52.5301 95.9138 53.873C96.8998 56.338 95.6248 57.953 93.2448 58.973H93.1768ZM182.478 55.335C183.796 54.6167 185.21 54.0901 186.677 53.771C186.859 53.7327 187.019 53.6234 187.121 53.4671C187.223 53.3109 187.259 53.1206 187.221 52.938C187.182 52.7554 187.073 52.5955 186.917 52.4935C186.761 52.3914 186.57 52.3557 186.388 52.394C186.388 52.394 181.067 53.703 181.288 54.961C181.314 55.0855 181.372 55.2009 181.457 55.2952C181.543 55.3896 181.652 55.4594 181.773 55.4976C181.894 55.5357 182.024 55.5407 182.147 55.5121C182.271 55.4836 182.385 55.4224 182.478 55.335Z" fill="#1A395A"/>
<path fill-rule="evenodd" clip-rule="evenodd" d="M304.691 117.079C302.838 116.11 305.065 121.023 303.467 132.107C288.167 132.107 290.7 131.376 289.221 132.107C287.793 133.688 288.609 135.269 290.717 135.371C292.145 135.371 303.909 135.371 305.167 134.844C306.425 134.317 306.289 132.583 306.323 131.104C306.285 127.12 305.967 123.144 305.371 119.204C305.167 117.844 305.116 117.385 304.691 117.079ZM301.07 286.892C299.335 285.828 297.48 284.972 295.545 284.342C292.156 283.146 288.611 282.448 285.022 282.268C267.342 281.571 261.018 294.763 243.406 291.856C233.206 290.156 223.516 284.427 217.396 282.829C207.978 280.347 199.903 283.883 191.131 288.354C187.187 290.36 179.792 296.684 179.367 295.154C177.514 291.856 177.072 273.887 177.31 250.07C186.609 250.92 205.581 247.996 220.609 240.601C228.053 236.838 234.134 230.84 238 223.448C239.333 221.114 240.389 218.632 241.145 216.053C247.095 195.33 245.769 186.235 246.092 176.63C257.652 163.132 257.992 123.216 238.595 97.6821C234.226 91.8001 223.006 84.6771 219.3 83.3001C219.833 82.9445 220.267 82.4608 220.564 81.8935C220.861 81.3262 221.011 80.6934 221 80.0531C221.187 77.0951 220.592 76.2111 223.363 74.6131C224.433 74.1103 225.392 73.3995 226.185 72.5221C226.973 71.3717 227.613 70.1265 228.089 68.8161C230.265 61.7611 223.295 61.8631 225.165 50.2521C225.456 48.6144 225.536 46.9461 225.403 45.2881C225.348 43.8697 224.842 42.5058 223.958 41.3951C222.946 40.2446 222.084 38.9708 221.391 37.6041C220.15 33.5751 220.592 30.0221 218.909 26.6391C217.751 24.4107 216.348 22.3181 214.727 20.4001C210.426 15.4701 205.462 16.6431 199.631 13.9231C197.597 12.8459 195.49 11.9142 193.324 11.1351C188.671 10.0992 183.871 9.89202 179.146 10.5231C173.791 11.4071 164.9 16.4901 159.8 23.2731C158.711 24.6818 157.739 26.1771 156.893 27.7441C154.507 32.5135 152.894 37.6321 152.116 42.9081C151.742 45.7301 152.677 45.4071 151.725 48.1951C149.855 48.3821 149.804 48.4671 149.736 48.8241C149.948 49.6973 150.25 50.5462 150.637 51.3571C150.093 52.9721 149.549 54.5871 149.396 55.1481C148.767 58.5481 150.722 61.9481 149.09 64.7021C147.747 66.9461 144.228 68.1021 143.497 70.9241C142.511 74.6471 144.551 78.2001 147.237 81.0221C147.473 81.3359 147.782 81.5869 148.138 81.7531C138.278 85.4931 132.328 93.2961 132.379 93.7891L122.995 92.5651C122.4 92.5651 123.165 91.7151 122.264 105.978C121.946 105.681 121.526 105.516 121.091 105.519C118.014 105.519 116.96 112.421 116.688 115.481C116.28 119.901 116.263 123.981 119.935 126.565C120.227 126.769 120.54 126.94 120.87 127.075C120.394 134.028 119.884 141.814 119.357 150.127C112.009 148.31 104.469 147.38 96.9 147.356C90.3158 147.248 83.7719 148.402 77.622 150.756C62.322 156.162 50.694 165.019 41.48 181.594C41.378 181.764 35.955 191.794 34.408 195.534C32.147 200.94 31.314 206.618 37.009 207.961C38.5924 208.286 40.235 208.162 41.752 207.604C39.525 217.6 32.912 256.479 32.895 256.7C30.209 255.799 11.747 250.155 9.17998 251.243C8.90685 251.363 8.69066 251.584 8.57661 251.86C8.46255 252.135 8.45946 252.444 8.56798 252.722C9.84298 256.7 33.201 271.184 38.624 273.7C41.004 274.788 40.97 274.295 41.769 272.935C48.688 261.273 59.449 234.243 66.929 222.173C64.668 247.061 73.253 281.673 80.529 305.66C77.129 307.768 65.909 313.157 62.118 316.948C61.965 317.118 56.746 320.858 60.214 322.422C61.353 323.051 65.722 322.83 70.89 322.286C73.1 322.031 94.146 319.6 95.2 317.9C96.016 316.829 94.894 311.576 94.571 309.842C93.6143 303.851 93.2215 297.784 93.398 291.72C93.891 269.824 103.598 244.919 110.772 234.855C112.777 237.093 114.263 239.746 115.124 242.624C114.648 268.889 115.26 291.278 118.014 301.903C119.785 309.725 124.528 316.553 131.24 320.943C148.971 332.673 181.305 331.262 200.94 325.448C208.845 323.102 218.535 318.801 227.358 319.583C234.073 320.161 238.493 323.544 249.951 325.652C266.492 328.678 272.051 323 281.486 318.852C291.686 314.415 298.843 312.171 309.332 316.013C312.966 317.522 316.454 319.36 319.753 321.504C321.572 322.762 321.453 323.085 322.133 323.051C322.266 323.037 322.391 322.982 322.492 322.894C322.592 322.806 322.663 322.688 322.694 322.558C322.694 322.082 324.105 324.7 301.07 286.892ZM67.031 221C60.758 230.486 51.612 250.648 45.288 263.5C41.5842 261.407 37.8668 259.339 34.136 257.295C34.68 254.762 42.194 209.1 42.5 207.4C48.127 205.292 53.958 200.107 62.254 205.972C64.481 207.553 66.691 209.984 69.054 212.058C68.3375 213.47 67.8661 214.993 67.66 216.563C67.405 217.957 67.184 219.419 67.014 220.932L67.031 221ZM92.531 304.13C88.9705 304.275 85.4309 304.747 81.957 305.541C76.007 284.478 63.342 242.522 68.493 216.308C68.765 214.88 69.003 213.979 69.173 213.384C69.564 212.177 69.564 212.449 70.261 212.976C77.673 218.637 82.008 214.88 88.74 217.294C90.7243 218.032 92.578 219.082 94.231 220.405C96.3627 222.312 97.9471 224.754 98.821 227.477C99.201 228.616 99.9111 229.616 100.861 230.35C104.584 233.614 107.491 232.135 110.466 234.549C110.194 234.6 89.029 265.625 92.446 304.079L92.531 304.13ZM224.723 236.759C218.229 241.383 202.47 247.69 184.705 249.186C180.591 249.543 178.262 249.492 177.395 249.679C177.395 247.061 177.395 244.375 177.514 241.638C179.639 241.468 185.011 240.618 185.81 240.482C195.296 238.782 209.338 235.382 216.41 228.803C218.11 230.299 218.11 230.401 218.569 230.282C220.726 228.396 222.639 226.249 224.264 223.89C230.078 215.696 234.158 205.411 235.008 190.264C235.008 190.128 235.195 186.235 235.161 184.875C239.16 183.211 242.721 180.646 245.565 177.378C244.409 198.645 243.1 223.533 224.638 236.708L224.723 236.759ZM177.123 127.432C175.113 126.722 173.177 125.817 171.343 124.729C171.156 124.557 171.035 124.326 171.001 124.074C170.967 123.823 171.022 123.567 171.156 123.352C172.465 122.06 175.661 122.995 177.361 123.709C177.65 123.828 178.109 124.032 178.347 123.454C178.585 122.876 178.347 122.91 176.647 121.856C176.103 121.516 174.743 120.649 173.808 119.952C173.197 119.588 172.715 119.041 172.431 118.388C172.312 117.827 172.839 117.028 174.131 117.079C176.517 117.535 178.747 118.594 180.608 120.156C180.667 120.222 180.739 120.274 180.82 120.31C180.9 120.346 180.987 120.364 181.075 120.364C181.164 120.364 181.251 120.346 181.331 120.31C181.412 120.274 181.484 120.222 181.543 120.156C181.968 119.561 181.849 116.008 183.073 113.56C183.311 113.203 183.498 112.761 183.872 112.744C185.402 112.744 185.47 116.688 185.436 118.133C185.436 122.536 184.603 122.111 185.742 123.352C187.078 124.633 188.542 125.772 190.111 126.752C189.584 127.449 191.029 125.613 182.971 135.558C182.053 134.64 180.846 131.631 179.928 131.937C177.395 133.212 170.238 130.815 170.51 128.741C170.697 127.262 173.91 127.84 175.508 128.078C177.106 128.316 176.953 128.333 177.208 128.078C177.25 128.027 177.281 127.967 177.299 127.903C177.317 127.84 177.321 127.773 177.311 127.707C177.302 127.641 177.278 127.579 177.243 127.522C177.208 127.466 177.161 127.418 177.106 127.381L177.123 127.432ZM169.371 67.2181C170.558 67.8457 171.848 68.2545 173.179 68.4251C173.536 68.0851 173.519 68.2211 173.179 67.8641C172.007 67.4767 170.904 66.9027 169.915 66.1641C170.068 65.1781 172.482 58.8201 173.06 56.8821C173.417 55.6921 173.519 55.3861 173.808 54.2981C174.68 54.2474 175.554 54.2474 176.426 54.2981C176.438 55.9992 176.702 57.6891 177.208 59.3131C178.67 61.7441 185.3 61.8971 188.122 61.7781C190.944 61.6591 192.083 61.5231 193.222 59.9081C191.879 64.904 191.115 70.0377 190.944 75.2081C190.138 76.7064 189.019 78.0143 187.664 79.0437C186.309 80.073 184.75 80.7998 183.09 81.1751C174.709 82.5011 170.289 80.6651 165.529 74.0351C163.125 70.673 161.579 66.7748 161.024 62.6791C164.087 62.8292 167.147 62.325 170 61.2001C168.181 66.0791 168.402 66.6231 169.371 67.2181ZM177.871 48.9941C179.911 48.6031 190.587 49.0961 196.401 49.2151C195.738 50.9151 194.854 53.7201 193.97 56.9331C193.479 58.267 192.766 59.5084 191.862 60.6051C190.604 61.3191 182.495 61.1661 179.333 59.4491C177.82 58.6501 177.82 58.5311 177.82 48.9941H177.871ZM186.065 81.6001L185.912 81.8211C184.403 84.3429 182.698 86.7416 180.812 88.9951C180.183 88.0601 177.412 83.8951 176.749 82.7051C178.896 82.9177 181.062 82.8491 183.192 82.5011C184.191 82.3529 185.16 82.0488 186.065 81.6001ZM165.665 84.8641C166.073 89.459 166.881 94.0096 168.079 98.4641C165.911 97.9267 163.715 97.5124 161.5 97.2231C162.35 95.0131 165.359 85.5441 165.631 84.8301L165.665 84.8641ZM166.821 82.2631C168.015 81.7648 169.155 81.1438 170.221 80.4101C171.951 81.5872 173.929 82.3493 176.001 82.6371C176.975 85.0927 178.182 87.4494 179.605 89.6751C170.442 98.3111 170.034 98.8551 170.918 98.7191C172.618 98.3621 179.095 92.0891 180.285 90.9331C181.73 92.3951 187.867 100.351 189.04 101.677C189.635 102.153 189.992 101.558 190.57 101.014C193.001 98.7361 194.157 97.7331 194.769 97.2571C180.574 137.088 188.768 118.83 185.708 112.931C185.538 112.461 185.196 112.072 184.752 111.842C184.308 111.612 183.793 111.558 183.311 111.69C182.897 111.908 182.532 112.209 182.239 112.575C181.947 112.941 181.733 113.363 181.611 113.815C181.866 106.641 182.002 101.915 181.917 100.572C181.917 100.232 182.971 100.351 168.623 98.4981C168.64 98.2941 166.821 82.3991 166.787 82.2291L166.821 82.2631ZM182.665 136.119C182.036 136.969 181.475 137.819 180.965 138.431C180.965 136.833 181.135 135.405 181.22 134.181C181.575 134.893 182.053 135.538 182.631 136.085L182.665 136.119ZM180.761 143.225C190.145 170.68 203.218 194.225 231.013 186.286C232.22 185.946 233.393 185.555 234.566 185.096C234.566 200.787 229.823 218.416 218.348 229.126C206.168 217.74 192.869 207.613 178.653 198.9C179.027 181.203 179.962 157.845 180.727 143.191L180.761 143.225ZM206.261 84.3371C208.475 84.6389 210.655 85.1512 212.772 85.8671C213.582 86.1788 214.478 86.1788 215.288 85.8671C216.25 85.5132 217.155 85.0206 217.974 84.4051C220.949 84.6771 231.047 91.5791 235.484 95.9481C240.584 101.048 246.381 111.503 249.798 123.471C254.388 140.199 255.527 167.892 241.128 179.571C233.155 186.031 220.388 188.071 211.939 184.994C195.262 179.095 187.034 157.301 181.339 140.573C181.832 138.601 191.743 126.701 192.967 125.273C204.629 124.967 227.069 141.882 229.942 148.223L230.452 147.985C227.902 142.307 210.579 128.282 198.05 124.916C198.441 121.618 199.121 112.234 199.121 112.064C203.099 111.775 207.451 112.353 207.621 111.231C207.723 109.242 204.221 88.5701 203.507 84.8471C204.353 84.4747 205.269 84.2892 206.193 84.3031L206.261 84.3371ZM200.362 86.1901C201.247 85.8774 202.115 85.5199 202.963 85.1191C202.963 85.2891 206.108 110.398 206.125 110.619C197.268 110.959 197.795 110.041 197.71 113.441C197.71 113.594 197.472 123.403 197.438 124.865C196.605 124.661 192.967 123.947 192.338 124.406C192.066 124.678 191.505 125.307 190.757 126.106C190.009 125.545 188.36 124.406 187.238 123.369C188.462 120.7 185.453 127.619 200.294 86.1561L200.362 86.1901ZM195.262 96.2541C193.311 97.4751 191.453 98.8388 189.703 100.334C188.275 98.3961 183.838 92.5651 181.696 90.2701C183.655 88.1728 185.206 85.7283 186.269 83.0621C186.531 82.5274 186.704 81.953 186.779 81.3621C188.447 80.4276 189.905 79.1604 191.063 77.6391C191.488 82.9601 193.528 86.9041 198.747 86.5641C197.897 88.5021 196.792 91.5621 195.143 96.2201L195.262 96.2541ZM159.562 41.8541C160.633 43.6731 160.582 43.9791 161.619 44.5231C162.797 45.0761 164.093 45.3329 165.393 45.2711C167.773 44.9651 169.303 42.6361 171.564 42.3641C172.006 42.3641 177.123 45.8661 180.064 44.9311C183.005 43.9961 184.518 41.7181 186.643 42.7551C188.768 43.7921 189.72 46.6481 194.31 45.1351C195.755 44.507 197.128 43.7263 198.407 42.8061C198.087 44.5903 197.609 46.3425 196.979 48.0421C193.001 47.7701 181.679 47.3621 178.534 47.5831C177.021 47.6851 176.256 47.5831 176.375 51.4421C175.031 51.3334 173.679 51.379 172.346 51.5781C172.363 50.8626 172.329 50.1468 172.244 49.4361C172.04 48.0421 171.683 47.8891 170.816 47.7361C169.949 47.5831 164.56 47.7361 159.341 47.8211C159.053 45.8179 159.076 43.7823 159.409 41.7861L159.562 41.8541ZM170.85 49.1981C171.157 52.6379 170.997 56.1033 170.374 59.5001C168.47 61.8291 158.032 62.6621 156.638 61.4381C155.04 59.2961 152.082 51.6121 151.368 49.5381C154.479 49.4361 170.697 48.6541 170.697 49.1301L170.85 49.1981ZM148.767 82.0081C153.909 83.7468 159.412 84.1332 164.747 83.1301C163.642 86.1731 161.636 93.3301 160.106 96.9341C160.021 97.1721 134.351 93.7381 134.011 93.5341C145.894 80.9881 146.71 83.7591 148.767 82.0081ZM120.122 126.106C117.079 123.913 117.028 120.19 117.436 116.45C117.564 114.616 117.877 112.799 118.371 111.027C118.675 109.598 119.296 108.256 120.19 107.1C120.632 106.607 121.295 106.403 121.618 106.896C121.618 107.066 122.043 107.015 122.077 109.038C122.077 113.118 121.023 114.563 122.077 114.716C122.264 114.716 129.659 111.724 131.019 114.138C131.631 115.464 129.846 116.008 127.874 116.654C124.202 117.861 123.743 117.589 123.828 118.354C123.913 119.119 124.848 118.354 128.095 118.728C129.472 118.881 131.614 119.663 130.849 120.836C130.441 121.669 126.905 122.009 125.749 122.145C124.049 122.349 123.624 122.23 123.59 122.859C123.556 123.488 124.372 123.42 125.936 123.59C130.101 124.049 130.084 124.933 130.152 125.103C130.56 127.5 122.689 127.976 120.122 126.106ZM183.447 327.488C174.38 328.789 165.179 328.858 156.094 327.692C137.938 325.601 123.947 319.022 119.204 301.546C111.928 274.805 119.459 162.656 121.601 127.33C124.389 128.231 128.69 128.18 130.424 126.684C130.728 126.453 130.946 126.126 131.042 125.756C131.137 125.385 131.105 124.994 130.951 124.644C130.693 124.244 130.354 123.903 129.956 123.642C129.557 123.382 129.109 123.207 128.639 123.131C127.5 122.825 128.231 123.131 130.339 122.57C132.957 121.856 133.093 118.694 129.455 117.81C128.52 117.589 128.452 117.81 129.064 117.521C130.509 117.011 132.345 116.365 132.464 114.818C132.49 114.409 132.408 114 132.226 113.633C132.044 113.266 131.769 112.954 131.427 112.727C129.455 111.265 125.239 112.404 122.927 113.203C122.927 112.506 123.675 108.8 122.927 106.794C123.335 99.5351 123.522 94.6901 123.403 93.1941C183.583 101.405 181.56 100.997 181.203 100.997C181.203 104.873 180.931 110.959 180.625 118.66C178.585 117.3 174.726 115.073 172.533 116.178C172.154 116.358 171.83 116.637 171.598 116.987C171.365 117.336 171.232 117.743 171.213 118.162C171.194 118.581 171.289 118.998 171.489 119.367C171.688 119.737 171.985 120.045 172.346 120.258C174.046 121.822 174.675 121.635 173.689 121.567C170.748 121.363 169.592 122.961 170.017 124.474C170.187 124.867 170.436 125.221 170.749 125.514C171.062 125.807 171.432 126.031 171.836 126.174C174.08 127.313 173.74 126.684 171.836 126.922C169.456 127.211 168.776 129.387 171.343 131.019C172.637 131.813 174.077 132.339 175.578 132.567C177.079 132.795 178.61 132.719 180.081 132.345C180.081 132.515 177.786 167.246 176.953 213.588C175.695 254.711 175.253 291.788 178.381 296.038C179.809 306.527 190.281 321.538 201.909 323.731C195.884 325.55 189.704 326.807 183.447 327.488ZM318.954 319.43C311.95 315.18 306.085 312.426 297.432 312.63C279.718 313.242 273.122 327.93 251.158 324.343C234.855 321.725 231.778 315.639 216.614 319.056C211.616 320.178 207.978 321.742 203.116 323.289C192.916 321.47 181.798 307.105 179.163 296.548C179.163 296.548 194.004 288.184 198.101 286.348C215.237 279.055 219.266 286.008 236.045 291.278C250.495 295.834 255.238 293.335 267.801 287.623C274.992 284.342 280.568 282.625 288.49 283.866C292.497 284.473 296.375 285.743 299.965 287.623C321.181 322.541 319.855 319.991 318.954 319.43ZM69.7 38.9131C66.436 46.0021 65.773 56.7121 69.428 63.0701C70.8733 65.5133 72.7311 67.6875 74.919 69.4961C78.2545 71.9135 82.0752 73.5774 86.1171 74.3729C90.1589 75.1683 94.3252 75.0763 98.328 74.1031C103.4 72.6573 107.969 69.8256 111.52 65.9261C113.594 63.7603 115.135 61.1407 116.021 58.2753C116.906 55.4099 117.111 52.3776 116.62 49.4191C115.226 38.5391 106.539 26.9451 91.562 26.8941C82.45 26.8601 73.644 30.6001 69.7 38.9131ZM109.31 66.5211C102.17 72.9811 94.248 75.3441 84.473 72.7261C82.0766 72.1598 79.7827 71.225 77.673 69.9551C74.2085 67.8206 71.4523 64.7096 69.751 61.0131C66.215 53.0401 68.255 40.6131 73.831 34.4761C86.836 20.1621 114.393 28.2881 115.787 49.5041C116.365 57.9021 113.526 62.7301 109.31 66.5211Z" fill="#1A395A"/>
<path fill-rule="evenodd" clip-rule="evenodd" d="M72.9639 28.3897C68.6113 31.6855 65.5161 36.3702 64.1919 41.6667C59.3809 57.3747 65.5349 70.1077 76.5169 75.3437C84.3011 79.1156 93.2273 79.79 101.49 77.2307C108.001 74.9357 115.328 69.4957 118.49 63.6307C123.454 54.2977 122.179 39.2867 110.84 29.1037C102.714 21.9127 85.9009 19.1077 72.9639 28.3897ZM112.302 69.0537C104.057 76.4317 94.5709 79.2537 83.1979 76.2277C79.2463 75.2894 75.553 73.4834 72.3859 70.9407C58.7859 59.4997 60.1799 28.5597 85.9859 24.3437C109.786 20.4167 120.513 39.8987 119.986 53.6517C119.87 56.617 119.125 59.5238 117.801 62.1793C116.476 64.8347 114.602 67.178 112.302 69.0537Z" fill="#1A395A"/>
</svg>
